<ttFont>
    <TTGlyph name=".notdef" xMin="41" yMin="0" xMax="482" yMax="1107">
      <contour>
        <pt x="96" y="55" on="1"/>
        <pt x="427" y="55" on="1"/>
        <pt x="427" y="1051" on="1"/>
        <pt x="96" y="1051" on="1"/>
      </contour>
      <contour>
        <pt x="41" y="0" on="1"/>
        <pt x="41" y="1107" on="1"/>
        <pt x="482" y="1107" on="1"/>
        <pt x="482" y="0" on="1"/>
      </contour>
    </TTGlyph>
    <TTGlyph name="A" xMin="35" yMin="0" xMax="1265" yMax="1268">
      <contour>
        <pt x="453" y="534" on="1"/>
        <pt x="826" y="534" on="1"/>
        <pt x="646" y="1060" on="1"/>
      </contour>
      <contour>
        <pt x="35" y="0" on="1"/>
        <pt x="43" y="58" on="1"/>
        <pt x="188" y="101" on="1"/>
        <pt x="626" y="1246" on="1"/>
        <pt x="728" y="1268" on="1"/>
        <pt x="1130" y="95" on="1"/>
        <pt x="1265" y="64" on="1"/>
        <pt x="1257" y="0" on="1"/>
        <pt x="795" y="0" on="1"/>
        <pt x="805" y="58" on="1"/>
        <pt x="974" y="101" on="1"/>
        <pt x="850" y="455" on="1"/>
        <pt x="425" y="455" on="1"/>
        <pt x="294" y="95" on="1"/>
        <pt x="479" y="63" on="1"/>
        <pt x="469" y="0" on="1"/>
      </contour>
    </TTGlyph>
    <TTGlyph name="AE" xMin="0" yMin="0" xMax="1646" yMax="1244">
      <contour>
        <pt x="532" y="553" on="1"/>
        <pt x="842" y="553" on="1"/>
        <pt x="845" y="1075" on="1"/>
      </contour>
      <contour>
        <pt x="0" y="2" on="1"/>
        <pt x="8" y="60" on="1"/>
        <pt x="147" y="102" on="1"/>
        <pt x="791" y="1154" on="1"/>
        <pt x="567" y="1187" on="1"/>
        <pt x="576" y="1244" on="1"/>
        <pt x="1600" y="1244" on="1"/>
        <pt x="1568" y="926" on="1"/>
        <pt x="1503" y="936" on="1"/>
        <pt x="1472" y="1173" on="1"/>
        <pt x="986" y="1173" on="1"/>
        <pt x="986" y="669" on="1"/>
        <pt x="1285" y="669" on="1"/>
        <pt x="1325" y="801" on="1"/>
        <pt x="1397" y="808" on="1"/>
        <pt x="1363" y="421" on="1"/>
        <pt x="1297" y="409" on="1"/>
        <pt x="1272" y="596" on="1"/>
        <pt x="986" y="596" on="1"/>
        <pt x="986" y="75" on="1"/>
        <pt x="1500" y="75" on="1"/>
        <pt x="1586" y="326" on="1"/>
        <pt x="1646" y="313" on="1"/>
        <pt x="1616" y="0" on="1"/>
        <pt x="654" y="0" on="1"/>
        <pt x="661" y="58" on="1"/>
        <pt x="841" y="96" on="1"/>
        <pt x="841" y="472" on="1"/>
        <pt x="486" y="472" on="1"/>
        <pt x="259" y="96" on="1"/>
        <pt x="445" y="66" on="1"/>
        <pt x="435" y="2" on="1"/>
      </contour>
    </TTGlyph>
    <TTGlyph name="Aacute" xMin="35" yMin="0" xMax="1265" yMax="1732">
      <contour>
        <pt x="453" y="534" on="1"/>
        <pt x="826" y="534" on="1"/>
        <pt x="646" y="1060" on="1"/>
      </contour>
      <contour>
        <pt x="35" y="0" on="1"/>
        <pt x="43" y="58" on="1"/>
        <pt x="188" y="101" on="1"/>
        <pt x="626" y="1246" on="1"/>
        <pt x="728" y="1268" on="1"/>
        <pt x="1130" y="95" on="1"/>
        <pt x="1265" y="64" on="1"/>
        <pt x="1257" y="0" on="1"/>
        <pt x="795" y="0" on="1"/>
        <pt x="805" y="58" on="1"/>
        <pt x="974" y="101" on="1"/>
        <pt x="850" y="455" on="1"/>
        <pt x="425" y="455" on="1"/>
        <pt x="294" y="95" on="1"/>
        <pt x="479" y="63" on="1"/>
        <pt x="469" y="0" on="1"/>
      </contour>
      <contour>
        <pt x="638" y="1402" on="1"/>
        <pt x="766" y="1732" on="1"/>
        <pt x="869" y="1693" on="1"/>
        <pt x="687" y="1372" on="1"/>
      </contour>
    </TTGlyph>
    <TTGlyph name="Abreve" xMin="35" yMin="0" xMax="1265" yMax="1581">
      <contour>
        <pt x="453" y="534" on="1"/>
        <pt x="826" y="534" on="1"/>
        <pt x="646" y="1060" on="1"/>
      </contour>
      <contour>
        <pt x="35" y="0" on="1"/>
        <pt x="43" y="58" on="1"/>
        <pt x="188" y="101" on="1"/>
        <pt x="626" y="1246" on="1"/>
        <pt x="728" y="1268" on="1"/>
        <pt x="1130" y="95" on="1"/>
        <pt x="1265" y="64" on="1"/>
        <pt x="1257" y="0" on="1"/>
        <pt x="795" y="0" on="1"/>
        <pt x="805" y="58" on="1"/>
        <pt x="974" y="101" on="1"/>
        <pt x="850" y="455" on="1"/>
        <pt x="425" y="455" on="1"/>
        <pt x="294" y="95" on="1"/>
        <pt x="479" y="63" on="1"/>
        <pt x="469" y="0" on="1"/>
      </contour>
      <contour>
        <pt x="488" y="1551" on="1"/>
        <pt x="518" y="1579" on="1"/>
        <pt x="541" y="1534" on="0"/>
        <pt x="623" y="1465" on="0"/>
        <pt x="678" y="1465" on="1"/>
        <pt x="772" y="1465" on="0"/>
        <pt x="837" y="1581" on="1"/>
        <pt x="871" y="1556" on="1"/>
        <pt x="808" y="1372" on="0"/>
        <pt x="533" y="1372" on="0"/>
      </contour>
    </TTGlyph>
    <TTGlyph name="Acircumflex" xMin="35" yMin="0" xMax="1265" yMax="1596">
      <contour>
        <pt x="453" y="534" on="1"/>
        <pt x="826" y="534" on="1"/>
        <pt x="646" y="1060" on="1"/>
      </contour>
      <contour>
        <pt x="35" y="0" on="1"/>
        <pt x="43" y="58" on="1"/>
        <pt x="188" y="101" on="1"/>
        <pt x="626" y="1246" on="1"/>
        <pt x="728" y="1268" on="1"/>
        <pt x="1130" y="95" on="1"/>
        <pt x="1265" y="64" on="1"/>
        <pt x="1257" y="0" on="1"/>
        <pt x="795" y="0" on="1"/>
        <pt x="805" y="58" on="1"/>
        <pt x="974" y="101" on="1"/>
        <pt x="850" y="455" on="1"/>
        <pt x="425" y="455" on="1"/>
        <pt x="294" y="95" on="1"/>
        <pt x="479" y="63" on="1"/>
        <pt x="469" y="0" on="1"/>
      </contour>
      <contour>
        <pt x="479" y="1402" on="1"/>
        <pt x="647" y="1582" on="1"/>
        <pt x="702" y="1596" on="1"/>
        <pt x="880" y="1410" on="1"/>
        <pt x="840" y="1373" on="1"/>
        <pt x="667" y="1495" on="1"/>
        <pt x="658" y="1495" on="1"/>
        <pt x="509" y="1372" on="1"/>
      </contour>
    </TTGlyph>
    <TTGlyph name="Adieresis" xMin="35" yMin="0" xMax="1265" yMax="1532">
      <contour>
        <pt x="453" y="534" on="1"/>
        <pt x="826" y="534" on="1"/>
        <pt x="646" y="1060" on="1"/>
      </contour>
      <contour>
        <pt x="35" y="0" on="1"/>
        <pt x="43" y="58" on="1"/>
        <pt x="188" y="101" on="1"/>
        <pt x="626" y="1246" on="1"/>
        <pt x="728" y="1268" on="1"/>
        <pt x="1130" y="95" on="1"/>
        <pt x="1265" y="64" on="1"/>
        <pt x="1257" y="0" on="1"/>
        <pt x="795" y="0" on="1"/>
        <pt x="805" y="58" on="1"/>
        <pt x="974" y="101" on="1"/>
        <pt x="850" y="455" on="1"/>
        <pt x="425" y="455" on="1"/>
        <pt x="294" y="95" on="1"/>
        <pt x="479" y="63" on="1"/>
        <pt x="469" y="0" on="1"/>
      </contour>
      <contour>
        <pt x="780" y="1373" on="0"/>
        <pt x="743" y="1418" on="0"/>
        <pt x="743" y="1491" on="0"/>
        <pt x="781" y="1532" on="0"/>
        <pt x="844" y="1532" on="0"/>
        <pt x="885" y="1491" on="0"/>
        <pt x="885" y="1417" on="0"/>
        <pt x="845" y="1373" on="0"/>
      </contour>
      <contour>
        <pt x="513" y="1373" on="0"/>
        <pt x="475" y="1418" on="0"/>
        <pt x="475" y="1491" on="0"/>
        <pt x="513" y="1532" on="0"/>
        <pt x="576" y="1532" on="0"/>
        <pt x="616" y="1491" on="0"/>
        <pt x="616" y="1417" on="0"/>
        <pt x="577" y="1373" on="0"/>
      </contour>
    </TTGlyph>
    <TTGlyph name="Agrave" xMin="35" yMin="0" xMax="1265" yMax="1738">
      <contour>
        <pt x="453" y="534" on="1"/>
        <pt x="826" y="534" on="1"/>
        <pt x="646" y="1060" on="1"/>
      </contour>
      <contour>
        <pt x="35" y="0" on="1"/>
        <pt x="43" y="58" on="1"/>
        <pt x="188" y="101" on="1"/>
        <pt x="626" y="1246" on="1"/>
        <pt x="728" y="1268" on="1"/>
        <pt x="1130" y="95" on="1"/>
        <pt x="1265" y="64" on="1"/>
        <pt x="1257" y="0" on="1"/>
        <pt x="795" y="0" on="1"/>
        <pt x="805" y="58" on="1"/>
        <pt x="974" y="101" on="1"/>
        <pt x="850" y="455" on="1"/>
        <pt x="425" y="455" on="1"/>
        <pt x="294" y="95" on="1"/>
        <pt x="479" y="63" on="1"/>
        <pt x="469" y="0" on="1"/>
      </contour>
      <contour>
        <pt x="482" y="1701" on="1"/>
        <pt x="586" y="1738" on="1"/>
        <pt x="719" y="1403" on="1"/>
        <pt x="668" y="1372" on="1"/>
      </contour>
    </TTGlyph>
    <TTGlyph name="Amacron" xMin="35" yMin="0" xMax="1265" yMax="1449">
      <contour>
        <pt x="453" y="534" on="1"/>
        <pt x="826" y="534" on="1"/>
        <pt x="646" y="1060" on="1"/>
      </contour>
      <contour>
        <pt x="35" y="0" on="1"/>
        <pt x="43" y="58" on="1"/>
        <pt x="188" y="101" on="1"/>
        <pt x="626" y="1246" on="1"/>
        <pt x="728" y="1268" on="1"/>
        <pt x="1130" y="95" on="1"/>
        <pt x="1265" y="64" on="1"/>
        <pt x="1257" y="0" on="1"/>
        <pt x="795" y="0" on="1"/>
        <pt x="805" y="58" on="1"/>
        <pt x="974" y="101" on="1"/>
        <pt x="850" y="455" on="1"/>
        <pt x="425" y="455" on="1"/>
        <pt x="294" y="95" on="1"/>
        <pt x="479" y="63" on="1"/>
        <pt x="469" y="0" on="1"/>
      </contour>
      <contour>
        <pt x="470" y="1373" on="1"/>
        <pt x="481" y="1449" on="1"/>
        <pt x="922" y="1449" on="1"/>
        <pt x="912" y="1373" on="1"/>
      </contour>
    </TTGlyph>
    <TTGlyph name="Aogonek" xMin="35" yMin="-377" xMax="1314" yMax="1268">
      <contour>
        <pt x="453" y="534" on="1"/>
        <pt x="826" y="534" on="1"/>
        <pt x="646" y="1060" on="1"/>
      </contour>
      <contour>
        <pt x="35" y="0" on="1"/>
        <pt x="43" y="58" on="1"/>
        <pt x="188" y="101" on="1"/>
        <pt x="626" y="1246" on="1"/>
        <pt x="728" y="1268" on="1"/>
        <pt x="1130" y="95" on="1"/>
        <pt x="1265" y="64" on="1"/>
        <pt x="1257" y="0" on="1"/>
        <pt x="1242" y="0" on="1"/>
        <pt x="1181" y="-89" on="0"/>
        <pt x="1181" y="-147" on="1"/>
        <pt x="1181" y="-256" on="0"/>
        <pt x="1314" y="-334" on="1"/>
        <pt x="1280" y="-377" on="1"/>
        <pt x="1176" y="-366" on="0"/>
        <pt x="1058" y="-266" on="0"/>
        <pt x="1058" y="-156" on="0"/>
        <pt x="1107" y="-66" on="0"/>
        <pt x="1178" y="0" on="1"/>
        <pt x="795" y="0" on="1"/>
        <pt x="805" y="58" on="1"/>
        <pt x="974" y="101" on="1"/>
        <pt x="850" y="455" on="1"/>
        <pt x="425" y="455" on="1"/>
        <pt x="294" y="95" on="1"/>
        <pt x="479" y="63" on="1"/>
        <pt x="469" y="0" on="1"/>
      </contour>
    </TTGlyph>
    <TTGlyph name="Aring" xMin="35" yMin="0" xMax="1265" yMax="1703">
      <contour>
        <pt x="453" y="534" on="1"/>
        <pt x="826" y="534" on="1"/>
        <pt x="646" y="1060" on="1"/>
      </contour>
      <contour>
        <pt x="35" y="0" on="1"/>
        <pt x="43" y="58" on="1"/>
        <pt x="188" y="101" on="1"/>
        <pt x="626" y="1246" on="1"/>
        <pt x="728" y="1268" on="1"/>
        <pt x="1130" y="95" on="1"/>
        <pt x="1265" y="64" on="1"/>
        <pt x="1257" y="0" on="1"/>
        <pt x="795" y="0" on="1"/>
        <pt x="805" y="58" on="1"/>
        <pt x="974" y="101" on="1"/>
        <pt x="850" y="455" on="1"/>
        <pt x="425" y="455" on="1"/>
        <pt x="294" y="95" on="1"/>
        <pt x="479" y="63" on="1"/>
        <pt x="469" y="0" on="1"/>
      </contour>
      <contour>
        <pt x="620" y="1659" on="0"/>
        <pt x="575" y="1591" on="0"/>
        <pt x="575" y="1492" on="0"/>
        <pt x="628" y="1410" on="0"/>
        <pt x="716" y="1410" on="0"/>
        <pt x="764" y="1471" on="0"/>
        <pt x="764" y="1579" on="0"/>
        <pt x="709" y="1659" on="0"/>
      </contour>
      <contour>
        <pt x="593" y="1365" on="0"/>
        <pt x="508" y="1455" on="0"/>
        <pt x="508" y="1601" on="0"/>
        <pt x="605" y="1703" on="0"/>
        <pt x="746" y="1703" on="0"/>
        <pt x="832" y="1612" on="0"/>
        <pt x="832" y="1470" on="0"/>
        <pt x="737" y="1365" on="0"/>
      </contour>
    </TTGlyph>
    <TTGlyph name="Atilde" xMin="35" yMin="0" xMax="1265" yMax="1533">
      <contour>
        <pt x="453" y="534" on="1"/>
        <pt x="826" y="534" on="1"/>
        <pt x="646" y="1060" on="1"/>
      </contour>
      <contour>
        <pt x="35" y="0" on="1"/>
        <pt x="43" y="58" on="1"/>
        <pt x="188" y="101" on="1"/>
        <pt x="626" y="1246" on="1"/>
        <pt x="728" y="1268" on="1"/>
        <pt x="1130" y="95" on="1"/>
        <pt x="1265" y="64" on="1"/>
        <pt x="1257" y="0" on="1"/>
        <pt x="795" y="0" on="1"/>
        <pt x="805" y="58" on="1"/>
        <pt x="974" y="101" on="1"/>
        <pt x="850" y="455" on="1"/>
        <pt x="425" y="455" on="1"/>
        <pt x="294" y="95" on="1"/>
        <pt x="479" y="63" on="1"/>
        <pt x="469" y="0" on="1"/>
      </contour>
      <contour>
        <pt x="454" y="1382" on="1"/>
        <pt x="473" y="1448" on="0"/>
        <pt x="495" y="1475" on="1"/>
        <pt x="543" y="1534" on="0"/>
        <pt x="601" y="1521" on="1"/>
        <pt x="804" y="1479" on="1"/>
        <pt x="848" y="1467" on="0"/>
        <pt x="880" y="1533" on="1"/>
        <pt x="922" y="1531" on="1"/>
        <pt x="892" y="1427" on="0"/>
        <pt x="826" y="1398" on="1"/>
        <pt x="798" y="1385" on="0"/>
        <pt x="767" y="1392" on="1"/>
        <pt x="566" y="1434" on="1"/>
        <pt x="525" y="1444" on="0"/>
        <pt x="487" y="1372" on="1"/>
      </contour>
    </TTGlyph>
    <TTGlyph name="B" xMin="82" yMin="0" xMax="1087" yMax="1257">
      <contour>
        <pt x="407" y="685" on="1"/>
        <pt x="691" y="685" on="1"/>
        <pt x="756" y="719" on="0"/>
        <pt x="838" y="840" on="0"/>
        <pt x="838" y="922" on="1"/>
        <pt x="838" y="1045" on="0"/>
        <pt x="673" y="1192" on="0"/>
        <pt x="507" y="1192" on="1"/>
        <pt x="439" y="1192" on="0"/>
        <pt x="407" y="1186" on="1"/>
      </contour>
      <contour>
        <pt x="407" y="75" on="1"/>
        <pt x="639" y="75" on="1"/>
        <pt x="858" y="75" on="0"/>
        <pt x="920" y="248" on="1"/>
        <pt x="936" y="294" on="0"/>
        <pt x="936" y="345" on="1"/>
        <pt x="936" y="449" on="0"/>
        <pt x="798" y="618" on="0"/>
        <pt x="646" y="618" on="1"/>
        <pt x="407" y="618" on="1"/>
      </contour>
      <contour>
        <pt x="82" y="0" on="1"/>
        <pt x="92" y="58" on="1"/>
        <pt x="260" y="96" on="1"/>
        <pt x="260" y="1129" on="1"/>
        <pt x="89" y="1155" on="1"/>
        <pt x="98" y="1211" on="1"/>
        <pt x="167" y="1222" on="0"/>
        <pt x="217" y="1229" on="1"/>
        <pt x="318" y="1242" on="1"/>
        <pt x="440" y="1257" on="0"/>
        <pt x="566" y="1257" on="1"/>
        <pt x="769" y="1257" on="0"/>
        <pt x="983" y="1090" on="0"/>
        <pt x="983" y="967" on="1"/>
        <pt x="983" y="875" on="0"/>
        <pt x="878" y="725" on="0"/>
        <pt x="777" y="679" on="1"/>
        <pt x="777" y="672" on="1"/>
        <pt x="922" y="664" on="0"/>
        <pt x="1087" y="489" on="0"/>
        <pt x="1087" y="380" on="1"/>
        <pt x="1087" y="180" on="0"/>
        <pt x="919" y="78" on="1"/>
        <pt x="789" y="0" on="0"/>
        <pt x="554" y="0" on="1"/>
      </contour>
    </TTGlyph>
    <TTGlyph name="C" xMin="108" yMin="-25" xMax="1113" yMax="1270">
      <contour>
        <pt x="194" y="218" on="0"/>
        <pt x="108" y="455" on="0"/>
        <pt x="108" y="690" on="0"/>
        <pt x="152" y="874" on="0"/>
        <pt x="248" y="1051" on="0"/>
        <pt x="385" y="1187" on="0"/>
        <pt x="590" y="1270" on="0"/>
        <pt x="711" y="1270" on="1"/>
        <pt x="932" y="1270" on="0"/>
        <pt x="1062" y="1171" on="1"/>
        <pt x="1031" y="836" on="1"/>
        <pt x="963" y="846" on="1"/>
        <pt x="927" y="1086" on="1"/>
        <pt x="843" y="1195" on="0"/>
        <pt x="496" y="1195" on="0"/>
        <pt x="271" y="891" on="0"/>
        <pt x="271" y="383" on="0"/>
        <pt x="524" y="84" on="0"/>
        <pt x="727" y="84" on="1"/>
        <pt x="827" y="84" on="0"/>
        <pt x="1013" y="180" on="0"/>
        <pt x="1084" y="252" on="1"/>
        <pt x="1113" y="195" on="1"/>
        <pt x="1050" y="111" on="0"/>
        <pt x="803" y="-25" on="0"/>
        <pt x="543" y="-25" on="0"/>
        <pt x="343" y="61" on="0"/>
      </contour>
    </TTGlyph>
    <TTGlyph name="Cacute" xMin="108" yMin="-25" xMax="1113" yMax="1732">
      <contour>
        <pt x="194" y="218" on="0"/>
        <pt x="108" y="455" on="0"/>
        <pt x="108" y="690" on="0"/>
        <pt x="152" y="874" on="0"/>
        <pt x="248" y="1051" on="0"/>
        <pt x="385" y="1187" on="0"/>
        <pt x="590" y="1270" on="0"/>
        <pt x="711" y="1270" on="1"/>
        <pt x="932" y="1270" on="0"/>
        <pt x="1062" y="1171" on="1"/>
        <pt x="1031" y="836" on="1"/>
        <pt x="963" y="846" on="1"/>
        <pt x="927" y="1086" on="1"/>
        <pt x="843" y="1195" on="0"/>
        <pt x="496" y="1195" on="0"/>
        <pt x="271" y="891" on="0"/>
        <pt x="271" y="383" on="0"/>
        <pt x="524" y="84" on="0"/>
        <pt x="727" y="84" on="1"/>
        <pt x="827" y="84" on="0"/>
        <pt x="1013" y="180" on="0"/>
        <pt x="1084" y="252" on="1"/>
        <pt x="1113" y="195" on="1"/>
        <pt x="1050" y="111" on="0"/>
        <pt x="803" y="-25" on="0"/>
        <pt x="543" y="-25" on="0"/>
        <pt x="343" y="61" on="0"/>
      </contour>
      <contour>
        <pt x="662" y="1402" on="1"/>
        <pt x="790" y="1732" on="1"/>
        <pt x="893" y="1693" on="1"/>
        <pt x="711" y="1372" on="1"/>
      </contour>
    </TTGlyph>
    <TTGlyph name="Ccaron" xMin="108" yMin="-25" xMax="1113" yMax="1600">
      <contour>
        <pt x="194" y="218" on="0"/>
        <pt x="108" y="455" on="0"/>
        <pt x="108" y="690" on="0"/>
        <pt x="152" y="874" on="0"/>
        <pt x="248" y="1051" on="0"/>
        <pt x="385" y="1187" on="0"/>
        <pt x="590" y="1270" on="0"/>
        <pt x="711" y="1270" on="1"/>
        <pt x="932" y="1270" on="0"/>
        <pt x="1062" y="1171" on="1"/>
        <pt x="1031" y="836" on="1"/>
        <pt x="963" y="846" on="1"/>
        <pt x="927" y="1086" on="1"/>
        <pt x="843" y="1195" on="0"/>
        <pt x="496" y="1195" on="0"/>
        <pt x="271" y="891" on="0"/>
        <pt x="271" y="383" on="0"/>
        <pt x="524" y="84" on="0"/>
        <pt x="727" y="84" on="1"/>
        <pt x="827" y="84" on="0"/>
        <pt x="1013" y="180" on="0"/>
        <pt x="1084" y="252" on="1"/>
        <pt x="1113" y="195" on="1"/>
        <pt x="1050" y="111" on="0"/>
        <pt x="803" y="-25" on="0"/>
        <pt x="543" y="-25" on="0"/>
        <pt x="343" y="61" on="0"/>
      </contour>
      <contour>
        <pt x="507" y="1545" on="1"/>
        <pt x="575" y="1600" on="1"/>
        <pt x="732" y="1444" on="1"/>
        <pt x="742" y="1444" on="1"/>
        <pt x="874" y="1597" on="1"/>
        <pt x="915" y="1568" on="1"/>
        <pt x="742" y="1386" on="1"/>
        <pt x="686" y="1372" on="1"/>
      </contour>
    </TTGlyph>
    <TTGlyph name="Ccedilla" xMin="108" yMin="-405" xMax="1113" yMax="1270">
      <contour>
        <pt x="511" y="-354" on="1"/>
        <pt x="554" y="-339" on="0"/>
        <pt x="614" y="-286" on="0"/>
        <pt x="614" y="-251" on="0"/>
        <pt x="610" y="-238" on="1"/>
        <pt x="603" y="-215" on="0"/>
        <pt x="586" y="-196" on="1"/>
        <pt x="586" y="-196" on="0"/>
        <pt x="572" y="-179" on="1"/>
        <pt x="568" y="-175" on="0"/>
        <pt x="536" y="-145" on="0"/>
        <pt x="534" y="-143" on="1"/>
        <pt x="617" y="-24" on="1"/>
        <pt x="396" y="-9" on="0"/>
        <pt x="108" y="326" on="0"/>
        <pt x="108" y="599" on="1"/>
        <pt x="108" y="793" on="0"/>
        <pt x="304" y="1154" on="0"/>
        <pt x="488" y="1228" on="1"/>
        <pt x="590" y="1270" on="0"/>
        <pt x="711" y="1270" on="1"/>
        <pt x="932" y="1270" on="0"/>
        <pt x="1062" y="1171" on="1"/>
        <pt x="1031" y="836" on="1"/>
        <pt x="963" y="846" on="1"/>
        <pt x="927" y="1086" on="1"/>
        <pt x="843" y="1195" on="0"/>
        <pt x="496" y="1195" on="0"/>
        <pt x="271" y="891" on="0"/>
        <pt x="271" y="383" on="0"/>
        <pt x="524" y="84" on="0"/>
        <pt x="727" y="84" on="1"/>
        <pt x="827" y="84" on="0"/>
        <pt x="1013" y="180" on="0"/>
        <pt x="1084" y="252" on="1"/>
        <pt x="1113" y="195" on="1"/>
        <pt x="1053" y="115" on="0"/>
        <pt x="821" y="-18" on="0"/>
        <pt x="684" y="-24" on="1"/>
        <pt x="638" y="-91" on="1"/>
        <pt x="727" y="-170" on="0"/>
        <pt x="727" y="-242" on="1"/>
        <pt x="727" y="-345" on="0"/>
        <pt x="527" y="-405" on="1"/>
      </contour>
    </TTGlyph>
    <TTGlyph name="Cdotaccent" xMin="108" yMin="-25" xMax="1113" yMax="1581">
      <contour>
        <pt x="194" y="218" on="0"/>
        <pt x="108" y="455" on="0"/>
        <pt x="108" y="690" on="0"/>
        <pt x="152" y="874" on="0"/>
        <pt x="248" y="1051" on="0"/>
        <pt x="385" y="1187" on="0"/>
        <pt x="590" y="1270" on="0"/>
        <pt x="711" y="1270" on="1"/>
        <pt x="932" y="1270" on="0"/>
        <pt x="1062" y="1171" on="1"/>
        <pt x="1031" y="836" on="1"/>
        <pt x="963" y="846" on="1"/>
        <pt x="927" y="1086" on="1"/>
        <pt x="843" y="1195" on="0"/>
        <pt x="496" y="1195" on="0"/>
        <pt x="271" y="891" on="0"/>
        <pt x="271" y="383" on="0"/>
        <pt x="524" y="84" on="0"/>
        <pt x="727" y="84" on="1"/>
        <pt x="827" y="84" on="0"/>
        <pt x="1013" y="180" on="0"/>
        <pt x="1084" y="252" on="1"/>
        <pt x="1113" y="195" on="1"/>
        <pt x="1050" y="111" on="0"/>
        <pt x="803" y="-25" on="0"/>
        <pt x="543" y="-25" on="0"/>
        <pt x="343" y="61" on="0"/>
      </contour>
      <contour>
        <pt x="636" y="1373" on="0"/>
        <pt x="591" y="1432" on="0"/>
        <pt x="591" y="1525" on="0"/>
        <pt x="637" y="1581" on="0"/>
        <pt x="713" y="1581" on="0"/>
        <pt x="761" y="1525" on="0"/>
        <pt x="761" y="1431" on="0"/>
        <pt x="715" y="1373" on="0"/>
      </contour>
    </TTGlyph>
    <TTGlyph name="D" xMin="81" yMin="0" xMax="1290" yMax="1259">
      <contour>
        <pt x="409" y="79" on="1"/>
        <pt x="571" y="79" on="1"/>
        <pt x="831" y="79" on="0"/>
        <pt x="1127" y="368" on="0"/>
        <pt x="1127" y="855" on="0"/>
        <pt x="838" y="1181" on="0"/>
        <pt x="557" y="1181" on="1"/>
        <pt x="450" y="1181" on="0"/>
        <pt x="409" y="1176" on="1"/>
      </contour>
      <contour>
        <pt x="81" y="0" on="1"/>
        <pt x="92" y="58" on="1"/>
        <pt x="263" y="101" on="1"/>
        <pt x="263" y="1128" on="1"/>
        <pt x="90" y="1154" on="1"/>
        <pt x="100" y="1210" on="1"/>
        <pt x="411" y="1259" on="0"/>
        <pt x="748" y="1259" on="0"/>
        <pt x="870" y="1225" on="1"/>
        <pt x="1095" y="1162" on="0"/>
        <pt x="1290" y="855" on="0"/>
        <pt x="1290" y="437" on="0"/>
        <pt x="1050" y="102" on="0"/>
        <pt x="818" y="36" on="1"/>
        <pt x="693" y="0" on="0"/>
        <pt x="544" y="0" on="1"/>
      </contour>
    </TTGlyph>
    <TTGlyph name="Dcaron" xMin="81" yMin="0" xMax="1290" yMax="1600">
      <contour>
        <pt x="409" y="79" on="1"/>
        <pt x="571" y="79" on="1"/>
        <pt x="831" y="79" on="0"/>
        <pt x="1127" y="368" on="0"/>
        <pt x="1127" y="855" on="0"/>
        <pt x="838" y="1181" on="0"/>
        <pt x="557" y="1181" on="1"/>
        <pt x="450" y="1181" on="0"/>
        <pt x="409" y="1176" on="1"/>
      </contour>
      <contour>
        <pt x="81" y="0" on="1"/>
        <pt x="92" y="58" on="1"/>
        <pt x="263" y="101" on="1"/>
        <pt x="263" y="1128" on="1"/>
        <pt x="90" y="1154" on="1"/>
        <pt x="100" y="1210" on="1"/>
        <pt x="411" y="1259" on="0"/>
        <pt x="748" y="1259" on="0"/>
        <pt x="870" y="1225" on="1"/>
        <pt x="1095" y="1162" on="0"/>
        <pt x="1290" y="855" on="0"/>
        <pt x="1290" y="437" on="0"/>
        <pt x="1050" y="102" on="0"/>
        <pt x="818" y="36" on="1"/>
        <pt x="693" y="0" on="0"/>
        <pt x="544" y="0" on="1"/>
      </contour>
      <contour>
        <pt x="482" y="1545" on="1"/>
        <pt x="550" y="1600" on="1"/>
        <pt x="707" y="1444" on="1"/>
        <pt x="717" y="1444" on="1"/>
        <pt x="849" y="1597" on="1"/>
        <pt x="890" y="1568" on="1"/>
        <pt x="717" y="1386" on="1"/>
        <pt x="661" y="1372" on="1"/>
      </contour>
    </TTGlyph>
    <TTGlyph name="Dcroat" xMin="86" yMin="0" xMax="1301" yMax="1260">
      <contour>
        <pt x="413" y="79" on="1"/>
        <pt x="609" y="79" on="1"/>
        <pt x="861" y="79" on="0"/>
        <pt x="1137" y="374" on="0"/>
        <pt x="1137" y="599" on="1"/>
        <pt x="1137" y="955" on="0"/>
        <pt x="878" y="1106" on="1"/>
        <pt x="746" y="1182" on="0"/>
        <pt x="561" y="1182" on="1"/>
        <pt x="462" y="1182" on="0"/>
        <pt x="413" y="1176" on="1"/>
        <pt x="413" y="672" on="1"/>
        <pt x="686" y="692" on="1"/>
        <pt x="676" y="616" on="1"/>
        <pt x="413" y="597" on="1"/>
      </contour>
      <contour>
        <pt x="86" y="574" on="1"/>
        <pt x="97" y="650" on="1"/>
        <pt x="267" y="662" on="1"/>
        <pt x="267" y="1129" on="1"/>
        <pt x="95" y="1155" on="1"/>
        <pt x="104" y="1211" on="1"/>
        <pt x="415" y="1260" on="0"/>
        <pt x="728" y="1260" on="0"/>
        <pt x="943" y="1214" on="0"/>
        <pt x="1018" y="1172" on="1"/>
        <pt x="1174" y="1086" on="0"/>
        <pt x="1301" y="815" on="0"/>
        <pt x="1301" y="555" on="0"/>
        <pt x="1272" y="460" on="1"/>
        <pt x="1213" y="261" on="0"/>
        <pt x="848" y="0" on="0"/>
        <pt x="557" y="0" on="1"/>
        <pt x="86" y="0" on="1"/>
        <pt x="97" y="58" on="1"/>
        <pt x="267" y="101" on="1"/>
        <pt x="267" y="587" on="1"/>
      </contour>
    </TTGlyph>
    <TTGlyph name="E" xMin="84" yMin="0" xMax="1090" yMax="1244">
      <contour>
        <pt x="84" y="1185" on="1"/>
        <pt x="93" y="1244" on="1"/>
        <pt x="1044" y="1244" on="1"/>
        <pt x="1013" y="925" on="1"/>
        <pt x="946" y="934" on="1"/>
        <pt x="916" y="1173" on="1"/>
        <pt x="413" y="1173" on="1"/>
        <pt x="413" y="668" on="1"/>
        <pt x="728" y="668" on="1"/>
        <pt x="768" y="797" on="1"/>
        <pt x="840" y="808" on="1"/>
        <pt x="807" y="419" on="1"/>
        <pt x="741" y="408" on="1"/>
        <pt x="716" y="594" on="1"/>
        <pt x="413" y="594" on="1"/>
        <pt x="413" y="75" on="1"/>
        <pt x="942" y="75" on="1"/>
        <pt x="1028" y="324" on="1"/>
        <pt x="1090" y="313" on="1"/>
        <pt x="1060" y="0" on="1"/>
        <pt x="90" y="0" on="1"/>
        <pt x="96" y="58" on="1"/>
        <pt x="265" y="96" on="1"/>
        <pt x="265" y="1151" on="1"/>
      </contour>
    </TTGlyph>
    <TTGlyph name="Eacute" xMin="84" yMin="0" xMax="1090" yMax="1732">
      <contour>
        <pt x="84" y="1185" on="1"/>
        <pt x="93" y="1244" on="1"/>
        <pt x="1044" y="1244" on="1"/>
        <pt x="1013" y="925" on="1"/>
        <pt x="946" y="934" on="1"/>
        <pt x="916" y="1173" on="1"/>
        <pt x="413" y="1173" on="1"/>
        <pt x="413" y="668" on="1"/>
        <pt x="728" y="668" on="1"/>
        <pt x="768" y="797" on="1"/>
        <pt x="840" y="808" on="1"/>
        <pt x="807" y="419" on="1"/>
        <pt x="741" y="408" on="1"/>
        <pt x="716" y="594" on="1"/>
        <pt x="413" y="594" on="1"/>
        <pt x="413" y="75" on="1"/>
        <pt x="942" y="75" on="1"/>
        <pt x="1028" y="324" on="1"/>
        <pt x="1090" y="313" on="1"/>
        <pt x="1060" y="0" on="1"/>
        <pt x="90" y="0" on="1"/>
        <pt x="96" y="58" on="1"/>
        <pt x="265" y="96" on="1"/>
        <pt x="265" y="1151" on="1"/>
      </contour>
      <contour>
        <pt x="520" y="1402" on="1"/>
        <pt x="648" y="1732" on="1"/>
        <pt x="751" y="1693" on="1"/>
        <pt x="569" y="1372" on="1"/>
      </contour>
    </TTGlyph>
    <TTGlyph name="Ecaron" xMin="84" yMin="0" xMax="1090" yMax="1600">
      <contour>
        <pt x="84" y="1185" on="1"/>
        <pt x="93" y="1244" on="1"/>
        <pt x="1044" y="1244" on="1"/>
        <pt x="1013" y="925" on="1"/>
        <pt x="946" y="934" on="1"/>
        <pt x="916" y="1173" on="1"/>
        <pt x="413" y="1173" on="1"/>
        <pt x="413" y="668" on="1"/>
        <pt x="728" y="668" on="1"/>
        <pt x="768" y="797" on="1"/>
        <pt x="840" y="808" on="1"/>
        <pt x="807" y="419" on="1"/>
        <pt x="741" y="408" on="1"/>
        <pt x="716" y="594" on="1"/>
        <pt x="413" y="594" on="1"/>
        <pt x="413" y="75" on="1"/>
        <pt x="942" y="75" on="1"/>
        <pt x="1028" y="324" on="1"/>
        <pt x="1090" y="313" on="1"/>
        <pt x="1060" y="0" on="1"/>
        <pt x="90" y="0" on="1"/>
        <pt x="96" y="58" on="1"/>
        <pt x="265" y="96" on="1"/>
        <pt x="265" y="1151" on="1"/>
      </contour>
      <contour>
        <pt x="413" y="1545" on="1"/>
        <pt x="481" y="1600" on="1"/>
        <pt x="638" y="1444" on="1"/>
        <pt x="648" y="1444" on="1"/>
        <pt x="780" y="1597" on="1"/>
        <pt x="821" y="1568" on="1"/>
        <pt x="648" y="1386" on="1"/>
        <pt x="592" y="1372" on="1"/>
      </contour>
    </TTGlyph>
    <TTGlyph name="Ecircumflex" xMin="84" yMin="0" xMax="1090" yMax="1596">
      <contour>
        <pt x="84" y="1185" on="1"/>
        <pt x="93" y="1244" on="1"/>
        <pt x="1044" y="1244" on="1"/>
        <pt x="1013" y="925" on="1"/>
        <pt x="946" y="934" on="1"/>
        <pt x="916" y="1173" on="1"/>
        <pt x="413" y="1173" on="1"/>
        <pt x="413" y="668" on="1"/>
        <pt x="728" y="668" on="1"/>
        <pt x="768" y="797" on="1"/>
        <pt x="840" y="808" on="1"/>
        <pt x="807" y="419" on="1"/>
        <pt x="741" y="408" on="1"/>
        <pt x="716" y="594" on="1"/>
        <pt x="413" y="594" on="1"/>
        <pt x="413" y="75" on="1"/>
        <pt x="942" y="75" on="1"/>
        <pt x="1028" y="324" on="1"/>
        <pt x="1090" y="313" on="1"/>
        <pt x="1060" y="0" on="1"/>
        <pt x="90" y="0" on="1"/>
        <pt x="96" y="58" on="1"/>
        <pt x="265" y="96" on="1"/>
        <pt x="265" y="1151" on="1"/>
      </contour>
      <contour>
        <pt x="392" y="1402" on="1"/>
        <pt x="560" y="1582" on="1"/>
        <pt x="615" y="1596" on="1"/>
        <pt x="793" y="1410" on="1"/>
        <pt x="753" y="1373" on="1"/>
        <pt x="580" y="1495" on="1"/>
        <pt x="571" y="1495" on="1"/>
        <pt x="422" y="1372" on="1"/>
      </contour>
    </TTGlyph>
    <TTGlyph name="Edieresis" xMin="84" yMin="0" xMax="1090" yMax="1532">
      <contour>
        <pt x="84" y="1185" on="1"/>
        <pt x="93" y="1244" on="1"/>
        <pt x="1044" y="1244" on="1"/>
        <pt x="1013" y="925" on="1"/>
        <pt x="946" y="934" on="1"/>
        <pt x="916" y="1173" on="1"/>
        <pt x="413" y="1173" on="1"/>
        <pt x="413" y="668" on="1"/>
        <pt x="728" y="668" on="1"/>
        <pt x="768" y="797" on="1"/>
        <pt x="840" y="808" on="1"/>
        <pt x="807" y="419" on="1"/>
        <pt x="741" y="408" on="1"/>
        <pt x="716" y="594" on="1"/>
        <pt x="413" y="594" on="1"/>
        <pt x="413" y="75" on="1"/>
        <pt x="942" y="75" on="1"/>
        <pt x="1028" y="324" on="1"/>
        <pt x="1090" y="313" on="1"/>
        <pt x="1060" y="0" on="1"/>
        <pt x="90" y="0" on="1"/>
        <pt x="96" y="58" on="1"/>
        <pt x="265" y="96" on="1"/>
        <pt x="265" y="1151" on="1"/>
      </contour>
      <contour>
        <pt x="717" y="1373" on="0"/>
        <pt x="680" y="1418" on="0"/>
        <pt x="680" y="1491" on="0"/>
        <pt x="718" y="1532" on="0"/>
        <pt x="781" y="1532" on="0"/>
        <pt x="822" y="1491" on="0"/>
        <pt x="822" y="1417" on="0"/>
        <pt x="782" y="1373" on="0"/>
      </contour>
      <contour>
        <pt x="450" y="1373" on="0"/>
        <pt x="412" y="1418" on="0"/>
        <pt x="412" y="1491" on="0"/>
        <pt x="450" y="1532" on="0"/>
        <pt x="513" y="1532" on="0"/>
        <pt x="553" y="1491" on="0"/>
        <pt x="553" y="1417" on="0"/>
        <pt x="514" y="1373" on="0"/>
      </contour>
    </TTGlyph>
    <TTGlyph name="Edotaccent" xMin="84" yMin="0" xMax="1090" yMax="1581">
      <contour>
        <pt x="84" y="1185" on="1"/>
        <pt x="93" y="1244" on="1"/>
        <pt x="1044" y="1244" on="1"/>
        <pt x="1013" y="925" on="1"/>
        <pt x="946" y="934" on="1"/>
        <pt x="916" y="1173" on="1"/>
        <pt x="413" y="1173" on="1"/>
        <pt x="413" y="668" on="1"/>
        <pt x="728" y="668" on="1"/>
        <pt x="768" y="797" on="1"/>
        <pt x="840" y="808" on="1"/>
        <pt x="807" y="419" on="1"/>
        <pt x="741" y="408" on="1"/>
        <pt x="716" y="594" on="1"/>
        <pt x="413" y="594" on="1"/>
        <pt x="413" y="75" on="1"/>
        <pt x="942" y="75" on="1"/>
        <pt x="1028" y="324" on="1"/>
        <pt x="1090" y="313" on="1"/>
        <pt x="1060" y="0" on="1"/>
        <pt x="90" y="0" on="1"/>
        <pt x="96" y="58" on="1"/>
        <pt x="265" y="96" on="1"/>
        <pt x="265" y="1151" on="1"/>
      </contour>
      <contour>
        <pt x="575" y="1373" on="0"/>
        <pt x="530" y="1432" on="0"/>
        <pt x="530" y="1525" on="0"/>
        <pt x="576" y="1581" on="0"/>
        <pt x="652" y="1581" on="0"/>
        <pt x="700" y="1525" on="0"/>
        <pt x="700" y="1431" on="0"/>
        <pt x="654" y="1373" on="0"/>
      </contour>
    </TTGlyph>
    <TTGlyph name="Egrave" xMin="84" yMin="0" xMax="1090" yMax="1738">
      <contour>
        <pt x="84" y="1185" on="1"/>
        <pt x="93" y="1244" on="1"/>
        <pt x="1044" y="1244" on="1"/>
        <pt x="1013" y="925" on="1"/>
        <pt x="946" y="934" on="1"/>
        <pt x="916" y="1173" on="1"/>
        <pt x="413" y="1173" on="1"/>
        <pt x="413" y="668" on="1"/>
        <pt x="728" y="668" on="1"/>
        <pt x="768" y="797" on="1"/>
        <pt x="840" y="808" on="1"/>
        <pt x="807" y="419" on="1"/>
        <pt x="741" y="408" on="1"/>
        <pt x="716" y="594" on="1"/>
        <pt x="413" y="594" on="1"/>
        <pt x="413" y="75" on="1"/>
        <pt x="942" y="75" on="1"/>
        <pt x="1028" y="324" on="1"/>
        <pt x="1090" y="313" on="1"/>
        <pt x="1060" y="0" on="1"/>
        <pt x="90" y="0" on="1"/>
        <pt x="96" y="58" on="1"/>
        <pt x="265" y="96" on="1"/>
        <pt x="265" y="1151" on="1"/>
      </contour>
      <contour>
        <pt x="423" y="1701" on="1"/>
        <pt x="527" y="1738" on="1"/>
        <pt x="660" y="1403" on="1"/>
        <pt x="609" y="1372" on="1"/>
      </contour>
    </TTGlyph>
    <TTGlyph name="Emacron" xMin="84" yMin="0" xMax="1090" yMax="1445">
      <contour>
        <pt x="84" y="1185" on="1"/>
        <pt x="93" y="1244" on="1"/>
        <pt x="1044" y="1244" on="1"/>
        <pt x="1013" y="925" on="1"/>
        <pt x="946" y="934" on="1"/>
        <pt x="916" y="1173" on="1"/>
        <pt x="413" y="1173" on="1"/>
        <pt x="413" y="668" on="1"/>
        <pt x="728" y="668" on="1"/>
        <pt x="768" y="797" on="1"/>
        <pt x="840" y="808" on="1"/>
        <pt x="807" y="419" on="1"/>
        <pt x="741" y="408" on="1"/>
        <pt x="716" y="594" on="1"/>
        <pt x="413" y="594" on="1"/>
        <pt x="413" y="75" on="1"/>
        <pt x="942" y="75" on="1"/>
        <pt x="1028" y="324" on="1"/>
        <pt x="1090" y="313" on="1"/>
        <pt x="1060" y="0" on="1"/>
        <pt x="90" y="0" on="1"/>
        <pt x="96" y="58" on="1"/>
        <pt x="265" y="96" on="1"/>
        <pt x="265" y="1151" on="1"/>
      </contour>
      <contour>
        <pt x="391" y="1369" on="1"/>
        <pt x="402" y="1445" on="1"/>
        <pt x="843" y="1445" on="1"/>
        <pt x="833" y="1369" on="1"/>
      </contour>
    </TTGlyph>
    <TTGlyph name="Eng" xMin="63" yMin="-383" xMax="1341" yMax="1244">
      <contour>
        <pt x="63" y="1188" on="1"/>
        <pt x="73" y="1244" on="1"/>
        <pt x="400" y="1244" on="1"/>
        <pt x="1067" y="225" on="1"/>
        <pt x="1067" y="1154" on="1"/>
        <pt x="882" y="1187" on="1"/>
        <pt x="891" y="1244" on="1"/>
        <pt x="1341" y="1244" on="1"/>
        <pt x="1330" y="1187" on="1"/>
        <pt x="1164" y="1156" on="1"/>
        <pt x="1164" y="151" on="1"/>
        <pt x="1164" y="-192" on="0"/>
        <pt x="905" y="-356" on="1"/>
        <pt x="860" y="-383" on="1"/>
        <pt x="819" y="-315" on="1"/>
        <pt x="897" y="-258" on="0"/>
        <pt x="1003" y="-95" on="0"/>
        <pt x="1022" y="33" on="1"/>
        <pt x="347" y="1047" on="1"/>
        <pt x="347" y="90" on="1"/>
        <pt x="531" y="63" on="1"/>
        <pt x="521" y="0" on="1"/>
        <pt x="73" y="0" on="1"/>
        <pt x="79" y="58" on="1"/>
        <pt x="246" y="96" on="1"/>
        <pt x="246" y="1147" on="1"/>
      </contour>
    </TTGlyph>
    <TTGlyph name="Eogonek" xMin="84" yMin="-377" xMax="1120" yMax="1244">
      <contour>
        <pt x="84" y="1185" on="1"/>
        <pt x="93" y="1244" on="1"/>
        <pt x="1044" y="1244" on="1"/>
        <pt x="1013" y="925" on="1"/>
        <pt x="946" y="934" on="1"/>
        <pt x="916" y="1173" on="1"/>
        <pt x="413" y="1173" on="1"/>
        <pt x="413" y="668" on="1"/>
        <pt x="728" y="668" on="1"/>
        <pt x="768" y="797" on="1"/>
        <pt x="840" y="808" on="1"/>
        <pt x="807" y="419" on="1"/>
        <pt x="741" y="408" on="1"/>
        <pt x="716" y="594" on="1"/>
        <pt x="413" y="594" on="1"/>
        <pt x="413" y="75" on="1"/>
        <pt x="942" y="75" on="1"/>
        <pt x="1028" y="324" on="1"/>
        <pt x="1090" y="313" on="1"/>
        <pt x="1060" y="0" on="1"/>
        <pt x="1048" y="0" on="1"/>
        <pt x="987" y="-89" on="0"/>
        <pt x="987" y="-147" on="1"/>
        <pt x="987" y="-256" on="0"/>
        <pt x="1120" y="-334" on="1"/>
        <pt x="1086" y="-377" on="1"/>
        <pt x="982" y="-366" on="0"/>
        <pt x="864" y="-266" on="0"/>
        <pt x="864" y="-156" on="0"/>
        <pt x="913" y="-66" on="0"/>
        <pt x="984" y="0" on="1"/>
        <pt x="90" y="0" on="1"/>
        <pt x="96" y="58" on="1"/>
        <pt x="265" y="96" on="1"/>
        <pt x="265" y="1151" on="1"/>
      </contour>
    </TTGlyph>
    <TTGlyph name="Eth" xMin="81" yMin="0" xMax="1297" yMax="1260">
      <contour>
        <pt x="409" y="79" on="1"/>
        <pt x="605" y="79" on="1"/>
        <pt x="771" y="79" on="0"/>
        <pt x="892" y="148" on="1"/>
        <pt x="1132" y="285" on="0"/>
        <pt x="1132" y="599" on="1"/>
        <pt x="1132" y="855" on="0"/>
        <pt x="838" y="1182" on="0"/>
        <pt x="557" y="1182" on="1"/>
        <pt x="458" y="1182" on="0"/>
        <pt x="409" y="1176" on="1"/>
        <pt x="409" y="672" on="1"/>
        <pt x="681" y="692" on="1"/>
        <pt x="671" y="616" on="1"/>
        <pt x="409" y="597" on="1"/>
      </contour>
      <contour>
        <pt x="82" y="574" on="1"/>
        <pt x="92" y="650" on="1"/>
        <pt x="263" y="662" on="1"/>
        <pt x="263" y="1129" on="1"/>
        <pt x="90" y="1155" on="1"/>
        <pt x="100" y="1211" on="1"/>
        <pt x="411" y="1260" on="0"/>
        <pt x="749" y="1260" on="0"/>
        <pt x="872" y="1226" on="1"/>
        <pt x="1096" y="1165" on="0"/>
        <pt x="1297" y="857" on="0"/>
        <pt x="1297" y="444" on="0"/>
        <pt x="1052" y="105" on="0"/>
        <pt x="823" y="36" on="1"/>
        <pt x="700" y="0" on="0"/>
        <pt x="553" y="0" on="1"/>
        <pt x="81" y="0" on="1"/>
        <pt x="92" y="58" on="1"/>
        <pt x="263" y="101" on="1"/>
        <pt x="263" y="587" on="1"/>
      </contour>
    </TTGlyph>
    <TTGlyph name="Euro" xMin="-26" yMin="-25" xMax="1051" yMax="1270">
      <contour>
        <pt x="142" y="576" on="1"/>
        <pt x="141" y="610" on="1"/>
        <pt x="141" y="630" on="0"/>
        <pt x="143" y="672" on="1"/>
        <pt x="-17" y="672" on="1"/>
        <pt x="-12" y="754" on="1"/>
        <pt x="153" y="754" on="1"/>
        <pt x="189" y="968" on="0"/>
        <pt x="474" y="1270" on="0"/>
        <pt x="717" y="1270" on="1"/>
        <pt x="818" y="1270" on="0"/>
        <pt x="964" y="1225" on="0"/>
        <pt x="1035" y="1171" on="1"/>
        <pt x="1003" y="836" on="1"/>
        <pt x="938" y="846" on="1"/>
        <pt x="901" y="1086" on="1"/>
        <pt x="865" y="1139" on="0"/>
        <pt x="772" y="1190" on="0"/>
        <pt x="687" y="1190" on="1"/>
        <pt x="526" y="1190" on="0"/>
        <pt x="334" y="958" on="0"/>
        <pt x="313" y="754" on="1"/>
        <pt x="852" y="754" on="1"/>
        <pt x="835" y="672" on="1"/>
        <pt x="308" y="672" on="1"/>
        <pt x="308" y="641" on="1"/>
        <pt x="308" y="618" on="0"/>
        <pt x="310" y="576" on="1"/>
        <pt x="805" y="576" on="1"/>
        <pt x="788" y="493" on="1"/>
        <pt x="318" y="493" on="1"/>
        <pt x="347" y="291" on="0"/>
        <pt x="554" y="63" on="0"/>
        <pt x="715" y="63" on="1"/>
        <pt x="767" y="63" on="0"/>
        <pt x="877" y="118" on="0"/>
        <pt x="917" y="173" on="1"/>
        <pt x="954" y="417" on="1"/>
        <pt x="1020" y="426" on="1"/>
        <pt x="1051" y="107" on="1"/>
        <pt x="956" y="36" on="0"/>
        <pt x="783" y="-25" on="0"/>
        <pt x="664" y="-25" on="1"/>
        <pt x="455" y="-25" on="0"/>
        <pt x="177" y="254" on="0"/>
        <pt x="148" y="493" on="1"/>
        <pt x="-26" y="493" on="1"/>
        <pt x="-20" y="576" on="1"/>
      </contour>
    </TTGlyph>
    <TTGlyph name="Euro.osf" xMin="9" yMin="-24" xMax="865" yMax="984">
      <contour>
        <pt x="317" y="350" on="1"/>
        <pt x="364" y="62" on="0"/>
        <pt x="598" y="62" on="1"/>
        <pt x="681" y="62" on="0"/>
        <pt x="735" y="132" on="1"/>
        <pt x="767" y="344" on="1"/>
        <pt x="834" y="353" on="1"/>
        <pt x="865" y="83" on="1"/>
        <pt x="792" y="24" on="0"/>
        <pt x="664" y="-24" on="0"/>
        <pt x="568" y="-24" on="1"/>
        <pt x="396" y="-24" on="0"/>
        <pt x="175" y="175" on="0"/>
        <pt x="148" y="350" on="1"/>
        <pt x="9" y="350" on="1"/>
        <pt x="18" y="432" on="1"/>
        <pt x="140" y="432" on="1"/>
        <pt x="140" y="458" on="1"/>
        <pt x="140" y="477" on="0"/>
        <pt x="142" y="513" on="1"/>
        <pt x="13" y="513" on="1"/>
        <pt x="19" y="595" on="1"/>
        <pt x="154" y="595" on="1"/>
        <pt x="190" y="766" on="0"/>
        <pt x="422" y="984" on="0"/>
        <pt x="735" y="984" on="0"/>
        <pt x="852" y="898" on="1"/>
        <pt x="822" y="606" on="1"/>
        <pt x="755" y="616" on="1"/>
        <pt x="719" y="830" on="1"/>
        <pt x="644" y="905" on="0"/>
        <pt x="446" y="905" on="0"/>
        <pt x="327" y="745" on="0"/>
        <pt x="312" y="595" on="1"/>
        <pt x="647" y="595" on="1"/>
        <pt x="630" y="513" on="1"/>
        <pt x="307" y="513" on="1"/>
        <pt x="307" y="490" on="1"/>
        <pt x="307" y="470" on="0"/>
        <pt x="309" y="432" on="1"/>
        <pt x="611" y="432" on="1"/>
        <pt x="594" y="350" on="1"/>
      </contour>
    </TTGlyph>
    <TTGlyph name="F" xMin="81" yMin="0" xMax="1039" yMax="1244">
      <contour>
        <pt x="81" y="1185" on="1"/>
        <pt x="89" y="1244" on="1"/>
        <pt x="1039" y="1244" on="1"/>
        <pt x="1002" y="923" on="1"/>
        <pt x="934" y="933" on="1"/>
        <pt x="906" y="1173" on="1"/>
        <pt x="409" y="1173" on="1"/>
        <pt x="409" y="652" on="1"/>
        <pt x="720" y="652" on="1"/>
        <pt x="761" y="782" on="1"/>
        <pt x="832" y="792" on="1"/>
        <pt x="803" y="402" on="1"/>
        <pt x="734" y="391" on="1"/>
        <pt x="710" y="579" on="1"/>
        <pt x="409" y="579" on="1"/>
        <pt x="408" y="96" on="1"/>
        <pt x="649" y="68" on="1"/>
        <pt x="637" y="0" on="1"/>
        <pt x="86" y="0" on="1"/>
        <pt x="91" y="58" on="1"/>
        <pt x="260" y="96" on="1"/>
        <pt x="260" y="1151" on="1"/>
      </contour>
    </TTGlyph>
    <TTGlyph name="G" xMin="108" yMin="-26" xMax="1274" yMax="1262">
      <contour>
        <pt x="735" y="1262" on="1"/>
        <pt x="991" y="1262" on="0"/>
        <pt x="1138" y="1162" on="1"/>
        <pt x="1110" y="841" on="1"/>
        <pt x="1044" y="852" on="1"/>
        <pt x="1011" y="1066" on="1"/>
        <pt x="971" y="1112" on="0"/>
        <pt x="802" y="1182" on="0"/>
        <pt x="693" y="1182" on="1"/>
        <pt x="508" y="1182" on="0"/>
        <pt x="272" y="892" on="0"/>
        <pt x="272" y="640" on="1"/>
        <pt x="272" y="454" on="0"/>
        <pt x="348" y="310" on="1"/>
        <pt x="480" y="61" on="0"/>
        <pt x="768" y="61" on="1"/>
        <pt x="898" y="61" on="0"/>
        <pt x="984" y="119" on="1"/>
        <pt x="985" y="463" on="1"/>
        <pt x="746" y="495" on="1"/>
        <pt x="756" y="556" on="1"/>
        <pt x="1274" y="556" on="1"/>
        <pt x="1264" y="499" on="1"/>
        <pt x="1135" y="467" on="1"/>
        <pt x="1135" y="79" on="1"/>
        <pt x="1038" y="21" on="0"/>
        <pt x="814" y="-26" on="0"/>
        <pt x="659" y="-26" on="1"/>
        <pt x="407" y="-26" on="0"/>
        <pt x="108" y="316" on="0"/>
        <pt x="108" y="591" on="1"/>
        <pt x="108" y="773" on="0"/>
        <pt x="271" y="1080" on="0"/>
        <pt x="560" y="1262" on="0"/>
      </contour>
    </TTGlyph>
    <TTGlyph name="Gbreve" xMin="108" yMin="-26" xMax="1274" yMax="1581">
      <contour>
        <pt x="735" y="1262" on="1"/>
        <pt x="991" y="1262" on="0"/>
        <pt x="1138" y="1162" on="1"/>
        <pt x="1110" y="841" on="1"/>
        <pt x="1044" y="852" on="1"/>
        <pt x="1011" y="1066" on="1"/>
        <pt x="971" y="1112" on="0"/>
        <pt x="802" y="1182" on="0"/>
        <pt x="693" y="1182" on="1"/>
        <pt x="508" y="1182" on="0"/>
        <pt x="272" y="892" on="0"/>
        <pt x="272" y="640" on="1"/>
        <pt x="272" y="454" on="0"/>
        <pt x="348" y="310" on="1"/>
        <pt x="480" y="61" on="0"/>
        <pt x="768" y="61" on="1"/>
        <pt x="898" y="61" on="0"/>
        <pt x="984" y="119" on="1"/>
        <pt x="985" y="463" on="1"/>
        <pt x="746" y="495" on="1"/>
        <pt x="756" y="556" on="1"/>
        <pt x="1274" y="556" on="1"/>
        <pt x="1264" y="499" on="1"/>
        <pt x="1135" y="467" on="1"/>
        <pt x="1135" y="79" on="1"/>
        <pt x="1038" y="21" on="0"/>
        <pt x="814" y="-26" on="0"/>
        <pt x="659" y="-26" on="1"/>
        <pt x="407" y="-26" on="0"/>
        <pt x="108" y="316" on="0"/>
        <pt x="108" y="591" on="1"/>
        <pt x="108" y="773" on="0"/>
        <pt x="271" y="1080" on="0"/>
        <pt x="560" y="1262" on="0"/>
      </contour>
      <contour>
        <pt x="543" y="1551" on="1"/>
        <pt x="573" y="1579" on="1"/>
        <pt x="596" y="1534" on="0"/>
        <pt x="678" y="1465" on="0"/>
        <pt x="733" y="1465" on="1"/>
        <pt x="827" y="1465" on="0"/>
        <pt x="892" y="1581" on="1"/>
        <pt x="926" y="1556" on="1"/>
        <pt x="863" y="1372" on="0"/>
        <pt x="588" y="1372" on="0"/>
      </contour>
    </TTGlyph>
    <TTGlyph name="Gcommaaccent" xMin="108" yMin="-385" xMax="1274" yMax="1262">
      <contour>
        <pt x="735" y="1262" on="1"/>
        <pt x="991" y="1262" on="0"/>
        <pt x="1138" y="1162" on="1"/>
        <pt x="1110" y="841" on="1"/>
        <pt x="1044" y="852" on="1"/>
        <pt x="1011" y="1066" on="1"/>
        <pt x="971" y="1112" on="0"/>
        <pt x="802" y="1182" on="0"/>
        <pt x="693" y="1182" on="1"/>
        <pt x="508" y="1182" on="0"/>
        <pt x="272" y="892" on="0"/>
        <pt x="272" y="640" on="1"/>
        <pt x="272" y="454" on="0"/>
        <pt x="348" y="310" on="1"/>
        <pt x="480" y="61" on="0"/>
        <pt x="768" y="61" on="1"/>
        <pt x="898" y="61" on="0"/>
        <pt x="984" y="119" on="1"/>
        <pt x="985" y="463" on="1"/>
        <pt x="746" y="495" on="1"/>
        <pt x="756" y="556" on="1"/>
        <pt x="1274" y="556" on="1"/>
        <pt x="1264" y="499" on="1"/>
        <pt x="1135" y="467" on="1"/>
        <pt x="1135" y="79" on="1"/>
        <pt x="1038" y="21" on="0"/>
        <pt x="814" y="-26" on="0"/>
        <pt x="659" y="-26" on="1"/>
        <pt x="407" y="-26" on="0"/>
        <pt x="108" y="316" on="0"/>
        <pt x="108" y="591" on="1"/>
        <pt x="108" y="773" on="0"/>
        <pt x="271" y="1080" on="0"/>
        <pt x="560" y="1262" on="0"/>
      </contour>
      <contour>
        <pt x="598" y="-340" on="1"/>
        <pt x="708" y="-314" on="0"/>
        <pt x="708" y="-239" on="1"/>
        <pt x="708" y="-205" on="0"/>
        <pt x="648" y="-158" on="0"/>
        <pt x="615" y="-155" on="1"/>
        <pt x="618" y="-126" on="0"/>
        <pt x="666" y="-80" on="0"/>
        <pt x="740" y="-80" on="0"/>
        <pt x="801" y="-141" on="0"/>
        <pt x="801" y="-182" on="1"/>
        <pt x="801" y="-249" on="0"/>
        <pt x="719" y="-363" on="0"/>
        <pt x="615" y="-385" on="1"/>
      </contour>
    </TTGlyph>
    <TTGlyph name="Gdotaccent" xMin="108" yMin="-26" xMax="1274" yMax="1581">
      <contour>
        <pt x="735" y="1262" on="1"/>
        <pt x="991" y="1262" on="0"/>
        <pt x="1138" y="1162" on="1"/>
        <pt x="1110" y="841" on="1"/>
        <pt x="1044" y="852" on="1"/>
        <pt x="1011" y="1066" on="1"/>
        <pt x="971" y="1112" on="0"/>
        <pt x="802" y="1182" on="0"/>
        <pt x="693" y="1182" on="1"/>
        <pt x="508" y="1182" on="0"/>
        <pt x="272" y="892" on="0"/>
        <pt x="272" y="640" on="1"/>
        <pt x="272" y="454" on="0"/>
        <pt x="348" y="310" on="1"/>
        <pt x="480" y="61" on="0"/>
        <pt x="768" y="61" on="1"/>
        <pt x="898" y="61" on="0"/>
        <pt x="984" y="119" on="1"/>
        <pt x="985" y="463" on="1"/>
        <pt x="746" y="495" on="1"/>
        <pt x="756" y="556" on="1"/>
        <pt x="1274" y="556" on="1"/>
        <pt x="1264" y="499" on="1"/>
        <pt x="1135" y="467" on="1"/>
        <pt x="1135" y="79" on="1"/>
        <pt x="1038" y="21" on="0"/>
        <pt x="814" y="-26" on="0"/>
        <pt x="659" y="-26" on="1"/>
        <pt x="407" y="-26" on="0"/>
        <pt x="108" y="316" on="0"/>
        <pt x="108" y="591" on="1"/>
        <pt x="108" y="773" on="0"/>
        <pt x="271" y="1080" on="0"/>
        <pt x="560" y="1262" on="0"/>
      </contour>
      <contour>
        <pt x="673" y="1373" on="0"/>
        <pt x="628" y="1432" on="0"/>
        <pt x="628" y="1525" on="0"/>
        <pt x="674" y="1581" on="0"/>
        <pt x="750" y="1581" on="0"/>
        <pt x="798" y="1525" on="0"/>
        <pt x="798" y="1431" on="0"/>
        <pt x="752" y="1373" on="0"/>
      </contour>
    </TTGlyph>
    <TTGlyph name="H" xMin="83" yMin="0" xMax="1419" yMax="1244">
      <contour>
        <pt x="83" y="1187" on="1"/>
        <pt x="90" y="1244" on="1"/>
        <pt x="591" y="1244" on="1"/>
        <pt x="583" y="1187" on="1"/>
        <pt x="414" y="1156" on="1"/>
        <pt x="414" y="672" on="1"/>
        <pt x="1087" y="672" on="1"/>
        <pt x="1087" y="1154" on="1"/>
        <pt x="904" y="1187" on="1"/>
        <pt x="913" y="1244" on="1"/>
        <pt x="1413" y="1244" on="1"/>
        <pt x="1404" y="1187" on="1"/>
        <pt x="1237" y="1156" on="1"/>
        <pt x="1237" y="90" on="1"/>
        <pt x="1419" y="63" on="1"/>
        <pt x="1411" y="0" on="1"/>
        <pt x="912" y="0" on="1"/>
        <pt x="922" y="58" on="1"/>
        <pt x="1087" y="96" on="1"/>
        <pt x="1087" y="592" on="1"/>
        <pt x="414" y="591" on="1"/>
        <pt x="414" y="90" on="1"/>
        <pt x="600" y="63" on="1"/>
        <pt x="588" y="0" on="1"/>
        <pt x="91" y="0" on="1"/>
        <pt x="97" y="58" on="1"/>
        <pt x="265" y="96" on="1"/>
        <pt x="265" y="1154" on="1"/>
      </contour>
    </TTGlyph>
    <TTGlyph name="Hbar" xMin="97" yMin="0" xMax="1433" yMax="1244">
      <contour>
        <pt x="1101" y="920" on="1"/>
        <pt x="428" y="920" on="1"/>
        <pt x="428" y="672" on="1"/>
        <pt x="1101" y="672" on="1"/>
      </contour>
      <contour>
        <pt x="123" y="908" on="1"/>
        <pt x="132" y="1002" on="1"/>
        <pt x="279" y="1002" on="1"/>
        <pt x="279" y="1154" on="1"/>
        <pt x="97" y="1187" on="1"/>
        <pt x="104" y="1244" on="1"/>
        <pt x="605" y="1244" on="1"/>
        <pt x="597" y="1187" on="1"/>
        <pt x="428" y="1156" on="1"/>
        <pt x="428" y="990" on="1"/>
        <pt x="1101" y="990" on="1"/>
        <pt x="1101" y="1154" on="1"/>
        <pt x="918" y="1187" on="1"/>
        <pt x="927" y="1244" on="1"/>
        <pt x="1427" y="1244" on="1"/>
        <pt x="1418" y="1187" on="1"/>
        <pt x="1251" y="1156" on="1"/>
        <pt x="1251" y="1002" on="1"/>
        <pt x="1377" y="1002" on="1"/>
        <pt x="1371" y="908" on="1"/>
        <pt x="1251" y="908" on="1"/>
        <pt x="1251" y="90" on="1"/>
        <pt x="1433" y="63" on="1"/>
        <pt x="1425" y="0" on="1"/>
        <pt x="926" y="0" on="1"/>
        <pt x="936" y="58" on="1"/>
        <pt x="1101" y="96" on="1"/>
        <pt x="1101" y="592" on="1"/>
        <pt x="428" y="591" on="1"/>
        <pt x="428" y="90" on="1"/>
        <pt x="614" y="63" on="1"/>
        <pt x="602" y="0" on="1"/>
        <pt x="105" y="0" on="1"/>
        <pt x="111" y="58" on="1"/>
        <pt x="279" y="96" on="1"/>
        <pt x="279" y="908" on="1"/>
      </contour>
    </TTGlyph>
    <TTGlyph name="I" xMin="86" yMin="0" xMax="601" yMax="1244">
      <contour>
        <pt x="86" y="1187" on="1"/>
        <pt x="94" y="1244" on="1"/>
        <pt x="595" y="1244" on="1"/>
        <pt x="586" y="1187" on="1"/>
        <pt x="414" y="1156" on="1"/>
        <pt x="414" y="90" on="1"/>
        <pt x="601" y="63" on="1"/>
        <pt x="591" y="0" on="1"/>
        <pt x="94" y="0" on="1"/>
        <pt x="101" y="58" on="1"/>
        <pt x="263" y="96" on="1"/>
        <pt x="263" y="1154" on="1"/>
      </contour>
    </TTGlyph>
    <TTGlyph name="Iacute" xMin="86" yMin="0" xMax="601" yMax="1732">
      <contour>
        <pt x="86" y="1187" on="1"/>
        <pt x="94" y="1244" on="1"/>
        <pt x="595" y="1244" on="1"/>
        <pt x="586" y="1187" on="1"/>
        <pt x="414" y="1156" on="1"/>
        <pt x="414" y="90" on="1"/>
        <pt x="601" y="63" on="1"/>
        <pt x="591" y="0" on="1"/>
        <pt x="94" y="0" on="1"/>
        <pt x="101" y="58" on="1"/>
        <pt x="263" y="96" on="1"/>
        <pt x="263" y="1154" on="1"/>
      </contour>
      <contour>
        <pt x="295" y="1402" on="1"/>
        <pt x="423" y="1732" on="1"/>
        <pt x="526" y="1693" on="1"/>
        <pt x="344" y="1372" on="1"/>
      </contour>
    </TTGlyph>
    <TTGlyph name="Icircumflex" xMin="86" yMin="0" xMax="601" yMax="1596">
      <contour>
        <pt x="86" y="1187" on="1"/>
        <pt x="94" y="1244" on="1"/>
        <pt x="595" y="1244" on="1"/>
        <pt x="586" y="1187" on="1"/>
        <pt x="414" y="1156" on="1"/>
        <pt x="414" y="90" on="1"/>
        <pt x="601" y="63" on="1"/>
        <pt x="591" y="0" on="1"/>
        <pt x="94" y="0" on="1"/>
        <pt x="101" y="58" on="1"/>
        <pt x="263" y="96" on="1"/>
        <pt x="263" y="1154" on="1"/>
      </contour>
      <contour>
        <pt x="143" y="1402" on="1"/>
        <pt x="311" y="1582" on="1"/>
        <pt x="366" y="1596" on="1"/>
        <pt x="544" y="1410" on="1"/>
        <pt x="504" y="1373" on="1"/>
        <pt x="331" y="1495" on="1"/>
        <pt x="322" y="1495" on="1"/>
        <pt x="173" y="1372" on="1"/>
      </contour>
    </TTGlyph>
    <TTGlyph name="Idieresis" xMin="86" yMin="0" xMax="601" yMax="1532">
      <contour>
        <pt x="86" y="1187" on="1"/>
        <pt x="94" y="1244" on="1"/>
        <pt x="595" y="1244" on="1"/>
        <pt x="586" y="1187" on="1"/>
        <pt x="414" y="1156" on="1"/>
        <pt x="414" y="90" on="1"/>
        <pt x="601" y="63" on="1"/>
        <pt x="591" y="0" on="1"/>
        <pt x="94" y="0" on="1"/>
        <pt x="101" y="58" on="1"/>
        <pt x="263" y="96" on="1"/>
        <pt x="263" y="1154" on="1"/>
      </contour>
      <contour>
        <pt x="444" y="1373" on="0"/>
        <pt x="407" y="1418" on="0"/>
        <pt x="407" y="1491" on="0"/>
        <pt x="445" y="1532" on="0"/>
        <pt x="508" y="1532" on="0"/>
        <pt x="549" y="1491" on="0"/>
        <pt x="549" y="1417" on="0"/>
        <pt x="509" y="1373" on="0"/>
      </contour>
      <contour>
        <pt x="177" y="1373" on="0"/>
        <pt x="139" y="1418" on="0"/>
        <pt x="139" y="1491" on="0"/>
        <pt x="177" y="1532" on="0"/>
        <pt x="240" y="1532" on="0"/>
        <pt x="280" y="1491" on="0"/>
        <pt x="280" y="1417" on="0"/>
        <pt x="241" y="1373" on="0"/>
      </contour>
    </TTGlyph>
    <TTGlyph name="Idotaccent" xMin="86" yMin="0" xMax="601" yMax="1581">
      <contour>
        <pt x="86" y="1187" on="1"/>
        <pt x="94" y="1244" on="1"/>
        <pt x="595" y="1244" on="1"/>
        <pt x="586" y="1187" on="1"/>
        <pt x="414" y="1156" on="1"/>
        <pt x="414" y="90" on="1"/>
        <pt x="601" y="63" on="1"/>
        <pt x="591" y="0" on="1"/>
        <pt x="94" y="0" on="1"/>
        <pt x="101" y="58" on="1"/>
        <pt x="263" y="96" on="1"/>
        <pt x="263" y="1154" on="1"/>
      </contour>
      <contour>
        <pt x="300" y="1373" on="0"/>
        <pt x="255" y="1432" on="0"/>
        <pt x="255" y="1525" on="0"/>
        <pt x="301" y="1581" on="0"/>
        <pt x="377" y="1581" on="0"/>
        <pt x="425" y="1525" on="0"/>
        <pt x="425" y="1431" on="0"/>
        <pt x="379" y="1373" on="0"/>
      </contour>
    </TTGlyph>
    <TTGlyph name="Igrave" xMin="86" yMin="0" xMax="601" yMax="1738">
      <contour>
        <pt x="86" y="1187" on="1"/>
        <pt x="94" y="1244" on="1"/>
        <pt x="595" y="1244" on="1"/>
        <pt x="586" y="1187" on="1"/>
        <pt x="414" y="1156" on="1"/>
        <pt x="414" y="90" on="1"/>
        <pt x="601" y="63" on="1"/>
        <pt x="591" y="0" on="1"/>
        <pt x="94" y="0" on="1"/>
        <pt x="101" y="58" on="1"/>
        <pt x="263" y="96" on="1"/>
        <pt x="263" y="1154" on="1"/>
      </contour>
      <contour>
        <pt x="159" y="1701" on="1"/>
        <pt x="263" y="1738" on="1"/>
        <pt x="396" y="1403" on="1"/>
        <pt x="345" y="1372" on="1"/>
      </contour>
    </TTGlyph>
    <TTGlyph name="Imacron" xMin="86" yMin="0" xMax="601" yMax="1449">
      <contour>
        <pt x="86" y="1187" on="1"/>
        <pt x="94" y="1244" on="1"/>
        <pt x="595" y="1244" on="1"/>
        <pt x="586" y="1187" on="1"/>
        <pt x="414" y="1156" on="1"/>
        <pt x="414" y="90" on="1"/>
        <pt x="601" y="63" on="1"/>
        <pt x="591" y="0" on="1"/>
        <pt x="94" y="0" on="1"/>
        <pt x="101" y="58" on="1"/>
        <pt x="263" y="96" on="1"/>
        <pt x="263" y="1154" on="1"/>
      </contour>
      <contour>
        <pt x="118" y="1373" on="1"/>
        <pt x="129" y="1449" on="1"/>
        <pt x="570" y="1449" on="1"/>
        <pt x="560" y="1373" on="1"/>
      </contour>
    </TTGlyph>
    <TTGlyph name="Iogonek" xMin="86" yMin="-377" xMax="638" yMax="1244">
      <contour>
        <pt x="86" y="1187" on="1"/>
        <pt x="94" y="1244" on="1"/>
        <pt x="595" y="1244" on="1"/>
        <pt x="586" y="1187" on="1"/>
        <pt x="414" y="1156" on="1"/>
        <pt x="414" y="90" on="1"/>
        <pt x="601" y="63" on="1"/>
        <pt x="591" y="0" on="1"/>
        <pt x="566" y="0" on="1"/>
        <pt x="505" y="-89" on="0"/>
        <pt x="505" y="-147" on="1"/>
        <pt x="505" y="-256" on="0"/>
        <pt x="638" y="-334" on="1"/>
        <pt x="604" y="-377" on="1"/>
        <pt x="500" y="-366" on="0"/>
        <pt x="382" y="-266" on="0"/>
        <pt x="382" y="-156" on="0"/>
        <pt x="431" y="-66" on="0"/>
        <pt x="502" y="0" on="1"/>
        <pt x="94" y="0" on="1"/>
        <pt x="101" y="58" on="1"/>
        <pt x="263" y="96" on="1"/>
        <pt x="263" y="1154" on="1"/>
      </contour>
    </TTGlyph>
    <TTGlyph name="J" xMin="19" yMin="-325" xMax="593" yMax="1244">
      <contour>
        <pt x="19" y="-259" on="1"/>
        <pt x="144" y="-146" on="0"/>
        <pt x="264" y="74" on="0"/>
        <pt x="264" y="209" on="1"/>
        <pt x="264" y="1154" on="1"/>
        <pt x="82" y="1187" on="1"/>
        <pt x="90" y="1244" on="1"/>
        <pt x="593" y="1244" on="1"/>
        <pt x="584" y="1187" on="1"/>
        <pt x="414" y="1156" on="1"/>
        <pt x="412" y="372" on="1"/>
        <pt x="410" y="145" on="0"/>
        <pt x="326" y="-111" on="0"/>
        <pt x="198" y="-220" on="1"/>
        <pt x="144" y="-267" on="0"/>
        <pt x="57" y="-325" on="1"/>
      </contour>
    </TTGlyph>
    <TTGlyph name="K" xMin="83" yMin="-21" xMax="1237" yMax="1244">
      <contour>
        <pt x="454" y="623" on="1"/>
        <pt x="554" y="728" on="0"/>
        <pt x="604" y="790" on="1"/>
        <pt x="893" y="1151" on="1"/>
        <pt x="728" y="1187" on="1"/>
        <pt x="734" y="1244" on="1"/>
        <pt x="1184" y="1244" on="1"/>
        <pt x="1177" y="1187" on="1"/>
        <pt x="1012" y="1152" on="1"/>
        <pt x="601" y="649" on="1"/>
        <pt x="846" y="358" on="1"/>
        <pt x="974" y="206" on="0"/>
        <pt x="1106" y="88" on="0"/>
        <pt x="1191" y="68" on="1"/>
        <pt x="1237" y="58" on="1"/>
        <pt x="1226" y="2" on="1"/>
        <pt x="1160" y="-21" on="0"/>
        <pt x="1106" y="-21" on="1"/>
        <pt x="999" y="-21" on="0"/>
        <pt x="831" y="121" on="0"/>
        <pt x="733" y="246" on="1"/>
        <pt x="456" y="604" on="1"/>
      </contour>
      <contour>
        <pt x="83" y="1187" on="1"/>
        <pt x="93" y="1244" on="1"/>
        <pt x="593" y="1244" on="1"/>
        <pt x="586" y="1187" on="1"/>
        <pt x="415" y="1152" on="1"/>
        <pt x="415" y="95" on="1"/>
        <pt x="602" y="63" on="1"/>
        <pt x="592" y="0" on="1"/>
        <pt x="92" y="0" on="1"/>
        <pt x="100" y="58" on="1"/>
        <pt x="264" y="101" on="1"/>
        <pt x="264" y="1149" on="1"/>
      </contour>
    </TTGlyph>
    <TTGlyph name="Kcommaaccent" xMin="83" yMin="-385" xMax="1237" yMax="1244">
      <contour>
        <pt x="454" y="623" on="1"/>
        <pt x="554" y="728" on="0"/>
        <pt x="604" y="790" on="1"/>
        <pt x="893" y="1151" on="1"/>
        <pt x="728" y="1187" on="1"/>
        <pt x="734" y="1244" on="1"/>
        <pt x="1184" y="1244" on="1"/>
        <pt x="1177" y="1187" on="1"/>
        <pt x="1012" y="1152" on="1"/>
        <pt x="601" y="649" on="1"/>
        <pt x="846" y="358" on="1"/>
        <pt x="974" y="206" on="0"/>
        <pt x="1106" y="88" on="0"/>
        <pt x="1191" y="68" on="1"/>
        <pt x="1237" y="58" on="1"/>
        <pt x="1226" y="2" on="1"/>
        <pt x="1160" y="-21" on="0"/>
        <pt x="1106" y="-21" on="1"/>
        <pt x="999" y="-21" on="0"/>
        <pt x="831" y="121" on="0"/>
        <pt x="733" y="246" on="1"/>
        <pt x="456" y="604" on="1"/>
      </contour>
      <contour>
        <pt x="83" y="1187" on="1"/>
        <pt x="93" y="1244" on="1"/>
        <pt x="593" y="1244" on="1"/>
        <pt x="586" y="1187" on="1"/>
        <pt x="415" y="1152" on="1"/>
        <pt x="415" y="95" on="1"/>
        <pt x="602" y="63" on="1"/>
        <pt x="592" y="0" on="1"/>
        <pt x="92" y="0" on="1"/>
        <pt x="100" y="58" on="1"/>
        <pt x="264" y="101" on="1"/>
        <pt x="264" y="1149" on="1"/>
      </contour>
      <contour>
        <pt x="639" y="-340" on="1"/>
        <pt x="749" y="-314" on="0"/>
        <pt x="749" y="-239" on="1"/>
        <pt x="749" y="-205" on="0"/>
        <pt x="689" y="-158" on="0"/>
        <pt x="656" y="-155" on="1"/>
        <pt x="659" y="-126" on="0"/>
        <pt x="707" y="-80" on="0"/>
        <pt x="781" y="-80" on="0"/>
        <pt x="842" y="-141" on="0"/>
        <pt x="842" y="-182" on="1"/>
        <pt x="842" y="-249" on="0"/>
        <pt x="760" y="-363" on="0"/>
        <pt x="656" y="-385" on="1"/>
      </contour>
    </TTGlyph>
    <TTGlyph name="L" xMin="89" yMin="0" xMax="1074" yMax="1244">
      <contour>
        <pt x="94" y="0" on="1"/>
        <pt x="102" y="58" on="1"/>
        <pt x="269" y="96" on="1"/>
        <pt x="269" y="1148" on="1"/>
        <pt x="89" y="1186" on="1"/>
        <pt x="98" y="1244" on="1"/>
        <pt x="600" y="1244" on="1"/>
        <pt x="593" y="1186" on="1"/>
        <pt x="418" y="1152" on="1"/>
        <pt x="418" y="75" on="1"/>
        <pt x="905" y="75" on="1"/>
        <pt x="1010" y="341" on="1"/>
        <pt x="1074" y="331" on="1"/>
        <pt x="1040" y="0" on="1"/>
      </contour>
    </TTGlyph>
    <TTGlyph name="Lacute" xMin="89" yMin="0" xMax="1074" yMax="1732">
      <contour>
        <pt x="94" y="0" on="1"/>
        <pt x="102" y="58" on="1"/>
        <pt x="269" y="96" on="1"/>
        <pt x="269" y="1148" on="1"/>
        <pt x="89" y="1186" on="1"/>
        <pt x="98" y="1244" on="1"/>
        <pt x="600" y="1244" on="1"/>
        <pt x="593" y="1186" on="1"/>
        <pt x="418" y="1152" on="1"/>
        <pt x="418" y="75" on="1"/>
        <pt x="905" y="75" on="1"/>
        <pt x="1010" y="341" on="1"/>
        <pt x="1074" y="331" on="1"/>
        <pt x="1040" y="0" on="1"/>
      </contour>
      <contour>
        <pt x="294" y="1402" on="1"/>
        <pt x="422" y="1732" on="1"/>
        <pt x="525" y="1693" on="1"/>
        <pt x="343" y="1372" on="1"/>
      </contour>
    </TTGlyph>
    <TTGlyph name="Lcaron" xMin="89" yMin="0" xMax="1074" yMax="1273">
      <contour>
        <pt x="94" y="0" on="1"/>
        <pt x="102" y="58" on="1"/>
        <pt x="269" y="96" on="1"/>
        <pt x="269" y="1148" on="1"/>
        <pt x="89" y="1186" on="1"/>
        <pt x="98" y="1244" on="1"/>
        <pt x="600" y="1244" on="1"/>
        <pt x="593" y="1186" on="1"/>
        <pt x="418" y="1152" on="1"/>
        <pt x="418" y="75" on="1"/>
        <pt x="905" y="75" on="1"/>
        <pt x="1010" y="341" on="1"/>
        <pt x="1074" y="331" on="1"/>
        <pt x="1040" y="0" on="1"/>
      </contour>
      <contour>
        <pt x="655" y="815" on="1"/>
        <pt x="835" y="874" on="0"/>
        <pt x="835" y="1005" on="1"/>
        <pt x="835" y="1058" on="0"/>
        <pt x="771" y="1129" on="0"/>
        <pt x="723" y="1129" on="1"/>
        <pt x="708" y="1129" on="0"/>
        <pt x="694" y="1126" on="1"/>
        <pt x="686" y="1150" on="0"/>
        <pt x="686" y="1167" on="1"/>
        <pt x="686" y="1216" on="0"/>
        <pt x="751" y="1273" on="0"/>
        <pt x="856" y="1273" on="0"/>
        <pt x="953" y="1165" on="0"/>
        <pt x="953" y="982" on="0"/>
        <pt x="914" y="920" on="1"/>
        <pt x="840" y="805" on="0"/>
        <pt x="673" y="757" on="1"/>
      </contour>
    </TTGlyph>
    <TTGlyph name="Lcommaaccent" xMin="89" yMin="-388" xMax="1074" yMax="1244">
      <contour>
        <pt x="94" y="0" on="1"/>
        <pt x="102" y="58" on="1"/>
        <pt x="269" y="96" on="1"/>
        <pt x="269" y="1148" on="1"/>
        <pt x="89" y="1186" on="1"/>
        <pt x="98" y="1244" on="1"/>
        <pt x="600" y="1244" on="1"/>
        <pt x="593" y="1186" on="1"/>
        <pt x="418" y="1152" on="1"/>
        <pt x="418" y="75" on="1"/>
        <pt x="905" y="75" on="1"/>
        <pt x="1010" y="341" on="1"/>
        <pt x="1074" y="331" on="1"/>
        <pt x="1040" y="0" on="1"/>
      </contour>
      <contour>
        <pt x="466" y="-343" on="1"/>
        <pt x="576" y="-317" on="0"/>
        <pt x="576" y="-242" on="1"/>
        <pt x="576" y="-208" on="0"/>
        <pt x="516" y="-161" on="0"/>
        <pt x="483" y="-158" on="1"/>
        <pt x="486" y="-129" on="0"/>
        <pt x="534" y="-83" on="0"/>
        <pt x="608" y="-83" on="0"/>
        <pt x="669" y="-144" on="0"/>
        <pt x="669" y="-185" on="1"/>
        <pt x="669" y="-252" on="0"/>
        <pt x="587" y="-366" on="0"/>
        <pt x="483" y="-388" on="1"/>
      </contour>
    </TTGlyph>
    <TTGlyph name="Lslash" xMin="89" yMin="0" xMax="1074" yMax="1244">
      <contour>
        <pt x="99" y="491" on="1"/>
        <pt x="109" y="590" on="1"/>
        <pt x="269" y="683" on="1"/>
        <pt x="269" y="1148" on="1"/>
        <pt x="89" y="1186" on="1"/>
        <pt x="98" y="1244" on="1"/>
        <pt x="600" y="1244" on="1"/>
        <pt x="593" y="1186" on="1"/>
        <pt x="418" y="1152" on="1"/>
        <pt x="418" y="769" on="1"/>
        <pt x="600" y="875" on="1"/>
        <pt x="589" y="780" on="1"/>
        <pt x="418" y="679" on="1"/>
        <pt x="418" y="75" on="1"/>
        <pt x="905" y="75" on="1"/>
        <pt x="1010" y="341" on="1"/>
        <pt x="1074" y="331" on="1"/>
        <pt x="1040" y="0" on="1"/>
        <pt x="94" y="0" on="1"/>
        <pt x="102" y="58" on="1"/>
        <pt x="269" y="96" on="1"/>
        <pt x="269" y="591" on="1"/>
      </contour>
    </TTGlyph>
    <TTGlyph name="M" xMin="51" yMin="0" xMax="1669" yMax="1244">
      <contour>
        <pt x="51" y="0" on="1"/>
        <pt x="59" y="54" on="1"/>
        <pt x="227" y="92" on="1"/>
        <pt x="304" y="1151" on="1"/>
        <pt x="120" y="1188" on="1"/>
        <pt x="129" y="1244" on="1"/>
        <pt x="489" y="1244" on="1"/>
        <pt x="564" y="1053" on="1"/>
        <pt x="851" y="268" on="1"/>
        <pt x="1185" y="1092" on="1"/>
        <pt x="1252" y="1244" on="1"/>
        <pt x="1612" y="1244" on="1"/>
        <pt x="1605" y="1188" on="1"/>
        <pt x="1434" y="1154" on="1"/>
        <pt x="1488" y="86" on="1"/>
        <pt x="1669" y="60" on="1"/>
        <pt x="1663" y="0" on="1"/>
        <pt x="1164" y="0" on="1"/>
        <pt x="1172" y="54" on="1"/>
        <pt x="1341" y="92" on="1"/>
        <pt x="1284" y="1087" on="1"/>
        <pt x="861" y="55" on="1"/>
        <pt x="772" y="41" on="1"/>
        <pt x="396" y="1059" on="1"/>
        <pt x="325" y="86" on="1"/>
        <pt x="508" y="60" on="1"/>
        <pt x="498" y="0" on="1"/>
      </contour>
    </TTGlyph>
    <TTGlyph name="N" xMin="63" yMin="-24" xMax="1341" yMax="1244">
      <contour>
        <pt x="63" y="1188" on="1"/>
        <pt x="73" y="1244" on="1"/>
        <pt x="400" y="1244" on="1"/>
        <pt x="1067" y="225" on="1"/>
        <pt x="1067" y="1154" on="1"/>
        <pt x="882" y="1187" on="1"/>
        <pt x="891" y="1244" on="1"/>
        <pt x="1341" y="1244" on="1"/>
        <pt x="1330" y="1187" on="1"/>
        <pt x="1164" y="1156" on="1"/>
        <pt x="1164" y="-3" on="1"/>
        <pt x="1060" y="-24" on="1"/>
        <pt x="347" y="1047" on="1"/>
        <pt x="347" y="90" on="1"/>
        <pt x="531" y="63" on="1"/>
        <pt x="521" y="0" on="1"/>
        <pt x="73" y="0" on="1"/>
        <pt x="79" y="58" on="1"/>
        <pt x="246" y="96" on="1"/>
        <pt x="246" y="1147" on="1"/>
      </contour>
    </TTGlyph>
    <TTGlyph name="Nacute" xMin="63" yMin="-24" xMax="1341" yMax="1736">
      <contour>
        <pt x="63" y="1188" on="1"/>
        <pt x="73" y="1244" on="1"/>
        <pt x="400" y="1244" on="1"/>
        <pt x="1067" y="225" on="1"/>
        <pt x="1067" y="1154" on="1"/>
        <pt x="882" y="1187" on="1"/>
        <pt x="891" y="1244" on="1"/>
        <pt x="1341" y="1244" on="1"/>
        <pt x="1330" y="1187" on="1"/>
        <pt x="1164" y="1156" on="1"/>
        <pt x="1164" y="-3" on="1"/>
        <pt x="1060" y="-24" on="1"/>
        <pt x="347" y="1047" on="1"/>
        <pt x="347" y="90" on="1"/>
        <pt x="531" y="63" on="1"/>
        <pt x="521" y="0" on="1"/>
        <pt x="73" y="0" on="1"/>
        <pt x="79" y="58" on="1"/>
        <pt x="246" y="96" on="1"/>
        <pt x="246" y="1147" on="1"/>
      </contour>
      <contour>
        <pt x="593" y="1406" on="1"/>
        <pt x="721" y="1736" on="1"/>
        <pt x="824" y="1697" on="1"/>
        <pt x="642" y="1376" on="1"/>
      </contour>
    </TTGlyph>
    <TTGlyph name="Ncaron" xMin="63" yMin="-24" xMax="1341" yMax="1600">
      <contour>
        <pt x="63" y="1188" on="1"/>
        <pt x="73" y="1244" on="1"/>
        <pt x="400" y="1244" on="1"/>
        <pt x="1067" y="225" on="1"/>
        <pt x="1067" y="1154" on="1"/>
        <pt x="882" y="1187" on="1"/>
        <pt x="891" y="1244" on="1"/>
        <pt x="1341" y="1244" on="1"/>
        <pt x="1330" y="1187" on="1"/>
        <pt x="1164" y="1156" on="1"/>
        <pt x="1164" y="-3" on="1"/>
        <pt x="1060" y="-24" on="1"/>
        <pt x="347" y="1047" on="1"/>
        <pt x="347" y="90" on="1"/>
        <pt x="531" y="63" on="1"/>
        <pt x="521" y="0" on="1"/>
        <pt x="73" y="0" on="1"/>
        <pt x="79" y="58" on="1"/>
        <pt x="246" y="96" on="1"/>
        <pt x="246" y="1147" on="1"/>
      </contour>
      <contour>
        <pt x="479" y="1545" on="1"/>
        <pt x="547" y="1600" on="1"/>
        <pt x="704" y="1444" on="1"/>
        <pt x="714" y="1444" on="1"/>
        <pt x="846" y="1597" on="1"/>
        <pt x="887" y="1568" on="1"/>
        <pt x="714" y="1386" on="1"/>
        <pt x="658" y="1372" on="1"/>
      </contour>
    </TTGlyph>
    <TTGlyph name="Ncommaaccent" xMin="63" yMin="-387" xMax="1341" yMax="1244">
      <contour>
        <pt x="63" y="1188" on="1"/>
        <pt x="73" y="1244" on="1"/>
        <pt x="400" y="1244" on="1"/>
        <pt x="1067" y="225" on="1"/>
        <pt x="1067" y="1154" on="1"/>
        <pt x="882" y="1187" on="1"/>
        <pt x="891" y="1244" on="1"/>
        <pt x="1341" y="1244" on="1"/>
        <pt x="1330" y="1187" on="1"/>
        <pt x="1164" y="1156" on="1"/>
        <pt x="1164" y="-3" on="1"/>
        <pt x="1060" y="-24" on="1"/>
        <pt x="347" y="1047" on="1"/>
        <pt x="347" y="90" on="1"/>
        <pt x="531" y="63" on="1"/>
        <pt x="521" y="0" on="1"/>
        <pt x="73" y="0" on="1"/>
        <pt x="79" y="58" on="1"/>
        <pt x="246" y="96" on="1"/>
        <pt x="246" y="1147" on="1"/>
      </contour>
      <contour>
        <pt x="643" y="-342" on="1"/>
        <pt x="753" y="-316" on="0"/>
        <pt x="753" y="-241" on="1"/>
        <pt x="753" y="-207" on="0"/>
        <pt x="693" y="-160" on="0"/>
        <pt x="660" y="-157" on="1"/>
        <pt x="663" y="-128" on="0"/>
        <pt x="711" y="-82" on="0"/>
        <pt x="785" y="-82" on="0"/>
        <pt x="846" y="-143" on="0"/>
        <pt x="846" y="-184" on="1"/>
        <pt x="846" y="-251" on="0"/>
        <pt x="764" y="-365" on="0"/>
        <pt x="660" y="-387" on="1"/>
      </contour>
    </TTGlyph>
    <TTGlyph name="Ntilde" xMin="63" yMin="-24" xMax="1341" yMax="1533">
      <contour>
        <pt x="63" y="1188" on="1"/>
        <pt x="73" y="1244" on="1"/>
        <pt x="400" y="1244" on="1"/>
        <pt x="1067" y="225" on="1"/>
        <pt x="1067" y="1154" on="1"/>
        <pt x="882" y="1187" on="1"/>
        <pt x="891" y="1244" on="1"/>
        <pt x="1341" y="1244" on="1"/>
        <pt x="1330" y="1187" on="1"/>
        <pt x="1164" y="1156" on="1"/>
        <pt x="1164" y="-3" on="1"/>
        <pt x="1060" y="-24" on="1"/>
        <pt x="347" y="1047" on="1"/>
        <pt x="347" y="90" on="1"/>
        <pt x="531" y="63" on="1"/>
        <pt x="521" y="0" on="1"/>
        <pt x="73" y="0" on="1"/>
        <pt x="79" y="58" on="1"/>
        <pt x="246" y="96" on="1"/>
        <pt x="246" y="1147" on="1"/>
      </contour>
      <contour>
        <pt x="473" y="1382" on="1"/>
        <pt x="492" y="1448" on="0"/>
        <pt x="514" y="1475" on="1"/>
        <pt x="562" y="1534" on="0"/>
        <pt x="620" y="1521" on="1"/>
        <pt x="823" y="1479" on="1"/>
        <pt x="867" y="1467" on="0"/>
        <pt x="899" y="1533" on="1"/>
        <pt x="941" y="1531" on="1"/>
        <pt x="911" y="1427" on="0"/>
        <pt x="845" y="1398" on="1"/>
        <pt x="817" y="1385" on="0"/>
        <pt x="786" y="1392" on="1"/>
        <pt x="585" y="1434" on="1"/>
        <pt x="544" y="1444" on="0"/>
        <pt x="506" y="1372" on="1"/>
      </contour>
    </TTGlyph>
    <TTGlyph name="O" xMin="111" yMin="-27" xMax="1279" yMax="1274">
      <contour>
        <pt x="278" y="655" on="1"/>
        <pt x="278" y="551" on="0"/>
        <pt x="332" y="330" on="0"/>
        <pt x="435" y="158" on="0"/>
        <pt x="602" y="58" on="0"/>
        <pt x="794" y="58" on="0"/>
        <pt x="864" y="88" on="1"/>
        <pt x="990" y="144" on="0"/>
        <pt x="1113" y="415" on="0"/>
        <pt x="1113" y="744" on="0"/>
        <pt x="1019" y="1022" on="0"/>
        <pt x="819" y="1197" on="0"/>
        <pt x="681" y="1197" on="1"/>
        <pt x="435" y="1197" on="0"/>
        <pt x="334" y="974" on="1"/>
        <pt x="278" y="848" on="0"/>
      </contour>
      <contour>
        <pt x="246" y="148" on="0"/>
        <pt x="111" y="442" on="0"/>
        <pt x="111" y="812" on="0"/>
        <pt x="260" y="1108" on="0"/>
        <pt x="543" y="1274" on="0"/>
        <pt x="730" y="1274" on="1"/>
        <pt x="859" y="1274" on="0"/>
        <pt x="1069" y="1172" on="0"/>
        <pt x="1137" y="1084" on="1"/>
        <pt x="1279" y="899" on="0"/>
        <pt x="1279" y="624" on="1"/>
        <pt x="1279" y="418" on="0"/>
        <pt x="1175" y="248" on="1"/>
        <pt x="1007" y="-27" on="0"/>
        <pt x="640" y="-27" on="1"/>
        <pt x="499" y="-27" on="0"/>
      </contour>
    </TTGlyph>
    <TTGlyph name="OE" xMin="64" yMin="-27" xMax="1600" yMax="1274">
      <contour>
        <pt x="312" y="1060" on="0"/>
        <pt x="229" y="830" on="0"/>
        <pt x="229" y="582" on="0"/>
        <pt x="244" y="492" on="1"/>
        <pt x="276" y="306" on="0"/>
        <pt x="473" y="55" on="0"/>
        <pt x="633" y="55" on="1"/>
        <pt x="723" y="55" on="0"/>
        <pt x="795" y="93" on="1"/>
        <pt x="795" y="1139" on="1"/>
        <pt x="713" y="1197" on="0"/>
        <pt x="486" y="1197" on="0"/>
      </contour>
      <contour>
        <pt x="64" y="620" on="1"/>
        <pt x="64" y="916" on="0"/>
        <pt x="378" y="1274" on="0"/>
        <pt x="657" y="1274" on="1"/>
        <pt x="762" y="1274" on="0"/>
        <pt x="839" y="1245" on="1"/>
        <pt x="1553" y="1244" on="1"/>
        <pt x="1522" y="925" on="1"/>
        <pt x="1456" y="934" on="1"/>
        <pt x="1426" y="1173" on="1"/>
        <pt x="945" y="1173" on="1"/>
        <pt x="945" y="668" on="1"/>
        <pt x="1238" y="668" on="1"/>
        <pt x="1278" y="797" on="1"/>
        <pt x="1351" y="808" on="1"/>
        <pt x="1317" y="419" on="1"/>
        <pt x="1250" y="408" on="1"/>
        <pt x="1225" y="594" on="1"/>
        <pt x="945" y="594" on="1"/>
        <pt x="945" y="75" on="1"/>
        <pt x="1452" y="75" on="1"/>
        <pt x="1537" y="324" on="1"/>
        <pt x="1600" y="313" on="1"/>
        <pt x="1569" y="0" on="1"/>
        <pt x="792" y="0" on="1"/>
        <pt x="681" y="-27" on="0"/>
        <pt x="588" y="-27" on="1"/>
        <pt x="428" y="-27" on="0"/>
        <pt x="187" y="146" on="0"/>
        <pt x="64" y="438" on="0"/>
      </contour>
    </TTGlyph>
    <TTGlyph name="Oacute" xMin="111" yMin="-27" xMax="1279" yMax="1732">
      <contour>
        <pt x="278" y="655" on="1"/>
        <pt x="278" y="551" on="0"/>
        <pt x="332" y="330" on="0"/>
        <pt x="435" y="158" on="0"/>
        <pt x="602" y="58" on="0"/>
        <pt x="794" y="58" on="0"/>
        <pt x="864" y="88" on="1"/>
        <pt x="990" y="144" on="0"/>
        <pt x="1113" y="415" on="0"/>
        <pt x="1113" y="744" on="0"/>
        <pt x="1019" y="1022" on="0"/>
        <pt x="819" y="1197" on="0"/>
        <pt x="681" y="1197" on="1"/>
        <pt x="435" y="1197" on="0"/>
        <pt x="334" y="974" on="1"/>
        <pt x="278" y="848" on="0"/>
      </contour>
      <contour>
        <pt x="246" y="148" on="0"/>
        <pt x="111" y="442" on="0"/>
        <pt x="111" y="812" on="0"/>
        <pt x="260" y="1108" on="0"/>
        <pt x="543" y="1274" on="0"/>
        <pt x="730" y="1274" on="1"/>
        <pt x="859" y="1274" on="0"/>
        <pt x="1069" y="1172" on="0"/>
        <pt x="1137" y="1084" on="1"/>
        <pt x="1279" y="899" on="0"/>
        <pt x="1279" y="624" on="1"/>
        <pt x="1279" y="418" on="0"/>
        <pt x="1175" y="248" on="1"/>
        <pt x="1007" y="-27" on="0"/>
        <pt x="640" y="-27" on="1"/>
        <pt x="499" y="-27" on="0"/>
      </contour>
      <contour>
        <pt x="681" y="1402" on="1"/>
        <pt x="809" y="1732" on="1"/>
        <pt x="912" y="1693" on="1"/>
        <pt x="730" y="1372" on="1"/>
      </contour>
    </TTGlyph>
    <TTGlyph name="Ocircumflex" xMin="111" yMin="-27" xMax="1279" yMax="1596">
      <contour>
        <pt x="278" y="655" on="1"/>
        <pt x="278" y="551" on="0"/>
        <pt x="332" y="330" on="0"/>
        <pt x="435" y="158" on="0"/>
        <pt x="602" y="58" on="0"/>
        <pt x="794" y="58" on="0"/>
        <pt x="864" y="88" on="1"/>
        <pt x="990" y="144" on="0"/>
        <pt x="1113" y="415" on="0"/>
        <pt x="1113" y="744" on="0"/>
        <pt x="1019" y="1022" on="0"/>
        <pt x="819" y="1197" on="0"/>
        <pt x="681" y="1197" on="1"/>
        <pt x="435" y="1197" on="0"/>
        <pt x="334" y="974" on="1"/>
        <pt x="278" y="848" on="0"/>
      </contour>
      <contour>
        <pt x="246" y="148" on="0"/>
        <pt x="111" y="442" on="0"/>
        <pt x="111" y="812" on="0"/>
        <pt x="260" y="1108" on="0"/>
        <pt x="543" y="1274" on="0"/>
        <pt x="730" y="1274" on="1"/>
        <pt x="859" y="1274" on="0"/>
        <pt x="1069" y="1172" on="0"/>
        <pt x="1137" y="1084" on="1"/>
        <pt x="1279" y="899" on="0"/>
        <pt x="1279" y="624" on="1"/>
        <pt x="1279" y="418" on="0"/>
        <pt x="1175" y="248" on="1"/>
        <pt x="1007" y="-27" on="0"/>
        <pt x="640" y="-27" on="1"/>
        <pt x="499" y="-27" on="0"/>
      </contour>
      <contour>
        <pt x="529" y="1402" on="1"/>
        <pt x="697" y="1582" on="1"/>
        <pt x="752" y="1596" on="1"/>
        <pt x="930" y="1410" on="1"/>
        <pt x="890" y="1373" on="1"/>
        <pt x="717" y="1495" on="1"/>
        <pt x="708" y="1495" on="1"/>
        <pt x="559" y="1372" on="1"/>
      </contour>
    </TTGlyph>
    <TTGlyph name="Odieresis" xMin="111" yMin="-27" xMax="1279" yMax="1532">
      <contour>
        <pt x="278" y="655" on="1"/>
        <pt x="278" y="551" on="0"/>
        <pt x="332" y="330" on="0"/>
        <pt x="435" y="158" on="0"/>
        <pt x="602" y="58" on="0"/>
        <pt x="794" y="58" on="0"/>
        <pt x="864" y="88" on="1"/>
        <pt x="990" y="144" on="0"/>
        <pt x="1113" y="415" on="0"/>
        <pt x="1113" y="744" on="0"/>
        <pt x="1019" y="1022" on="0"/>
        <pt x="819" y="1197" on="0"/>
        <pt x="681" y="1197" on="1"/>
        <pt x="435" y="1197" on="0"/>
        <pt x="334" y="974" on="1"/>
        <pt x="278" y="848" on="0"/>
      </contour>
      <contour>
        <pt x="246" y="148" on="0"/>
        <pt x="111" y="442" on="0"/>
        <pt x="111" y="812" on="0"/>
        <pt x="260" y="1108" on="0"/>
        <pt x="543" y="1274" on="0"/>
        <pt x="730" y="1274" on="1"/>
        <pt x="859" y="1274" on="0"/>
        <pt x="1069" y="1172" on="0"/>
        <pt x="1137" y="1084" on="1"/>
        <pt x="1279" y="899" on="0"/>
        <pt x="1279" y="624" on="1"/>
        <pt x="1279" y="418" on="0"/>
        <pt x="1175" y="248" on="1"/>
        <pt x="1007" y="-27" on="0"/>
        <pt x="640" y="-27" on="1"/>
        <pt x="499" y="-27" on="0"/>
      </contour>
      <contour>
        <pt x="830" y="1373" on="0"/>
        <pt x="793" y="1418" on="0"/>
        <pt x="793" y="1491" on="0"/>
        <pt x="831" y="1532" on="0"/>
        <pt x="894" y="1532" on="0"/>
        <pt x="935" y="1491" on="0"/>
        <pt x="935" y="1417" on="0"/>
        <pt x="895" y="1373" on="0"/>
      </contour>
      <contour>
        <pt x="563" y="1373" on="0"/>
        <pt x="525" y="1418" on="0"/>
        <pt x="525" y="1491" on="0"/>
        <pt x="563" y="1532" on="0"/>
        <pt x="626" y="1532" on="0"/>
        <pt x="666" y="1491" on="0"/>
        <pt x="666" y="1417" on="0"/>
        <pt x="627" y="1373" on="0"/>
      </contour>
    </TTGlyph>
    <TTGlyph name="Ograve" xMin="111" yMin="-27" xMax="1279" yMax="1738">
      <contour>
        <pt x="278" y="655" on="1"/>
        <pt x="278" y="551" on="0"/>
        <pt x="332" y="330" on="0"/>
        <pt x="435" y="158" on="0"/>
        <pt x="602" y="58" on="0"/>
        <pt x="794" y="58" on="0"/>
        <pt x="864" y="88" on="1"/>
        <pt x="990" y="144" on="0"/>
        <pt x="1113" y="415" on="0"/>
        <pt x="1113" y="744" on="0"/>
        <pt x="1019" y="1022" on="0"/>
        <pt x="819" y="1197" on="0"/>
        <pt x="681" y="1197" on="1"/>
        <pt x="435" y="1197" on="0"/>
        <pt x="334" y="974" on="1"/>
        <pt x="278" y="848" on="0"/>
      </contour>
      <contour>
        <pt x="246" y="148" on="0"/>
        <pt x="111" y="442" on="0"/>
        <pt x="111" y="812" on="0"/>
        <pt x="260" y="1108" on="0"/>
        <pt x="543" y="1274" on="0"/>
        <pt x="730" y="1274" on="1"/>
        <pt x="859" y="1274" on="0"/>
        <pt x="1069" y="1172" on="0"/>
        <pt x="1137" y="1084" on="1"/>
        <pt x="1279" y="899" on="0"/>
        <pt x="1279" y="624" on="1"/>
        <pt x="1279" y="418" on="0"/>
        <pt x="1175" y="248" on="1"/>
        <pt x="1007" y="-27" on="0"/>
        <pt x="640" y="-27" on="1"/>
        <pt x="499" y="-27" on="0"/>
      </contour>
      <contour>
        <pt x="544" y="1701" on="1"/>
        <pt x="648" y="1738" on="1"/>
        <pt x="781" y="1403" on="1"/>
        <pt x="730" y="1372" on="1"/>
      </contour>
    </TTGlyph>
    <TTGlyph name="Ohungarumlaut" xMin="111" yMin="-27" xMax="1279" yMax="1622">
      <contour>
        <pt x="278" y="655" on="1"/>
        <pt x="278" y="551" on="0"/>
        <pt x="332" y="330" on="0"/>
        <pt x="435" y="158" on="0"/>
        <pt x="602" y="58" on="0"/>
        <pt x="794" y="58" on="0"/>
        <pt x="864" y="88" on="1"/>
        <pt x="990" y="144" on="0"/>
        <pt x="1113" y="415" on="0"/>
        <pt x="1113" y="744" on="0"/>
        <pt x="1019" y="1022" on="0"/>
        <pt x="819" y="1197" on="0"/>
        <pt x="681" y="1197" on="1"/>
        <pt x="435" y="1197" on="0"/>
        <pt x="334" y="974" on="1"/>
        <pt x="278" y="848" on="0"/>
      </contour>
      <contour>
        <pt x="246" y="148" on="0"/>
        <pt x="111" y="442" on="0"/>
        <pt x="111" y="812" on="0"/>
        <pt x="260" y="1108" on="0"/>
        <pt x="543" y="1274" on="0"/>
        <pt x="730" y="1274" on="1"/>
        <pt x="859" y="1274" on="0"/>
        <pt x="1069" y="1172" on="0"/>
        <pt x="1137" y="1084" on="1"/>
        <pt x="1279" y="899" on="0"/>
        <pt x="1279" y="624" on="1"/>
        <pt x="1279" y="418" on="0"/>
        <pt x="1175" y="248" on="1"/>
        <pt x="1007" y="-27" on="0"/>
        <pt x="640" y="-27" on="1"/>
        <pt x="499" y="-27" on="0"/>
      </contour>
      <contour>
        <pt x="745" y="1414" on="1"/>
        <pt x="996" y="1614" on="1"/>
        <pt x="1061" y="1540" on="1"/>
        <pt x="770" y="1372" on="1"/>
      </contour>
      <contour>
        <pt x="535" y="1414" on="1"/>
        <pt x="792" y="1622" on="1"/>
        <pt x="859" y="1544" on="1"/>
        <pt x="559" y="1372" on="1"/>
      </contour>
    </TTGlyph>
    <TTGlyph name="Omacron" xMin="111" yMin="-27" xMax="1279" yMax="1449">
      <contour>
        <pt x="278" y="655" on="1"/>
        <pt x="278" y="551" on="0"/>
        <pt x="332" y="330" on="0"/>
        <pt x="435" y="158" on="0"/>
        <pt x="602" y="58" on="0"/>
        <pt x="794" y="58" on="0"/>
        <pt x="864" y="88" on="1"/>
        <pt x="990" y="144" on="0"/>
        <pt x="1113" y="415" on="0"/>
        <pt x="1113" y="744" on="0"/>
        <pt x="1019" y="1022" on="0"/>
        <pt x="819" y="1197" on="0"/>
        <pt x="681" y="1197" on="1"/>
        <pt x="435" y="1197" on="0"/>
        <pt x="334" y="974" on="1"/>
        <pt x="278" y="848" on="0"/>
      </contour>
      <contour>
        <pt x="246" y="148" on="0"/>
        <pt x="111" y="442" on="0"/>
        <pt x="111" y="812" on="0"/>
        <pt x="260" y="1108" on="0"/>
        <pt x="543" y="1274" on="0"/>
        <pt x="730" y="1274" on="1"/>
        <pt x="859" y="1274" on="0"/>
        <pt x="1069" y="1172" on="0"/>
        <pt x="1137" y="1084" on="1"/>
        <pt x="1279" y="899" on="0"/>
        <pt x="1279" y="624" on="1"/>
        <pt x="1279" y="418" on="0"/>
        <pt x="1175" y="248" on="1"/>
        <pt x="1007" y="-27" on="0"/>
        <pt x="640" y="-27" on="1"/>
        <pt x="499" y="-27" on="0"/>
      </contour>
      <contour>
        <pt x="471" y="1373" on="1"/>
        <pt x="482" y="1449" on="1"/>
        <pt x="923" y="1449" on="1"/>
        <pt x="913" y="1373" on="1"/>
      </contour>
    </TTGlyph>
    <TTGlyph name="Oslash" xMin="118" yMin="-27" xMax="1284" yMax="1274">
      <contour>
        <pt x="280" y="148" on="1"/>
        <pt x="118" y="333" on="0"/>
        <pt x="118" y="620" on="1"/>
        <pt x="118" y="812" on="0"/>
        <pt x="267" y="1108" on="0"/>
        <pt x="549" y="1274" on="0"/>
        <pt x="923" y="1274" on="0"/>
        <pt x="1057" y="1170" on="1"/>
        <pt x="1105" y="1233" on="1"/>
        <pt x="1226" y="1220" on="1"/>
        <pt x="1128" y="1102" on="1"/>
        <pt x="1284" y="922" on="0"/>
        <pt x="1284" y="624" on="1"/>
        <pt x="1284" y="418" on="0"/>
        <pt x="1184" y="254" on="1"/>
        <pt x="1012" y="-27" on="0"/>
        <pt x="666" y="-27" on="1"/>
        <pt x="487" y="-27" on="0"/>
        <pt x="352" y="80" on="1"/>
        <pt x="292" y="-5" on="1"/>
        <pt x="176" y="8" on="1"/>
      </contour>
      <contour>
        <pt x="1022" y="991" on="1"/>
        <pt x="422" y="199" on="1"/>
        <pt x="536" y="58" on="0"/>
        <pt x="715" y="58" on="1"/>
        <pt x="957" y="58" on="0"/>
        <pt x="1062" y="288" on="1"/>
        <pt x="1119" y="412" on="0"/>
        <pt x="1119" y="574" on="1"/>
        <pt x="1119" y="821" on="0"/>
      </contour>
      <contour>
        <pt x="984" y="1048" on="1"/>
        <pt x="869" y="1197" on="0"/>
        <pt x="687" y="1197" on="1"/>
        <pt x="443" y="1197" on="0"/>
        <pt x="340" y="974" on="1"/>
        <pt x="283" y="849" on="0"/>
        <pt x="283" y="678" on="1"/>
        <pt x="283" y="424" on="0"/>
        <pt x="384" y="255" on="1"/>
      </contour>
    </TTGlyph>
    <TTGlyph name="Otilde" xMin="111" yMin="-27" xMax="1279" yMax="1533">
      <contour>
        <pt x="278" y="655" on="1"/>
        <pt x="278" y="551" on="0"/>
        <pt x="332" y="330" on="0"/>
        <pt x="435" y="158" on="0"/>
        <pt x="602" y="58" on="0"/>
        <pt x="794" y="58" on="0"/>
        <pt x="864" y="88" on="1"/>
        <pt x="990" y="144" on="0"/>
        <pt x="1113" y="415" on="0"/>
        <pt x="1113" y="744" on="0"/>
        <pt x="1019" y="1022" on="0"/>
        <pt x="819" y="1197" on="0"/>
        <pt x="681" y="1197" on="1"/>
        <pt x="435" y="1197" on="0"/>
        <pt x="334" y="974" on="1"/>
        <pt x="278" y="848" on="0"/>
      </contour>
      <contour>
        <pt x="246" y="148" on="0"/>
        <pt x="111" y="442" on="0"/>
        <pt x="111" y="812" on="0"/>
        <pt x="260" y="1108" on="0"/>
        <pt x="543" y="1274" on="0"/>
        <pt x="730" y="1274" on="1"/>
        <pt x="859" y="1274" on="0"/>
        <pt x="1069" y="1172" on="0"/>
        <pt x="1137" y="1084" on="1"/>
        <pt x="1279" y="899" on="0"/>
        <pt x="1279" y="624" on="1"/>
        <pt x="1279" y="418" on="0"/>
        <pt x="1175" y="248" on="1"/>
        <pt x="1007" y="-27" on="0"/>
        <pt x="640" y="-27" on="1"/>
        <pt x="499" y="-27" on="0"/>
      </contour>
      <contour>
        <pt x="496" y="1382" on="1"/>
        <pt x="515" y="1448" on="0"/>
        <pt x="537" y="1475" on="1"/>
        <pt x="585" y="1534" on="0"/>
        <pt x="643" y="1521" on="1"/>
        <pt x="846" y="1479" on="1"/>
        <pt x="890" y="1467" on="0"/>
        <pt x="922" y="1533" on="1"/>
        <pt x="964" y="1531" on="1"/>
        <pt x="934" y="1427" on="0"/>
        <pt x="868" y="1398" on="1"/>
        <pt x="840" y="1385" on="0"/>
        <pt x="809" y="1392" on="1"/>
        <pt x="608" y="1434" on="1"/>
        <pt x="567" y="1444" on="0"/>
        <pt x="529" y="1372" on="1"/>
      </contour>
    </TTGlyph>
    <TTGlyph name="P" xMin="85" yMin="0" xMax="1032" yMax="1256">
      <contour>
        <pt x="85" y="0" on="1"/>
        <pt x="93" y="58" on="1"/>
        <pt x="256" y="96" on="1"/>
        <pt x="256" y="1129" on="1"/>
        <pt x="90" y="1155" on="1"/>
        <pt x="98" y="1211" on="1"/>
        <pt x="107" y="1212" on="0"/>
        <pt x="185" y="1225" on="0"/>
        <pt x="198" y="1227" on="1"/>
        <pt x="256" y="1236" on="0"/>
        <pt x="304" y="1241" on="1"/>
        <pt x="358" y="1246" on="1"/>
        <pt x="451" y="1256" on="0"/>
        <pt x="621" y="1256" on="0"/>
        <pt x="692" y="1244" on="1"/>
        <pt x="846" y="1219" on="0"/>
        <pt x="1032" y="1050" on="0"/>
        <pt x="1032" y="893" on="1"/>
        <pt x="1032" y="776" on="0"/>
        <pt x="898" y="588" on="0"/>
        <pt x="682" y="488" on="0"/>
        <pt x="558" y="488" on="1"/>
        <pt x="518" y="488" on="0"/>
        <pt x="484" y="491" on="1"/>
        <pt x="469" y="553" on="1"/>
        <pt x="522" y="555" on="1"/>
        <pt x="697" y="562" on="0"/>
        <pt x="866" y="726" on="0"/>
        <pt x="866" y="1000" on="0"/>
        <pt x="691" y="1192" on="0"/>
        <pt x="513" y="1192" on="1"/>
        <pt x="407" y="1186" on="1"/>
        <pt x="407" y="94" on="1"/>
        <pt x="642" y="65" on="1"/>
        <pt x="631" y="0" on="1"/>
      </contour>
    </TTGlyph>
    <TTGlyph name="Q" xMin="111" yMin="-385" xMax="1286" yMax="1274">
      <contour>
        <pt x="582" y="88" on="1"/>
        <pt x="664" y="51" on="0"/>
        <pt x="760" y="47" on="1"/>
        <pt x="881" y="74" on="0"/>
        <pt x="966" y="154" on="1"/>
        <pt x="1129" y="309" on="0"/>
        <pt x="1129" y="568" on="1"/>
        <pt x="1129" y="738" on="0"/>
        <pt x="1023" y="1021" on="0"/>
        <pt x="817" y="1193" on="0"/>
        <pt x="684" y="1193" on="1"/>
        <pt x="488" y="1193" on="0"/>
        <pt x="268" y="908" on="0"/>
        <pt x="268" y="478" on="0"/>
        <pt x="431" y="157" on="0"/>
      </contour>
      <contour>
        <pt x="251" y="144" on="0"/>
        <pt x="111" y="437" on="0"/>
        <pt x="111" y="805" on="0"/>
        <pt x="265" y="1105" on="0"/>
        <pt x="551" y="1274" on="0"/>
        <pt x="737" y="1274" on="1"/>
        <pt x="865" y="1274" on="0"/>
        <pt x="1075" y="1173" on="0"/>
        <pt x="1144" y="1085" on="1"/>
        <pt x="1286" y="902" on="0"/>
        <pt x="1286" y="629" on="1"/>
        <pt x="1286" y="319" on="0"/>
        <pt x="1071" y="124" on="1"/>
        <pt x="962" y="25" on="0"/>
        <pt x="816" y="-9" on="1"/>
        <pt x="879" y="-149" on="0"/>
        <pt x="1069" y="-270" on="0"/>
        <pt x="1252" y="-294" on="1"/>
        <pt x="1249" y="-338" on="0"/>
        <pt x="1242" y="-355" on="1"/>
        <pt x="1179" y="-385" on="0"/>
        <pt x="1078" y="-385" on="1"/>
        <pt x="944" y="-385" on="0"/>
        <pt x="753" y="-181" on="0"/>
        <pt x="733" y="-21" on="1"/>
        <pt x="699" y="-27" on="0"/>
        <pt x="661" y="-27" on="1"/>
        <pt x="504" y="-27" on="0"/>
      </contour>
    </TTGlyph>
    <TTGlyph name="R" xMin="105" yMin="-19" xMax="1234" yMax="1254">
      <contour>
        <pt x="423" y="628" on="1"/>
        <pt x="636" y="628" on="1"/>
        <pt x="728" y="661" on="0"/>
        <pt x="853" y="811" on="0"/>
        <pt x="853" y="1039" on="0"/>
        <pt x="688" y="1189" on="0"/>
        <pt x="544" y="1189" on="1"/>
        <pt x="423" y="1184" on="1"/>
      </contour>
      <contour>
        <pt x="105" y="0" on="1"/>
        <pt x="114" y="58" on="1"/>
        <pt x="276" y="96" on="1"/>
        <pt x="276" y="1127" on="1"/>
        <pt x="110" y="1153" on="1"/>
        <pt x="120" y="1209" on="1"/>
        <pt x="398" y="1254" on="0"/>
        <pt x="765" y="1254" on="0"/>
        <pt x="1011" y="1105" on="0"/>
        <pt x="1011" y="952" on="1"/>
        <pt x="1011" y="847" on="0"/>
        <pt x="873" y="666" on="0"/>
        <pt x="730" y="605" on="1"/>
        <pt x="730" y="604" on="1"/>
        <pt x="916" y="336" on="1"/>
        <pt x="1017" y="191" on="0"/>
        <pt x="1123" y="86" on="0"/>
        <pt x="1193" y="64" on="1"/>
        <pt x="1234" y="51" on="1"/>
        <pt x="1223" y="-2" on="1"/>
        <pt x="1174" y="-19" on="0"/>
        <pt x="1120" y="-19" on="1"/>
        <pt x="1018" y="-19" on="0"/>
        <pt x="868" y="125" on="0"/>
        <pt x="798" y="245" on="1"/>
        <pt x="617" y="554" on="1"/>
        <pt x="423" y="554" on="1"/>
        <pt x="423" y="96" on="1"/>
        <pt x="623" y="64" on="1"/>
        <pt x="613" y="0" on="1"/>
      </contour>
    </TTGlyph>
    <TTGlyph name="Racute" xMin="105" yMin="-19" xMax="1234" yMax="1732">
      <contour>
        <pt x="423" y="628" on="1"/>
        <pt x="636" y="628" on="1"/>
        <pt x="728" y="661" on="0"/>
        <pt x="853" y="811" on="0"/>
        <pt x="853" y="1039" on="0"/>
        <pt x="688" y="1189" on="0"/>
        <pt x="544" y="1189" on="1"/>
        <pt x="423" y="1184" on="1"/>
      </contour>
      <contour>
        <pt x="105" y="0" on="1"/>
        <pt x="114" y="58" on="1"/>
        <pt x="276" y="96" on="1"/>
        <pt x="276" y="1127" on="1"/>
        <pt x="110" y="1153" on="1"/>
        <pt x="120" y="1209" on="1"/>
        <pt x="398" y="1254" on="0"/>
        <pt x="765" y="1254" on="0"/>
        <pt x="1011" y="1105" on="0"/>
        <pt x="1011" y="952" on="1"/>
        <pt x="1011" y="847" on="0"/>
        <pt x="873" y="666" on="0"/>
        <pt x="730" y="605" on="1"/>
        <pt x="730" y="604" on="1"/>
        <pt x="916" y="336" on="1"/>
        <pt x="1017" y="191" on="0"/>
        <pt x="1123" y="86" on="0"/>
        <pt x="1193" y="64" on="1"/>
        <pt x="1234" y="51" on="1"/>
        <pt x="1223" y="-2" on="1"/>
        <pt x="1174" y="-19" on="0"/>
        <pt x="1120" y="-19" on="1"/>
        <pt x="1018" y="-19" on="0"/>
        <pt x="868" y="125" on="0"/>
        <pt x="798" y="245" on="1"/>
        <pt x="617" y="554" on="1"/>
        <pt x="423" y="554" on="1"/>
        <pt x="423" y="96" on="1"/>
        <pt x="623" y="64" on="1"/>
        <pt x="613" y="0" on="1"/>
      </contour>
      <contour>
        <pt x="512" y="1402" on="1"/>
        <pt x="640" y="1732" on="1"/>
        <pt x="743" y="1693" on="1"/>
        <pt x="561" y="1372" on="1"/>
      </contour>
    </TTGlyph>
    <TTGlyph name="Rcaron" xMin="105" yMin="-19" xMax="1234" yMax="1600">
      <contour>
        <pt x="423" y="628" on="1"/>
        <pt x="636" y="628" on="1"/>
        <pt x="728" y="661" on="0"/>
        <pt x="853" y="811" on="0"/>
        <pt x="853" y="1039" on="0"/>
        <pt x="688" y="1189" on="0"/>
        <pt x="544" y="1189" on="1"/>
        <pt x="423" y="1184" on="1"/>
      </contour>
      <contour>
        <pt x="105" y="0" on="1"/>
        <pt x="114" y="58" on="1"/>
        <pt x="276" y="96" on="1"/>
        <pt x="276" y="1127" on="1"/>
        <pt x="110" y="1153" on="1"/>
        <pt x="120" y="1209" on="1"/>
        <pt x="398" y="1254" on="0"/>
        <pt x="765" y="1254" on="0"/>
        <pt x="1011" y="1105" on="0"/>
        <pt x="1011" y="952" on="1"/>
        <pt x="1011" y="847" on="0"/>
        <pt x="873" y="666" on="0"/>
        <pt x="730" y="605" on="1"/>
        <pt x="730" y="604" on="1"/>
        <pt x="916" y="336" on="1"/>
        <pt x="1017" y="191" on="0"/>
        <pt x="1123" y="86" on="0"/>
        <pt x="1193" y="64" on="1"/>
        <pt x="1234" y="51" on="1"/>
        <pt x="1223" y="-2" on="1"/>
        <pt x="1174" y="-19" on="0"/>
        <pt x="1120" y="-19" on="1"/>
        <pt x="1018" y="-19" on="0"/>
        <pt x="868" y="125" on="0"/>
        <pt x="798" y="245" on="1"/>
        <pt x="617" y="554" on="1"/>
        <pt x="423" y="554" on="1"/>
        <pt x="423" y="96" on="1"/>
        <pt x="623" y="64" on="1"/>
        <pt x="613" y="0" on="1"/>
      </contour>
      <contour>
        <pt x="381" y="1545" on="1"/>
        <pt x="449" y="1600" on="1"/>
        <pt x="606" y="1444" on="1"/>
        <pt x="616" y="1444" on="1"/>
        <pt x="748" y="1597" on="1"/>
        <pt x="789" y="1568" on="1"/>
        <pt x="616" y="1386" on="1"/>
        <pt x="560" y="1372" on="1"/>
      </contour>
    </TTGlyph>
    <TTGlyph name="Rcommaaccent" xMin="105" yMin="-387" xMax="1234" yMax="1254">
      <contour>
        <pt x="423" y="628" on="1"/>
        <pt x="636" y="628" on="1"/>
        <pt x="728" y="661" on="0"/>
        <pt x="853" y="811" on="0"/>
        <pt x="853" y="1039" on="0"/>
        <pt x="688" y="1189" on="0"/>
        <pt x="544" y="1189" on="1"/>
        <pt x="423" y="1184" on="1"/>
      </contour>
      <contour>
        <pt x="105" y="0" on="1"/>
        <pt x="114" y="58" on="1"/>
        <pt x="276" y="96" on="1"/>
        <pt x="276" y="1127" on="1"/>
        <pt x="110" y="1153" on="1"/>
        <pt x="120" y="1209" on="1"/>
        <pt x="398" y="1254" on="0"/>
        <pt x="765" y="1254" on="0"/>
        <pt x="1011" y="1105" on="0"/>
        <pt x="1011" y="952" on="1"/>
        <pt x="1011" y="847" on="0"/>
        <pt x="873" y="666" on="0"/>
        <pt x="730" y="605" on="1"/>
        <pt x="730" y="604" on="1"/>
        <pt x="916" y="336" on="1"/>
        <pt x="1017" y="191" on="0"/>
        <pt x="1123" y="86" on="0"/>
        <pt x="1193" y="64" on="1"/>
        <pt x="1234" y="51" on="1"/>
        <pt x="1223" y="-2" on="1"/>
        <pt x="1174" y="-19" on="0"/>
        <pt x="1120" y="-19" on="1"/>
        <pt x="1018" y="-19" on="0"/>
        <pt x="868" y="125" on="0"/>
        <pt x="798" y="245" on="1"/>
        <pt x="617" y="554" on="1"/>
        <pt x="423" y="554" on="1"/>
        <pt x="423" y="96" on="1"/>
        <pt x="623" y="64" on="1"/>
        <pt x="613" y="0" on="1"/>
      </contour>
      <contour>
        <pt x="683" y="-342" on="1"/>
        <pt x="793" y="-316" on="0"/>
        <pt x="793" y="-241" on="1"/>
        <pt x="793" y="-207" on="0"/>
        <pt x="733" y="-160" on="0"/>
        <pt x="700" y="-157" on="1"/>
        <pt x="703" y="-128" on="0"/>
        <pt x="751" y="-82" on="0"/>
        <pt x="825" y="-82" on="0"/>
        <pt x="886" y="-143" on="0"/>
        <pt x="886" y="-184" on="1"/>
        <pt x="886" y="-251" on="0"/>
        <pt x="804" y="-365" on="0"/>
        <pt x="700" y="-387" on="1"/>
      </contour>
    </TTGlyph>
    <TTGlyph name="S" xMin="80" yMin="-25" xMax="837" yMax="1270">
      <contour>
        <pt x="80" y="119" on="1"/>
        <pt x="102" y="395" on="1"/>
        <pt x="177" y="384" on="1"/>
        <pt x="210" y="181" on="1"/>
        <pt x="241" y="126" on="0"/>
        <pt x="374" y="57" on="0"/>
        <pt x="546" y="57" on="0"/>
        <pt x="690" y="170" on="0"/>
        <pt x="690" y="382" on="0"/>
        <pt x="576" y="466" on="1"/>
        <pt x="525" y="503" on="0"/>
        <pt x="464" y="539" on="1"/>
        <pt x="342" y="614" on="1"/>
        <pt x="281" y="653" on="0"/>
        <pt x="230" y="697" on="1"/>
        <pt x="116" y="795" on="0"/>
        <pt x="116" y="938" on="1"/>
        <pt x="116" y="1040" on="0"/>
        <pt x="170" y="1118" on="1"/>
        <pt x="275" y="1270" on="0"/>
        <pt x="654" y="1270" on="0"/>
        <pt x="764" y="1165" on="1"/>
        <pt x="737" y="869" on="1"/>
        <pt x="664" y="878" on="1"/>
        <pt x="638" y="1096" on="1"/>
        <pt x="617" y="1136" on="0"/>
        <pt x="505" y="1200" on="0"/>
        <pt x="363" y="1200" on="0"/>
        <pt x="252" y="1095" on="0"/>
        <pt x="252" y="940" on="0"/>
        <pt x="317" y="835" on="0"/>
        <pt x="420" y="758" on="0"/>
        <pt x="482" y="721" on="1"/>
        <pt x="606" y="646" on="1"/>
        <pt x="669" y="607" on="0"/>
        <pt x="720" y="564" on="1"/>
        <pt x="837" y="467" on="0"/>
        <pt x="837" y="176" on="0"/>
        <pt x="593" y="-25" on="0"/>
        <pt x="413" y="-25" on="1"/>
        <pt x="309" y="-25" on="0"/>
        <pt x="131" y="57" on="0"/>
      </contour>
    </TTGlyph>
    <TTGlyph name="Sacute" xMin="80" yMin="-25" xMax="837" yMax="1732">
      <contour>
        <pt x="80" y="119" on="1"/>
        <pt x="102" y="395" on="1"/>
        <pt x="177" y="384" on="1"/>
        <pt x="210" y="181" on="1"/>
        <pt x="241" y="126" on="0"/>
        <pt x="374" y="57" on="0"/>
        <pt x="546" y="57" on="0"/>
        <pt x="690" y="170" on="0"/>
        <pt x="690" y="382" on="0"/>
        <pt x="576" y="466" on="1"/>
        <pt x="525" y="503" on="0"/>
        <pt x="464" y="539" on="1"/>
        <pt x="342" y="614" on="1"/>
        <pt x="281" y="653" on="0"/>
        <pt x="230" y="697" on="1"/>
        <pt x="116" y="795" on="0"/>
        <pt x="116" y="938" on="1"/>
        <pt x="116" y="1040" on="0"/>
        <pt x="170" y="1118" on="1"/>
        <pt x="275" y="1270" on="0"/>
        <pt x="654" y="1270" on="0"/>
        <pt x="764" y="1165" on="1"/>
        <pt x="737" y="869" on="1"/>
        <pt x="664" y="878" on="1"/>
        <pt x="638" y="1096" on="1"/>
        <pt x="617" y="1136" on="0"/>
        <pt x="505" y="1200" on="0"/>
        <pt x="363" y="1200" on="0"/>
        <pt x="252" y="1095" on="0"/>
        <pt x="252" y="940" on="0"/>
        <pt x="317" y="835" on="0"/>
        <pt x="420" y="758" on="0"/>
        <pt x="482" y="721" on="1"/>
        <pt x="606" y="646" on="1"/>
        <pt x="669" y="607" on="0"/>
        <pt x="720" y="564" on="1"/>
        <pt x="837" y="467" on="0"/>
        <pt x="837" y="176" on="0"/>
        <pt x="593" y="-25" on="0"/>
        <pt x="413" y="-25" on="1"/>
        <pt x="309" y="-25" on="0"/>
        <pt x="131" y="57" on="0"/>
      </contour>
      <contour>
        <pt x="428" y="1402" on="1"/>
        <pt x="556" y="1732" on="1"/>
        <pt x="659" y="1693" on="1"/>
        <pt x="477" y="1372" on="1"/>
      </contour>
    </TTGlyph>
    <TTGlyph name="Scaron" xMin="80" yMin="-25" xMax="837" yMax="1600">
      <contour>
        <pt x="80" y="119" on="1"/>
        <pt x="102" y="395" on="1"/>
        <pt x="177" y="384" on="1"/>
        <pt x="210" y="181" on="1"/>
        <pt x="241" y="126" on="0"/>
        <pt x="374" y="57" on="0"/>
        <pt x="546" y="57" on="0"/>
        <pt x="690" y="170" on="0"/>
        <pt x="690" y="382" on="0"/>
        <pt x="576" y="466" on="1"/>
        <pt x="525" y="503" on="0"/>
        <pt x="464" y="539" on="1"/>
        <pt x="342" y="614" on="1"/>
        <pt x="281" y="653" on="0"/>
        <pt x="230" y="697" on="1"/>
        <pt x="116" y="795" on="0"/>
        <pt x="116" y="938" on="1"/>
        <pt x="116" y="1040" on="0"/>
        <pt x="170" y="1118" on="1"/>
        <pt x="275" y="1270" on="0"/>
        <pt x="654" y="1270" on="0"/>
        <pt x="764" y="1165" on="1"/>
        <pt x="737" y="869" on="1"/>
        <pt x="664" y="878" on="1"/>
        <pt x="638" y="1096" on="1"/>
        <pt x="617" y="1136" on="0"/>
        <pt x="505" y="1200" on="0"/>
        <pt x="363" y="1200" on="0"/>
        <pt x="252" y="1095" on="0"/>
        <pt x="252" y="940" on="0"/>
        <pt x="317" y="835" on="0"/>
        <pt x="420" y="758" on="0"/>
        <pt x="482" y="721" on="1"/>
        <pt x="606" y="646" on="1"/>
        <pt x="669" y="607" on="0"/>
        <pt x="720" y="564" on="1"/>
        <pt x="837" y="467" on="0"/>
        <pt x="837" y="176" on="0"/>
        <pt x="593" y="-25" on="0"/>
        <pt x="413" y="-25" on="1"/>
        <pt x="309" y="-25" on="0"/>
        <pt x="131" y="57" on="0"/>
      </contour>
      <contour>
        <pt x="273" y="1545" on="1"/>
        <pt x="341" y="1600" on="1"/>
        <pt x="498" y="1444" on="1"/>
        <pt x="508" y="1444" on="1"/>
        <pt x="640" y="1597" on="1"/>
        <pt x="681" y="1568" on="1"/>
        <pt x="508" y="1386" on="1"/>
        <pt x="452" y="1372" on="1"/>
      </contour>
    </TTGlyph>
    <TTGlyph name="Scedilla" xMin="80" yMin="-405" xMax="837" yMax="1270">
      <contour>
        <pt x="314" y="-354" on="1"/>
        <pt x="357" y="-339" on="0"/>
        <pt x="417" y="-286" on="0"/>
        <pt x="417" y="-251" on="0"/>
        <pt x="413" y="-238" on="1"/>
        <pt x="406" y="-215" on="0"/>
        <pt x="390" y="-196" on="1"/>
        <pt x="390" y="-196" on="0"/>
        <pt x="374" y="-179" on="1"/>
        <pt x="371" y="-175" on="0"/>
        <pt x="339" y="-145" on="0"/>
        <pt x="337" y="-143" on="1"/>
        <pt x="419" y="-25" on="1"/>
        <pt x="413" y="-25" on="1"/>
        <pt x="309" y="-25" on="0"/>
        <pt x="131" y="57" on="0"/>
        <pt x="80" y="119" on="1"/>
        <pt x="102" y="395" on="1"/>
        <pt x="177" y="384" on="1"/>
        <pt x="210" y="181" on="1"/>
        <pt x="241" y="126" on="0"/>
        <pt x="374" y="57" on="0"/>
        <pt x="546" y="57" on="0"/>
        <pt x="690" y="170" on="0"/>
        <pt x="690" y="382" on="0"/>
        <pt x="576" y="466" on="1"/>
        <pt x="525" y="503" on="0"/>
        <pt x="464" y="539" on="1"/>
        <pt x="342" y="614" on="1"/>
        <pt x="281" y="653" on="0"/>
        <pt x="230" y="697" on="1"/>
        <pt x="116" y="795" on="0"/>
        <pt x="116" y="938" on="1"/>
        <pt x="116" y="1040" on="0"/>
        <pt x="170" y="1118" on="1"/>
        <pt x="275" y="1270" on="0"/>
        <pt x="654" y="1270" on="0"/>
        <pt x="764" y="1165" on="1"/>
        <pt x="737" y="869" on="1"/>
        <pt x="664" y="878" on="1"/>
        <pt x="638" y="1096" on="1"/>
        <pt x="617" y="1136" on="0"/>
        <pt x="505" y="1200" on="0"/>
        <pt x="363" y="1200" on="0"/>
        <pt x="252" y="1095" on="0"/>
        <pt x="252" y="940" on="0"/>
        <pt x="317" y="835" on="0"/>
        <pt x="420" y="758" on="0"/>
        <pt x="482" y="721" on="1"/>
        <pt x="606" y="646" on="1"/>
        <pt x="669" y="607" on="0"/>
        <pt x="720" y="564" on="1"/>
        <pt x="837" y="467" on="0"/>
        <pt x="837" y="194" on="0"/>
        <pt x="642" y="1" on="0"/>
        <pt x="490" y="-20" on="1"/>
        <pt x="441" y="-91" on="1"/>
        <pt x="530" y="-170" on="0"/>
        <pt x="530" y="-242" on="1"/>
        <pt x="530" y="-345" on="0"/>
        <pt x="330" y="-405" on="1"/>
      </contour>
    </TTGlyph>
    <TTGlyph name="Scommaaccent" xMin="80" yMin="-384" xMax="837" yMax="1270">
      <contour>
        <pt x="80" y="119" on="1"/>
        <pt x="102" y="395" on="1"/>
        <pt x="177" y="384" on="1"/>
        <pt x="210" y="181" on="1"/>
        <pt x="241" y="126" on="0"/>
        <pt x="374" y="57" on="0"/>
        <pt x="546" y="57" on="0"/>
        <pt x="690" y="170" on="0"/>
        <pt x="690" y="382" on="0"/>
        <pt x="576" y="466" on="1"/>
        <pt x="525" y="503" on="0"/>
        <pt x="464" y="539" on="1"/>
        <pt x="342" y="614" on="1"/>
        <pt x="281" y="653" on="0"/>
        <pt x="230" y="697" on="1"/>
        <pt x="116" y="795" on="0"/>
        <pt x="116" y="938" on="1"/>
        <pt x="116" y="1040" on="0"/>
        <pt x="170" y="1118" on="1"/>
        <pt x="275" y="1270" on="0"/>
        <pt x="654" y="1270" on="0"/>
        <pt x="764" y="1165" on="1"/>
        <pt x="737" y="869" on="1"/>
        <pt x="664" y="878" on="1"/>
        <pt x="638" y="1096" on="1"/>
        <pt x="617" y="1136" on="0"/>
        <pt x="505" y="1200" on="0"/>
        <pt x="363" y="1200" on="0"/>
        <pt x="252" y="1095" on="0"/>
        <pt x="252" y="940" on="0"/>
        <pt x="317" y="835" on="0"/>
        <pt x="420" y="758" on="0"/>
        <pt x="482" y="721" on="1"/>
        <pt x="606" y="646" on="1"/>
        <pt x="669" y="607" on="0"/>
        <pt x="720" y="564" on="1"/>
        <pt x="837" y="467" on="0"/>
        <pt x="837" y="176" on="0"/>
        <pt x="593" y="-25" on="0"/>
        <pt x="413" y="-25" on="1"/>
        <pt x="309" y="-25" on="0"/>
        <pt x="131" y="57" on="0"/>
      </contour>
      <contour>
        <pt x="340" y="-339" on="1"/>
        <pt x="450" y="-313" on="0"/>
        <pt x="450" y="-238" on="1"/>
        <pt x="450" y="-204" on="0"/>
        <pt x="390" y="-157" on="0"/>
        <pt x="357" y="-154" on="1"/>
        <pt x="360" y="-125" on="0"/>
        <pt x="408" y="-79" on="0"/>
        <pt x="482" y="-79" on="0"/>
        <pt x="543" y="-140" on="0"/>
        <pt x="543" y="-181" on="1"/>
        <pt x="543" y="-248" on="0"/>
        <pt x="461" y="-362" on="0"/>
        <pt x="357" y="-384" on="1"/>
      </contour>
    </TTGlyph>
    <TTGlyph name="T" xMin="55" yMin="0" xMax="1127" yMax="1244">
      <contour>
        <pt x="55" y="1244" on="1"/>
        <pt x="1127" y="1244" on="1"/>
        <pt x="1093" y="909" on="1"/>
        <pt x="1020" y="920" on="1"/>
        <pt x="993" y="1173" on="1"/>
        <pt x="655" y="1173" on="1"/>
        <pt x="655" y="94" on="1"/>
        <pt x="836" y="63" on="1"/>
        <pt x="824" y="0" on="1"/>
        <pt x="327" y="0" on="1"/>
        <pt x="333" y="58" on="1"/>
        <pt x="505" y="96" on="1"/>
        <pt x="505" y="1173" on="1"/>
        <pt x="180" y="1173" on="1"/>
        <pt x="135" y="912" on="1"/>
        <pt x="64" y="923" on="1"/>
      </contour>
    </TTGlyph>
    <TTGlyph name="Tbar" xMin="62" yMin="0" xMax="1134" yMax="1244">
      <contour>
        <pt x="181" y="596" on="1"/>
        <pt x="190" y="689" on="1"/>
        <pt x="512" y="689" on="1"/>
        <pt x="512" y="1173" on="1"/>
        <pt x="187" y="1173" on="1"/>
        <pt x="142" y="912" on="1"/>
        <pt x="71" y="923" on="1"/>
        <pt x="62" y="1244" on="1"/>
        <pt x="1134" y="1244" on="1"/>
        <pt x="1100" y="909" on="1"/>
        <pt x="1027" y="920" on="1"/>
        <pt x="1000" y="1173" on="1"/>
        <pt x="662" y="1173" on="1"/>
        <pt x="662" y="689" on="1"/>
        <pt x="992" y="689" on="1"/>
        <pt x="986" y="596" on="1"/>
        <pt x="662" y="596" on="1"/>
        <pt x="662" y="94" on="1"/>
        <pt x="843" y="63" on="1"/>
        <pt x="831" y="0" on="1"/>
        <pt x="334" y="0" on="1"/>
        <pt x="340" y="58" on="1"/>
        <pt x="512" y="96" on="1"/>
        <pt x="512" y="596" on="1"/>
      </contour>
    </TTGlyph>
    <TTGlyph name="Tcaron" xMin="55" yMin="0" xMax="1127" yMax="1600">
      <contour>
        <pt x="55" y="1244" on="1"/>
        <pt x="1127" y="1244" on="1"/>
        <pt x="1093" y="909" on="1"/>
        <pt x="1020" y="920" on="1"/>
        <pt x="993" y="1173" on="1"/>
        <pt x="655" y="1173" on="1"/>
        <pt x="655" y="94" on="1"/>
        <pt x="836" y="63" on="1"/>
        <pt x="824" y="0" on="1"/>
        <pt x="327" y="0" on="1"/>
        <pt x="333" y="58" on="1"/>
        <pt x="505" y="96" on="1"/>
        <pt x="505" y="1173" on="1"/>
        <pt x="180" y="1173" on="1"/>
        <pt x="135" y="912" on="1"/>
        <pt x="64" y="923" on="1"/>
      </contour>
      <contour>
        <pt x="387" y="1545" on="1"/>
        <pt x="455" y="1600" on="1"/>
        <pt x="612" y="1444" on="1"/>
        <pt x="622" y="1444" on="1"/>
        <pt x="754" y="1597" on="1"/>
        <pt x="795" y="1568" on="1"/>
        <pt x="622" y="1386" on="1"/>
        <pt x="566" y="1372" on="1"/>
      </contour>
    </TTGlyph>
    <TTGlyph name="Tcommaaccent" xMin="55" yMin="-380" xMax="1127" yMax="1244">
      <contour>
        <pt x="614" y="-329" on="1"/>
        <pt x="657" y="-314" on="0"/>
        <pt x="717" y="-261" on="0"/>
        <pt x="717" y="-226" on="0"/>
        <pt x="713" y="-214" on="1"/>
        <pt x="706" y="-190" on="0"/>
        <pt x="690" y="-172" on="1"/>
        <pt x="690" y="-172" on="0"/>
        <pt x="674" y="-154" on="1"/>
        <pt x="671" y="-150" on="0"/>
        <pt x="639" y="-120" on="0"/>
        <pt x="637" y="-118" on="1"/>
        <pt x="719" y="0" on="1"/>
        <pt x="327" y="0" on="1"/>
        <pt x="333" y="58" on="1"/>
        <pt x="505" y="96" on="1"/>
        <pt x="505" y="1173" on="1"/>
        <pt x="180" y="1173" on="1"/>
        <pt x="135" y="912" on="1"/>
        <pt x="64" y="923" on="1"/>
        <pt x="55" y="1244" on="1"/>
        <pt x="1127" y="1244" on="1"/>
        <pt x="1093" y="909" on="1"/>
        <pt x="1020" y="920" on="1"/>
        <pt x="993" y="1173" on="1"/>
        <pt x="655" y="1173" on="1"/>
        <pt x="655" y="94" on="1"/>
        <pt x="836" y="63" on="1"/>
        <pt x="824" y="0" on="1"/>
        <pt x="786" y="0" on="1"/>
        <pt x="741" y="-66" on="1"/>
        <pt x="830" y="-145" on="0"/>
        <pt x="830" y="-217" on="1"/>
        <pt x="830" y="-320" on="0"/>
        <pt x="630" y="-380" on="1"/>
      </contour>
    </TTGlyph>
    <TTGlyph name="Thorn" xMin="81" yMin="0" xMax="1033" yMax="1244">
      <contour>
        <pt x="471" y="322" on="1"/>
        <pt x="524" y="323" on="1"/>
        <pt x="698" y="327" on="0"/>
        <pt x="868" y="492" on="0"/>
        <pt x="868" y="769" on="0"/>
        <pt x="687" y="953" on="0"/>
        <pt x="516" y="953" on="1"/>
        <pt x="409" y="946" on="1"/>
        <pt x="409" y="94" on="1"/>
        <pt x="644" y="64" on="1"/>
        <pt x="633" y="0" on="1"/>
        <pt x="87" y="0" on="1"/>
        <pt x="94" y="57" on="1"/>
        <pt x="259" y="96" on="1"/>
        <pt x="259" y="1154" on="1"/>
        <pt x="81" y="1187" on="1"/>
        <pt x="89" y="1244" on="1"/>
        <pt x="590" y="1244" on="1"/>
        <pt x="582" y="1187" on="1"/>
        <pt x="409" y="1156" on="1"/>
        <pt x="409" y="1021" on="1"/>
        <pt x="471" y="1024" on="0"/>
        <pt x="558" y="1024" on="1"/>
        <pt x="750" y="1024" on="0"/>
        <pt x="1033" y="858" on="0"/>
        <pt x="1033" y="660" on="1"/>
        <pt x="1033" y="542" on="0"/>
        <pt x="904" y="354" on="0"/>
        <pt x="693" y="254" on="0"/>
        <pt x="569" y="254" on="1"/>
        <pt x="533" y="254" on="0"/>
        <pt x="485" y="259" on="1"/>
        <pt x="471" y="301" on="0"/>
      </contour>
    </TTGlyph>
    <TTGlyph name="U" xMin="61" yMin="-27" xMax="1371" yMax="1244">
      <contour>
        <pt x="61" y="1187" on="1"/>
        <pt x="70" y="1244" on="1"/>
        <pt x="568" y="1244" on="1"/>
        <pt x="561" y="1187" on="1"/>
        <pt x="392" y="1156" on="1"/>
        <pt x="392" y="503" on="1"/>
        <pt x="392" y="73" on="0"/>
        <pt x="752" y="73" on="1"/>
        <pt x="916" y="73" on="0"/>
        <pt x="1095" y="271" on="0"/>
        <pt x="1095" y="466" on="1"/>
        <pt x="1096" y="1154" on="1"/>
        <pt x="912" y="1187" on="1"/>
        <pt x="920" y="1244" on="1"/>
        <pt x="1371" y="1244" on="1"/>
        <pt x="1362" y="1187" on="1"/>
        <pt x="1196" y="1156" on="1"/>
        <pt x="1191" y="503" on="1"/>
        <pt x="1189" y="238" on="0"/>
        <pt x="961" y="-27" on="0"/>
        <pt x="711" y="-27" on="1"/>
        <pt x="244" y="-27" on="0"/>
        <pt x="244" y="465" on="1"/>
        <pt x="244" y="1154" on="1"/>
      </contour>
    </TTGlyph>
    <TTGlyph name="Uacute" xMin="61" yMin="-27" xMax="1371" yMax="1732">
      <contour>
        <pt x="61" y="1187" on="1"/>
        <pt x="70" y="1244" on="1"/>
        <pt x="568" y="1244" on="1"/>
        <pt x="561" y="1187" on="1"/>
        <pt x="392" y="1156" on="1"/>
        <pt x="392" y="503" on="1"/>
        <pt x="392" y="73" on="0"/>
        <pt x="752" y="73" on="1"/>
        <pt x="916" y="73" on="0"/>
        <pt x="1095" y="271" on="0"/>
        <pt x="1095" y="466" on="1"/>
        <pt x="1096" y="1154" on="1"/>
        <pt x="912" y="1187" on="1"/>
        <pt x="920" y="1244" on="1"/>
        <pt x="1371" y="1244" on="1"/>
        <pt x="1362" y="1187" on="1"/>
        <pt x="1196" y="1156" on="1"/>
        <pt x="1191" y="503" on="1"/>
        <pt x="1189" y="238" on="0"/>
        <pt x="961" y="-27" on="0"/>
        <pt x="711" y="-27" on="1"/>
        <pt x="244" y="-27" on="0"/>
        <pt x="244" y="465" on="1"/>
        <pt x="244" y="1154" on="1"/>
      </contour>
      <contour>
        <pt x="672" y="1402" on="1"/>
        <pt x="800" y="1732" on="1"/>
        <pt x="903" y="1693" on="1"/>
        <pt x="721" y="1372" on="1"/>
      </contour>
    </TTGlyph>
    <TTGlyph name="Ucircumflex" xMin="61" yMin="-27" xMax="1371" yMax="1596">
      <contour>
        <pt x="61" y="1187" on="1"/>
        <pt x="70" y="1244" on="1"/>
        <pt x="568" y="1244" on="1"/>
        <pt x="561" y="1187" on="1"/>
        <pt x="392" y="1156" on="1"/>
        <pt x="392" y="503" on="1"/>
        <pt x="392" y="73" on="0"/>
        <pt x="752" y="73" on="1"/>
        <pt x="916" y="73" on="0"/>
        <pt x="1095" y="271" on="0"/>
        <pt x="1095" y="466" on="1"/>
        <pt x="1096" y="1154" on="1"/>
        <pt x="912" y="1187" on="1"/>
        <pt x="920" y="1244" on="1"/>
        <pt x="1371" y="1244" on="1"/>
        <pt x="1362" y="1187" on="1"/>
        <pt x="1196" y="1156" on="1"/>
        <pt x="1191" y="503" on="1"/>
        <pt x="1189" y="238" on="0"/>
        <pt x="961" y="-27" on="0"/>
        <pt x="711" y="-27" on="1"/>
        <pt x="244" y="-27" on="0"/>
        <pt x="244" y="465" on="1"/>
        <pt x="244" y="1154" on="1"/>
      </contour>
      <contour>
        <pt x="519" y="1402" on="1"/>
        <pt x="687" y="1582" on="1"/>
        <pt x="742" y="1596" on="1"/>
        <pt x="920" y="1410" on="1"/>
        <pt x="880" y="1373" on="1"/>
        <pt x="707" y="1495" on="1"/>
        <pt x="698" y="1495" on="1"/>
        <pt x="549" y="1372" on="1"/>
      </contour>
    </TTGlyph>
    <TTGlyph name="Udieresis" xMin="61" yMin="-27" xMax="1371" yMax="1532">
      <contour>
        <pt x="61" y="1187" on="1"/>
        <pt x="70" y="1244" on="1"/>
        <pt x="568" y="1244" on="1"/>
        <pt x="561" y="1187" on="1"/>
        <pt x="392" y="1156" on="1"/>
        <pt x="392" y="503" on="1"/>
        <pt x="392" y="73" on="0"/>
        <pt x="752" y="73" on="1"/>
        <pt x="916" y="73" on="0"/>
        <pt x="1095" y="271" on="0"/>
        <pt x="1095" y="466" on="1"/>
        <pt x="1096" y="1154" on="1"/>
        <pt x="912" y="1187" on="1"/>
        <pt x="920" y="1244" on="1"/>
        <pt x="1371" y="1244" on="1"/>
        <pt x="1362" y="1187" on="1"/>
        <pt x="1196" y="1156" on="1"/>
        <pt x="1191" y="503" on="1"/>
        <pt x="1189" y="238" on="0"/>
        <pt x="961" y="-27" on="0"/>
        <pt x="711" y="-27" on="1"/>
        <pt x="244" y="-27" on="0"/>
        <pt x="244" y="465" on="1"/>
        <pt x="244" y="1154" on="1"/>
      </contour>
      <contour>
        <pt x="820" y="1373" on="0"/>
        <pt x="783" y="1418" on="0"/>
        <pt x="783" y="1491" on="0"/>
        <pt x="821" y="1532" on="0"/>
        <pt x="884" y="1532" on="0"/>
        <pt x="925" y="1491" on="0"/>
        <pt x="925" y="1417" on="0"/>
        <pt x="885" y="1373" on="0"/>
      </contour>
      <contour>
        <pt x="553" y="1373" on="0"/>
        <pt x="515" y="1418" on="0"/>
        <pt x="515" y="1491" on="0"/>
        <pt x="553" y="1532" on="0"/>
        <pt x="616" y="1532" on="0"/>
        <pt x="656" y="1491" on="0"/>
        <pt x="656" y="1417" on="0"/>
        <pt x="617" y="1373" on="0"/>
      </contour>
    </TTGlyph>
    <TTGlyph name="Ugrave" xMin="61" yMin="-27" xMax="1371" yMax="1738">
      <contour>
        <pt x="61" y="1187" on="1"/>
        <pt x="70" y="1244" on="1"/>
        <pt x="568" y="1244" on="1"/>
        <pt x="561" y="1187" on="1"/>
        <pt x="392" y="1156" on="1"/>
        <pt x="392" y="503" on="1"/>
        <pt x="392" y="73" on="0"/>
        <pt x="752" y="73" on="1"/>
        <pt x="916" y="73" on="0"/>
        <pt x="1095" y="271" on="0"/>
        <pt x="1095" y="466" on="1"/>
        <pt x="1096" y="1154" on="1"/>
        <pt x="912" y="1187" on="1"/>
        <pt x="920" y="1244" on="1"/>
        <pt x="1371" y="1244" on="1"/>
        <pt x="1362" y="1187" on="1"/>
        <pt x="1196" y="1156" on="1"/>
        <pt x="1191" y="503" on="1"/>
        <pt x="1189" y="238" on="0"/>
        <pt x="961" y="-27" on="0"/>
        <pt x="711" y="-27" on="1"/>
        <pt x="244" y="-27" on="0"/>
        <pt x="244" y="465" on="1"/>
        <pt x="244" y="1154" on="1"/>
      </contour>
      <contour>
        <pt x="535" y="1701" on="1"/>
        <pt x="639" y="1738" on="1"/>
        <pt x="772" y="1403" on="1"/>
        <pt x="721" y="1372" on="1"/>
      </contour>
    </TTGlyph>
    <TTGlyph name="Uhungarumlaut" xMin="61" yMin="-27" xMax="1371" yMax="1622">
      <contour>
        <pt x="61" y="1187" on="1"/>
        <pt x="70" y="1244" on="1"/>
        <pt x="568" y="1244" on="1"/>
        <pt x="561" y="1187" on="1"/>
        <pt x="392" y="1156" on="1"/>
        <pt x="392" y="503" on="1"/>
        <pt x="392" y="73" on="0"/>
        <pt x="752" y="73" on="1"/>
        <pt x="916" y="73" on="0"/>
        <pt x="1095" y="271" on="0"/>
        <pt x="1095" y="466" on="1"/>
        <pt x="1096" y="1154" on="1"/>
        <pt x="912" y="1187" on="1"/>
        <pt x="920" y="1244" on="1"/>
        <pt x="1371" y="1244" on="1"/>
        <pt x="1362" y="1187" on="1"/>
        <pt x="1196" y="1156" on="1"/>
        <pt x="1191" y="503" on="1"/>
        <pt x="1189" y="238" on="0"/>
        <pt x="961" y="-27" on="0"/>
        <pt x="711" y="-27" on="1"/>
        <pt x="244" y="-27" on="0"/>
        <pt x="244" y="465" on="1"/>
        <pt x="244" y="1154" on="1"/>
      </contour>
      <contour>
        <pt x="777" y="1414" on="1"/>
        <pt x="1028" y="1614" on="1"/>
        <pt x="1093" y="1540" on="1"/>
        <pt x="802" y="1372" on="1"/>
      </contour>
      <contour>
        <pt x="567" y="1414" on="1"/>
        <pt x="824" y="1622" on="1"/>
        <pt x="891" y="1544" on="1"/>
        <pt x="591" y="1372" on="1"/>
      </contour>
    </TTGlyph>
    <TTGlyph name="Umacron" xMin="61" yMin="-27" xMax="1371" yMax="1449">
      <contour>
        <pt x="61" y="1187" on="1"/>
        <pt x="70" y="1244" on="1"/>
        <pt x="568" y="1244" on="1"/>
        <pt x="561" y="1187" on="1"/>
        <pt x="392" y="1156" on="1"/>
        <pt x="392" y="503" on="1"/>
        <pt x="392" y="73" on="0"/>
        <pt x="752" y="73" on="1"/>
        <pt x="916" y="73" on="0"/>
        <pt x="1095" y="271" on="0"/>
        <pt x="1095" y="466" on="1"/>
        <pt x="1096" y="1154" on="1"/>
        <pt x="912" y="1187" on="1"/>
        <pt x="920" y="1244" on="1"/>
        <pt x="1371" y="1244" on="1"/>
        <pt x="1362" y="1187" on="1"/>
        <pt x="1196" y="1156" on="1"/>
        <pt x="1191" y="503" on="1"/>
        <pt x="1189" y="238" on="0"/>
        <pt x="961" y="-27" on="0"/>
        <pt x="711" y="-27" on="1"/>
        <pt x="244" y="-27" on="0"/>
        <pt x="244" y="465" on="1"/>
        <pt x="244" y="1154" on="1"/>
      </contour>
      <contour>
        <pt x="494" y="1373" on="1"/>
        <pt x="505" y="1449" on="1"/>
        <pt x="946" y="1449" on="1"/>
        <pt x="936" y="1373" on="1"/>
      </contour>
    </TTGlyph>
    <TTGlyph name="Uogonek" xMin="61" yMin="-388" xMax="1371" yMax="1244">
      <contour>
        <pt x="61" y="1187" on="1"/>
        <pt x="70" y="1244" on="1"/>
        <pt x="568" y="1244" on="1"/>
        <pt x="561" y="1187" on="1"/>
        <pt x="392" y="1156" on="1"/>
        <pt x="392" y="503" on="1"/>
        <pt x="392" y="73" on="0"/>
        <pt x="752" y="73" on="1"/>
        <pt x="916" y="73" on="0"/>
        <pt x="1095" y="271" on="0"/>
        <pt x="1095" y="466" on="1"/>
        <pt x="1096" y="1154" on="1"/>
        <pt x="912" y="1187" on="1"/>
        <pt x="920" y="1244" on="1"/>
        <pt x="1371" y="1244" on="1"/>
        <pt x="1362" y="1187" on="1"/>
        <pt x="1196" y="1156" on="1"/>
        <pt x="1191" y="503" on="1"/>
        <pt x="1189" y="286" on="0"/>
        <pt x="1038" y="31" on="0"/>
        <pt x="874" y="-9" on="1"/>
        <pt x="812" y="-99" on="0"/>
        <pt x="812" y="-158" on="1"/>
        <pt x="812" y="-267" on="0"/>
        <pt x="945" y="-345" on="1"/>
        <pt x="911" y="-388" on="1"/>
        <pt x="807" y="-377" on="0"/>
        <pt x="689" y="-277" on="0"/>
        <pt x="689" y="-169" on="0"/>
        <pt x="734" y="-84" on="0"/>
        <pt x="797" y="-23" on="1"/>
        <pt x="761" y="-27" on="0"/>
        <pt x="711" y="-27" on="1"/>
        <pt x="244" y="-27" on="0"/>
        <pt x="244" y="465" on="1"/>
        <pt x="244" y="1154" on="1"/>
      </contour>
    </TTGlyph>
    <TTGlyph name="Uring" xMin="61" yMin="-27" xMax="1371" yMax="1711">
      <contour>
        <pt x="61" y="1187" on="1"/>
        <pt x="70" y="1244" on="1"/>
        <pt x="568" y="1244" on="1"/>
        <pt x="561" y="1187" on="1"/>
        <pt x="392" y="1156" on="1"/>
        <pt x="392" y="503" on="1"/>
        <pt x="392" y="73" on="0"/>
        <pt x="752" y="73" on="1"/>
        <pt x="916" y="73" on="0"/>
        <pt x="1095" y="271" on="0"/>
        <pt x="1095" y="466" on="1"/>
        <pt x="1096" y="1154" on="1"/>
        <pt x="912" y="1187" on="1"/>
        <pt x="920" y="1244" on="1"/>
        <pt x="1371" y="1244" on="1"/>
        <pt x="1362" y="1187" on="1"/>
        <pt x="1196" y="1156" on="1"/>
        <pt x="1191" y="503" on="1"/>
        <pt x="1189" y="238" on="0"/>
        <pt x="961" y="-27" on="0"/>
        <pt x="711" y="-27" on="1"/>
        <pt x="244" y="-27" on="0"/>
        <pt x="244" y="465" on="1"/>
        <pt x="244" y="1154" on="1"/>
      </contour>
      <contour>
        <pt x="680" y="1667" on="0"/>
        <pt x="635" y="1599" on="0"/>
        <pt x="635" y="1500" on="0"/>
        <pt x="688" y="1418" on="0"/>
        <pt x="776" y="1418" on="0"/>
        <pt x="824" y="1479" on="0"/>
        <pt x="824" y="1587" on="0"/>
        <pt x="769" y="1667" on="0"/>
      </contour>
      <contour>
        <pt x="653" y="1373" on="0"/>
        <pt x="568" y="1463" on="0"/>
        <pt x="568" y="1609" on="0"/>
        <pt x="665" y="1711" on="0"/>
        <pt x="806" y="1711" on="0"/>
        <pt x="892" y="1620" on="0"/>
        <pt x="892" y="1478" on="0"/>
        <pt x="797" y="1373" on="0"/>
      </contour>
    </TTGlyph>
    <TTGlyph name="V" xMin="38" yMin="-25" xMax="1272" yMax="1244">
      <contour>
        <pt x="38" y="1188" on="1"/>
        <pt x="45" y="1244" on="1"/>
        <pt x="527" y="1244" on="1"/>
        <pt x="520" y="1188" on="1"/>
        <pt x="351" y="1156" on="1"/>
        <pt x="681" y="206" on="1"/>
        <pt x="1029" y="1152" on="1"/>
        <pt x="844" y="1188" on="1"/>
        <pt x="850" y="1244" on="1"/>
        <pt x="1272" y="1244" on="1"/>
        <pt x="1267" y="1188" on="1"/>
        <pt x="1137" y="1156" on="1"/>
        <pt x="703" y="-4" on="1"/>
        <pt x="601" y="-25" on="1"/>
        <pt x="185" y="1152" on="1"/>
      </contour>
    </TTGlyph>
    <TTGlyph name="W" xMin="43" yMin="-25" xMax="1794" yMax="1244">
      <contour>
        <pt x="43" y="1188" on="1"/>
        <pt x="51" y="1244" on="1"/>
        <pt x="505" y="1244" on="1"/>
        <pt x="496" y="1190" on="1"/>
        <pt x="330" y="1156" on="1"/>
        <pt x="594" y="225" on="1"/>
        <pt x="884" y="1199" on="1"/>
        <pt x="995" y="1214" on="1"/>
        <pt x="1261" y="233" on="1"/>
        <pt x="1553" y="1151" on="1"/>
        <pt x="1369" y="1189" on="1"/>
        <pt x="1377" y="1244" on="1"/>
        <pt x="1794" y="1244" on="1"/>
        <pt x="1786" y="1188" on="1"/>
        <pt x="1666" y="1154" on="1"/>
        <pt x="1286" y="-4" on="1"/>
        <pt x="1177" y="-25" on="1"/>
        <pt x="912" y="971" on="1"/>
        <pt x="622" y="-4" on="1"/>
        <pt x="505" y="-24" on="1"/>
        <pt x="174" y="1153" on="1"/>
      </contour>
    </TTGlyph>
    <TTGlyph name="Wacute" xMin="43" yMin="-25" xMax="1794" yMax="1732">
      <contour>
        <pt x="43" y="1188" on="1"/>
        <pt x="51" y="1244" on="1"/>
        <pt x="505" y="1244" on="1"/>
        <pt x="496" y="1190" on="1"/>
        <pt x="330" y="1156" on="1"/>
        <pt x="594" y="225" on="1"/>
        <pt x="884" y="1199" on="1"/>
        <pt x="995" y="1214" on="1"/>
        <pt x="1261" y="233" on="1"/>
        <pt x="1553" y="1151" on="1"/>
        <pt x="1369" y="1189" on="1"/>
        <pt x="1377" y="1244" on="1"/>
        <pt x="1794" y="1244" on="1"/>
        <pt x="1786" y="1188" on="1"/>
        <pt x="1666" y="1154" on="1"/>
        <pt x="1286" y="-4" on="1"/>
        <pt x="1177" y="-25" on="1"/>
        <pt x="912" y="971" on="1"/>
        <pt x="622" y="-4" on="1"/>
        <pt x="505" y="-24" on="1"/>
        <pt x="174" y="1153" on="1"/>
      </contour>
      <contour>
        <pt x="874" y="1402" on="1"/>
        <pt x="1002" y="1732" on="1"/>
        <pt x="1105" y="1693" on="1"/>
        <pt x="923" y="1372" on="1"/>
      </contour>
    </TTGlyph>
    <TTGlyph name="Wcircumflex" xMin="43" yMin="-25" xMax="1794" yMax="1596">
      <contour>
        <pt x="43" y="1188" on="1"/>
        <pt x="51" y="1244" on="1"/>
        <pt x="505" y="1244" on="1"/>
        <pt x="496" y="1190" on="1"/>
        <pt x="330" y="1156" on="1"/>
        <pt x="594" y="225" on="1"/>
        <pt x="884" y="1199" on="1"/>
        <pt x="995" y="1214" on="1"/>
        <pt x="1261" y="233" on="1"/>
        <pt x="1553" y="1151" on="1"/>
        <pt x="1369" y="1189" on="1"/>
        <pt x="1377" y="1244" on="1"/>
        <pt x="1794" y="1244" on="1"/>
        <pt x="1786" y="1188" on="1"/>
        <pt x="1666" y="1154" on="1"/>
        <pt x="1286" y="-4" on="1"/>
        <pt x="1177" y="-25" on="1"/>
        <pt x="912" y="971" on="1"/>
        <pt x="622" y="-4" on="1"/>
        <pt x="505" y="-24" on="1"/>
        <pt x="174" y="1153" on="1"/>
      </contour>
      <contour>
        <pt x="738" y="1402" on="1"/>
        <pt x="906" y="1582" on="1"/>
        <pt x="961" y="1596" on="1"/>
        <pt x="1139" y="1410" on="1"/>
        <pt x="1099" y="1373" on="1"/>
        <pt x="926" y="1495" on="1"/>
        <pt x="917" y="1495" on="1"/>
        <pt x="768" y="1372" on="1"/>
      </contour>
    </TTGlyph>
    <TTGlyph name="Wdieresis" xMin="43" yMin="-25" xMax="1794" yMax="1532">
      <contour>
        <pt x="43" y="1188" on="1"/>
        <pt x="51" y="1244" on="1"/>
        <pt x="505" y="1244" on="1"/>
        <pt x="496" y="1190" on="1"/>
        <pt x="330" y="1156" on="1"/>
        <pt x="594" y="225" on="1"/>
        <pt x="884" y="1199" on="1"/>
        <pt x="995" y="1214" on="1"/>
        <pt x="1261" y="233" on="1"/>
        <pt x="1553" y="1151" on="1"/>
        <pt x="1369" y="1189" on="1"/>
        <pt x="1377" y="1244" on="1"/>
        <pt x="1794" y="1244" on="1"/>
        <pt x="1786" y="1188" on="1"/>
        <pt x="1666" y="1154" on="1"/>
        <pt x="1286" y="-4" on="1"/>
        <pt x="1177" y="-25" on="1"/>
        <pt x="912" y="971" on="1"/>
        <pt x="622" y="-4" on="1"/>
        <pt x="505" y="-24" on="1"/>
        <pt x="174" y="1153" on="1"/>
      </contour>
      <contour>
        <pt x="1023" y="1373" on="0"/>
        <pt x="986" y="1418" on="0"/>
        <pt x="986" y="1491" on="0"/>
        <pt x="1024" y="1532" on="0"/>
        <pt x="1087" y="1532" on="0"/>
        <pt x="1128" y="1491" on="0"/>
        <pt x="1128" y="1417" on="0"/>
        <pt x="1088" y="1373" on="0"/>
      </contour>
      <contour>
        <pt x="756" y="1373" on="0"/>
        <pt x="718" y="1418" on="0"/>
        <pt x="718" y="1491" on="0"/>
        <pt x="756" y="1532" on="0"/>
        <pt x="819" y="1532" on="0"/>
        <pt x="859" y="1491" on="0"/>
        <pt x="859" y="1417" on="0"/>
        <pt x="820" y="1373" on="0"/>
      </contour>
    </TTGlyph>
    <TTGlyph name="Wgrave" xMin="43" yMin="-25" xMax="1794" yMax="1738">
      <contour>
        <pt x="43" y="1188" on="1"/>
        <pt x="51" y="1244" on="1"/>
        <pt x="505" y="1244" on="1"/>
        <pt x="496" y="1190" on="1"/>
        <pt x="330" y="1156" on="1"/>
        <pt x="594" y="225" on="1"/>
        <pt x="884" y="1199" on="1"/>
        <pt x="995" y="1214" on="1"/>
        <pt x="1261" y="233" on="1"/>
        <pt x="1553" y="1151" on="1"/>
        <pt x="1369" y="1189" on="1"/>
        <pt x="1377" y="1244" on="1"/>
        <pt x="1794" y="1244" on="1"/>
        <pt x="1786" y="1188" on="1"/>
        <pt x="1666" y="1154" on="1"/>
        <pt x="1286" y="-4" on="1"/>
        <pt x="1177" y="-25" on="1"/>
        <pt x="912" y="971" on="1"/>
        <pt x="622" y="-4" on="1"/>
        <pt x="505" y="-24" on="1"/>
        <pt x="174" y="1153" on="1"/>
      </contour>
      <contour>
        <pt x="737" y="1701" on="1"/>
        <pt x="841" y="1738" on="1"/>
        <pt x="974" y="1403" on="1"/>
        <pt x="923" y="1372" on="1"/>
      </contour>
    </TTGlyph>
    <TTGlyph name="X" xMin="-2" yMin="0" xMax="1193" yMax="1244">
      <contour>
        <pt x="-2" y="0" on="1"/>
        <pt x="7" y="56" on="1"/>
        <pt x="133" y="92" on="1"/>
        <pt x="524" y="620" on="1"/>
        <pt x="160" y="1154" on="1"/>
        <pt x="23" y="1189" on="1"/>
        <pt x="31" y="1244" on="1"/>
        <pt x="497" y="1244" on="1"/>
        <pt x="490" y="1189" on="1"/>
        <pt x="334" y="1152" on="1"/>
        <pt x="623" y="727" on="1"/>
        <pt x="937" y="1155" on="1"/>
        <pt x="766" y="1187" on="1"/>
        <pt x="775" y="1244" on="1"/>
        <pt x="1177" y="1244" on="1"/>
        <pt x="1173" y="1188" on="1"/>
        <pt x="1047" y="1159" on="1"/>
        <pt x="679" y="654" on="1"/>
        <pt x="1057" y="84" on="1"/>
        <pt x="1193" y="58" on="1"/>
        <pt x="1183" y="0" on="1"/>
        <pt x="718" y="0" on="1"/>
        <pt x="727" y="51" on="1"/>
        <pt x="889" y="90" on="1"/>
        <pt x="580" y="550" on="1"/>
        <pt x="247" y="89" on="1"/>
        <pt x="413" y="62" on="1"/>
        <pt x="401" y="0" on="1"/>
      </contour>
    </TTGlyph>
    <TTGlyph name="Y" xMin="-9" yMin="0" xMax="1114" yMax="1244">
      <contour>
        <pt x="-9" y="1188" on="1"/>
        <pt x="0" y="1244" on="1"/>
        <pt x="463" y="1244" on="1"/>
        <pt x="455" y="1188" on="1"/>
        <pt x="292" y="1156" on="1"/>
        <pt x="588" y="605" on="1"/>
        <pt x="875" y="1152" on="1"/>
        <pt x="691" y="1188" on="1"/>
        <pt x="697" y="1244" on="1"/>
        <pt x="1114" y="1244" on="1"/>
        <pt x="1108" y="1188" on="1"/>
        <pt x="981" y="1156" on="1"/>
        <pt x="634" y="509" on="1"/>
        <pt x="634" y="91" on="1"/>
        <pt x="806" y="63" on="1"/>
        <pt x="797" y="0" on="1"/>
        <pt x="314" y="0" on="1"/>
        <pt x="322" y="58" on="1"/>
        <pt x="484" y="96" on="1"/>
        <pt x="484" y="497" on="1"/>
        <pt x="130" y="1152" on="1"/>
      </contour>
    </TTGlyph>
    <TTGlyph name="Yacute" xMin="-9" yMin="0" xMax="1114" yMax="1732">
      <contour>
        <pt x="-9" y="1188" on="1"/>
        <pt x="0" y="1244" on="1"/>
        <pt x="463" y="1244" on="1"/>
        <pt x="455" y="1188" on="1"/>
        <pt x="292" y="1156" on="1"/>
        <pt x="588" y="605" on="1"/>
        <pt x="875" y="1152" on="1"/>
        <pt x="691" y="1188" on="1"/>
        <pt x="697" y="1244" on="1"/>
        <pt x="1114" y="1244" on="1"/>
        <pt x="1108" y="1188" on="1"/>
        <pt x="981" y="1156" on="1"/>
        <pt x="634" y="509" on="1"/>
        <pt x="634" y="91" on="1"/>
        <pt x="806" y="63" on="1"/>
        <pt x="797" y="0" on="1"/>
        <pt x="314" y="0" on="1"/>
        <pt x="322" y="58" on="1"/>
        <pt x="484" y="96" on="1"/>
        <pt x="484" y="497" on="1"/>
        <pt x="130" y="1152" on="1"/>
      </contour>
      <contour>
        <pt x="529" y="1402" on="1"/>
        <pt x="657" y="1732" on="1"/>
        <pt x="760" y="1693" on="1"/>
        <pt x="578" y="1372" on="1"/>
      </contour>
    </TTGlyph>
    <TTGlyph name="Ycircumflex" xMin="-9" yMin="0" xMax="1114" yMax="1596">
      <contour>
        <pt x="-9" y="1188" on="1"/>
        <pt x="0" y="1244" on="1"/>
        <pt x="463" y="1244" on="1"/>
        <pt x="455" y="1188" on="1"/>
        <pt x="292" y="1156" on="1"/>
        <pt x="588" y="605" on="1"/>
        <pt x="875" y="1152" on="1"/>
        <pt x="691" y="1188" on="1"/>
        <pt x="697" y="1244" on="1"/>
        <pt x="1114" y="1244" on="1"/>
        <pt x="1108" y="1188" on="1"/>
        <pt x="981" y="1156" on="1"/>
        <pt x="634" y="509" on="1"/>
        <pt x="634" y="91" on="1"/>
        <pt x="806" y="63" on="1"/>
        <pt x="797" y="0" on="1"/>
        <pt x="314" y="0" on="1"/>
        <pt x="322" y="58" on="1"/>
        <pt x="484" y="96" on="1"/>
        <pt x="484" y="497" on="1"/>
        <pt x="130" y="1152" on="1"/>
      </contour>
      <contour>
        <pt x="364" y="1402" on="1"/>
        <pt x="532" y="1582" on="1"/>
        <pt x="587" y="1596" on="1"/>
        <pt x="765" y="1410" on="1"/>
        <pt x="725" y="1373" on="1"/>
        <pt x="552" y="1495" on="1"/>
        <pt x="543" y="1495" on="1"/>
        <pt x="394" y="1372" on="1"/>
      </contour>
    </TTGlyph>
    <TTGlyph name="Ydieresis" xMin="-9" yMin="0" xMax="1114" yMax="1532">
      <contour>
        <pt x="-9" y="1188" on="1"/>
        <pt x="0" y="1244" on="1"/>
        <pt x="463" y="1244" on="1"/>
        <pt x="455" y="1188" on="1"/>
        <pt x="292" y="1156" on="1"/>
        <pt x="588" y="605" on="1"/>
        <pt x="875" y="1152" on="1"/>
        <pt x="691" y="1188" on="1"/>
        <pt x="697" y="1244" on="1"/>
        <pt x="1114" y="1244" on="1"/>
        <pt x="1108" y="1188" on="1"/>
        <pt x="981" y="1156" on="1"/>
        <pt x="634" y="509" on="1"/>
        <pt x="634" y="91" on="1"/>
        <pt x="806" y="63" on="1"/>
        <pt x="797" y="0" on="1"/>
        <pt x="314" y="0" on="1"/>
        <pt x="322" y="58" on="1"/>
        <pt x="484" y="96" on="1"/>
        <pt x="484" y="497" on="1"/>
        <pt x="130" y="1152" on="1"/>
      </contour>
      <contour>
        <pt x="665" y="1373" on="0"/>
        <pt x="628" y="1418" on="0"/>
        <pt x="628" y="1491" on="0"/>
        <pt x="666" y="1532" on="0"/>
        <pt x="729" y="1532" on="0"/>
        <pt x="770" y="1491" on="0"/>
        <pt x="770" y="1417" on="0"/>
        <pt x="730" y="1373" on="0"/>
      </contour>
      <contour>
        <pt x="398" y="1373" on="0"/>
        <pt x="360" y="1418" on="0"/>
        <pt x="360" y="1491" on="0"/>
        <pt x="398" y="1532" on="0"/>
        <pt x="461" y="1532" on="0"/>
        <pt x="501" y="1491" on="0"/>
        <pt x="501" y="1417" on="0"/>
        <pt x="462" y="1373" on="0"/>
      </contour>
    </TTGlyph>
    <TTGlyph name="Ygrave" xMin="-9" yMin="0" xMax="1114" yMax="1738">
      <contour>
        <pt x="-9" y="1188" on="1"/>
        <pt x="0" y="1244" on="1"/>
        <pt x="463" y="1244" on="1"/>
        <pt x="455" y="1188" on="1"/>
        <pt x="292" y="1156" on="1"/>
        <pt x="588" y="605" on="1"/>
        <pt x="875" y="1152" on="1"/>
        <pt x="691" y="1188" on="1"/>
        <pt x="697" y="1244" on="1"/>
        <pt x="1114" y="1244" on="1"/>
        <pt x="1108" y="1188" on="1"/>
        <pt x="981" y="1156" on="1"/>
        <pt x="634" y="509" on="1"/>
        <pt x="634" y="91" on="1"/>
        <pt x="806" y="63" on="1"/>
        <pt x="797" y="0" on="1"/>
        <pt x="314" y="0" on="1"/>
        <pt x="322" y="58" on="1"/>
        <pt x="484" y="96" on="1"/>
        <pt x="484" y="497" on="1"/>
        <pt x="130" y="1152" on="1"/>
      </contour>
      <contour>
        <pt x="377" y="1701" on="1"/>
        <pt x="481" y="1738" on="1"/>
        <pt x="614" y="1403" on="1"/>
        <pt x="563" y="1372" on="1"/>
      </contour>
    </TTGlyph>
    <TTGlyph name="Z" xMin="45" yMin="0" xMax="1021" yMax="1244">
      <contour>
        <pt x="45" y="71" on="1"/>
        <pt x="819" y="1170" on="1"/>
        <pt x="232" y="1170" on="1"/>
        <pt x="154" y="903" on="1"/>
        <pt x="90" y="918" on="1"/>
        <pt x="99" y="1244" on="1"/>
        <pt x="1002" y="1244" on="1"/>
        <pt x="1004" y="1188" on="1"/>
        <pt x="219" y="79" on="1"/>
        <pt x="837" y="79" on="1"/>
        <pt x="952" y="347" on="1"/>
        <pt x="1021" y="336" on="1"/>
        <pt x="973" y="0" on="1"/>
        <pt x="52" y="0" on="1"/>
      </contour>
    </TTGlyph>
    <TTGlyph name="Zacute" xMin="45" yMin="0" xMax="1021" yMax="1732">
      <contour>
        <pt x="45" y="71" on="1"/>
        <pt x="819" y="1170" on="1"/>
        <pt x="232" y="1170" on="1"/>
        <pt x="154" y="903" on="1"/>
        <pt x="90" y="918" on="1"/>
        <pt x="99" y="1244" on="1"/>
        <pt x="1002" y="1244" on="1"/>
        <pt x="1004" y="1188" on="1"/>
        <pt x="219" y="79" on="1"/>
        <pt x="837" y="79" on="1"/>
        <pt x="952" y="347" on="1"/>
        <pt x="1021" y="336" on="1"/>
        <pt x="973" y="0" on="1"/>
        <pt x="52" y="0" on="1"/>
      </contour>
      <contour>
        <pt x="502" y="1402" on="1"/>
        <pt x="630" y="1732" on="1"/>
        <pt x="733" y="1693" on="1"/>
        <pt x="551" y="1372" on="1"/>
      </contour>
    </TTGlyph>
    <TTGlyph name="Zcaron" xMin="45" yMin="0" xMax="1021" yMax="1600">
      <contour>
        <pt x="45" y="71" on="1"/>
        <pt x="819" y="1170" on="1"/>
        <pt x="232" y="1170" on="1"/>
        <pt x="154" y="903" on="1"/>
        <pt x="90" y="918" on="1"/>
        <pt x="99" y="1244" on="1"/>
        <pt x="1002" y="1244" on="1"/>
        <pt x="1004" y="1188" on="1"/>
        <pt x="219" y="79" on="1"/>
        <pt x="837" y="79" on="1"/>
        <pt x="952" y="347" on="1"/>
        <pt x="1021" y="336" on="1"/>
        <pt x="973" y="0" on="1"/>
        <pt x="52" y="0" on="1"/>
      </contour>
      <contour>
        <pt x="347" y="1545" on="1"/>
        <pt x="415" y="1600" on="1"/>
        <pt x="572" y="1444" on="1"/>
        <pt x="582" y="1444" on="1"/>
        <pt x="714" y="1597" on="1"/>
        <pt x="755" y="1568" on="1"/>
        <pt x="582" y="1386" on="1"/>
        <pt x="526" y="1372" on="1"/>
      </contour>
    </TTGlyph>
    <TTGlyph name="Zdotaccent" xMin="45" yMin="0" xMax="1021" yMax="1581">
      <contour>
        <pt x="45" y="71" on="1"/>
        <pt x="819" y="1170" on="1"/>
        <pt x="232" y="1170" on="1"/>
        <pt x="154" y="903" on="1"/>
        <pt x="90" y="918" on="1"/>
        <pt x="99" y="1244" on="1"/>
        <pt x="1002" y="1244" on="1"/>
        <pt x="1004" y="1188" on="1"/>
        <pt x="219" y="79" on="1"/>
        <pt x="837" y="79" on="1"/>
        <pt x="952" y="347" on="1"/>
        <pt x="1021" y="336" on="1"/>
        <pt x="973" y="0" on="1"/>
        <pt x="52" y="0" on="1"/>
      </contour>
      <contour>
        <pt x="504" y="1373" on="0"/>
        <pt x="459" y="1432" on="0"/>
        <pt x="459" y="1525" on="0"/>
        <pt x="505" y="1581" on="0"/>
        <pt x="581" y="1581" on="0"/>
        <pt x="629" y="1525" on="0"/>
        <pt x="629" y="1431" on="0"/>
        <pt x="583" y="1373" on="0"/>
      </contour>
    </TTGlyph>
    <TTGlyph name="a" xMin="93" yMin="-25" xMax="839" yMax="889">
      <contour>
        <pt x="230" y="207" on="1"/>
        <pt x="230" y="154" on="0"/>
        <pt x="299" y="71" on="0"/>
        <pt x="414" y="71" on="0"/>
        <pt x="521" y="138" on="0"/>
        <pt x="554" y="186" on="1"/>
        <pt x="554" y="430" on="1"/>
        <pt x="390" y="402" on="0"/>
        <pt x="230" y="299" on="0"/>
      </contour>
      <contour>
        <pt x="93" y="169" on="1"/>
        <pt x="93" y="293" on="0"/>
        <pt x="319" y="460" on="0"/>
        <pt x="554" y="481" on="1"/>
        <pt x="554" y="529" on="1"/>
        <pt x="554" y="670" on="0"/>
        <pt x="474" y="816" on="0"/>
        <pt x="371" y="816" on="1"/>
        <pt x="315" y="816" on="0"/>
        <pt x="273" y="774" on="0"/>
        <pt x="252" y="703" on="0"/>
        <pt x="237" y="601" on="1"/>
        <pt x="127" y="601" on="0"/>
        <pt x="127" y="685" on="1"/>
        <pt x="127" y="736" on="0"/>
        <pt x="228" y="832" on="0"/>
        <pt x="375" y="889" on="0"/>
        <pt x="443" y="889" on="1"/>
        <pt x="567" y="889" on="0"/>
        <pt x="681" y="740" on="0"/>
        <pt x="681" y="581" on="1"/>
        <pt x="681" y="230" on="1"/>
        <pt x="681" y="153" on="0"/>
        <pt x="718" y="83" on="0"/>
        <pt x="781" y="73" on="1"/>
        <pt x="839" y="62" on="1"/>
        <pt x="830" y="2" on="1"/>
        <pt x="745" y="-18" on="0"/>
        <pt x="642" y="-18" on="0"/>
        <pt x="571" y="61" on="0"/>
        <pt x="571" y="116" on="1"/>
        <pt x="571" y="131" on="1"/>
        <pt x="563" y="131" on="1"/>
        <pt x="540" y="76" on="0"/>
        <pt x="397" y="-25" on="0"/>
        <pt x="211" y="-25" on="0"/>
        <pt x="93" y="80" on="0"/>
      </contour>
    </TTGlyph>
    <TTGlyph name="aacute" xMin="93" yMin="-25" xMax="839" yMax="1350">
      <contour>
        <pt x="230" y="207" on="1"/>
        <pt x="230" y="154" on="0"/>
        <pt x="299" y="71" on="0"/>
        <pt x="414" y="71" on="0"/>
        <pt x="521" y="138" on="0"/>
        <pt x="554" y="186" on="1"/>
        <pt x="554" y="430" on="1"/>
        <pt x="390" y="402" on="0"/>
        <pt x="230" y="299" on="0"/>
      </contour>
      <contour>
        <pt x="93" y="169" on="1"/>
        <pt x="93" y="293" on="0"/>
        <pt x="319" y="460" on="0"/>
        <pt x="554" y="481" on="1"/>
        <pt x="554" y="529" on="1"/>
        <pt x="554" y="670" on="0"/>
        <pt x="474" y="816" on="0"/>
        <pt x="371" y="816" on="1"/>
        <pt x="315" y="816" on="0"/>
        <pt x="273" y="774" on="0"/>
        <pt x="252" y="703" on="0"/>
        <pt x="237" y="601" on="1"/>
        <pt x="127" y="601" on="0"/>
        <pt x="127" y="685" on="1"/>
        <pt x="127" y="736" on="0"/>
        <pt x="228" y="832" on="0"/>
        <pt x="375" y="889" on="0"/>
        <pt x="443" y="889" on="1"/>
        <pt x="567" y="889" on="0"/>
        <pt x="681" y="740" on="0"/>
        <pt x="681" y="581" on="1"/>
        <pt x="681" y="230" on="1"/>
        <pt x="681" y="153" on="0"/>
        <pt x="718" y="83" on="0"/>
        <pt x="781" y="73" on="1"/>
        <pt x="839" y="62" on="1"/>
        <pt x="830" y="2" on="1"/>
        <pt x="745" y="-18" on="0"/>
        <pt x="642" y="-18" on="0"/>
        <pt x="571" y="61" on="0"/>
        <pt x="571" y="116" on="1"/>
        <pt x="571" y="131" on="1"/>
        <pt x="563" y="131" on="1"/>
        <pt x="540" y="76" on="0"/>
        <pt x="397" y="-25" on="0"/>
        <pt x="211" y="-25" on="0"/>
        <pt x="93" y="80" on="0"/>
      </contour>
      <contour>
        <pt x="395" y="1020" on="1"/>
        <pt x="523" y="1350" on="1"/>
        <pt x="626" y="1311" on="1"/>
        <pt x="444" y="990" on="1"/>
      </contour>
    </TTGlyph>
    <TTGlyph name="abreve" xMin="93" yMin="-25" xMax="839" yMax="1199">
      <contour>
        <pt x="230" y="207" on="1"/>
        <pt x="230" y="154" on="0"/>
        <pt x="299" y="71" on="0"/>
        <pt x="414" y="71" on="0"/>
        <pt x="521" y="138" on="0"/>
        <pt x="554" y="186" on="1"/>
        <pt x="554" y="430" on="1"/>
        <pt x="390" y="402" on="0"/>
        <pt x="230" y="299" on="0"/>
      </contour>
      <contour>
        <pt x="93" y="169" on="1"/>
        <pt x="93" y="293" on="0"/>
        <pt x="319" y="460" on="0"/>
        <pt x="554" y="481" on="1"/>
        <pt x="554" y="529" on="1"/>
        <pt x="554" y="670" on="0"/>
        <pt x="474" y="816" on="0"/>
        <pt x="371" y="816" on="1"/>
        <pt x="315" y="816" on="0"/>
        <pt x="273" y="774" on="0"/>
        <pt x="252" y="703" on="0"/>
        <pt x="237" y="601" on="1"/>
        <pt x="127" y="601" on="0"/>
        <pt x="127" y="685" on="1"/>
        <pt x="127" y="736" on="0"/>
        <pt x="228" y="832" on="0"/>
        <pt x="375" y="889" on="0"/>
        <pt x="443" y="889" on="1"/>
        <pt x="567" y="889" on="0"/>
        <pt x="681" y="740" on="0"/>
        <pt x="681" y="581" on="1"/>
        <pt x="681" y="230" on="1"/>
        <pt x="681" y="153" on="0"/>
        <pt x="718" y="83" on="0"/>
        <pt x="781" y="73" on="1"/>
        <pt x="839" y="62" on="1"/>
        <pt x="830" y="2" on="1"/>
        <pt x="745" y="-18" on="0"/>
        <pt x="642" y="-18" on="0"/>
        <pt x="571" y="61" on="0"/>
        <pt x="571" y="116" on="1"/>
        <pt x="571" y="131" on="1"/>
        <pt x="563" y="131" on="1"/>
        <pt x="540" y="76" on="0"/>
        <pt x="397" y="-25" on="0"/>
        <pt x="211" y="-25" on="0"/>
        <pt x="93" y="80" on="0"/>
      </contour>
      <contour>
        <pt x="252" y="1169" on="1"/>
        <pt x="282" y="1197" on="1"/>
        <pt x="305" y="1152" on="0"/>
        <pt x="387" y="1083" on="0"/>
        <pt x="442" y="1083" on="1"/>
        <pt x="536" y="1083" on="0"/>
        <pt x="601" y="1199" on="1"/>
        <pt x="635" y="1174" on="1"/>
        <pt x="572" y="990" on="0"/>
        <pt x="297" y="990" on="0"/>
      </contour>
    </TTGlyph>
    <TTGlyph name="acircumflex" xMin="93" yMin="-25" xMax="839" yMax="1214">
      <contour>
        <pt x="230" y="207" on="1"/>
        <pt x="230" y="154" on="0"/>
        <pt x="299" y="71" on="0"/>
        <pt x="414" y="71" on="0"/>
        <pt x="521" y="138" on="0"/>
        <pt x="554" y="186" on="1"/>
        <pt x="554" y="430" on="1"/>
        <pt x="390" y="402" on="0"/>
        <pt x="230" y="299" on="0"/>
      </contour>
      <contour>
        <pt x="93" y="169" on="1"/>
        <pt x="93" y="293" on="0"/>
        <pt x="319" y="460" on="0"/>
        <pt x="554" y="481" on="1"/>
        <pt x="554" y="529" on="1"/>
        <pt x="554" y="670" on="0"/>
        <pt x="474" y="816" on="0"/>
        <pt x="371" y="816" on="1"/>
        <pt x="315" y="816" on="0"/>
        <pt x="273" y="774" on="0"/>
        <pt x="252" y="703" on="0"/>
        <pt x="237" y="601" on="1"/>
        <pt x="127" y="601" on="0"/>
        <pt x="127" y="685" on="1"/>
        <pt x="127" y="736" on="0"/>
        <pt x="228" y="832" on="0"/>
        <pt x="375" y="889" on="0"/>
        <pt x="443" y="889" on="1"/>
        <pt x="567" y="889" on="0"/>
        <pt x="681" y="740" on="0"/>
        <pt x="681" y="581" on="1"/>
        <pt x="681" y="230" on="1"/>
        <pt x="681" y="153" on="0"/>
        <pt x="718" y="83" on="0"/>
        <pt x="781" y="73" on="1"/>
        <pt x="839" y="62" on="1"/>
        <pt x="830" y="2" on="1"/>
        <pt x="745" y="-18" on="0"/>
        <pt x="642" y="-18" on="0"/>
        <pt x="571" y="61" on="0"/>
        <pt x="571" y="116" on="1"/>
        <pt x="571" y="131" on="1"/>
        <pt x="563" y="131" on="1"/>
        <pt x="540" y="76" on="0"/>
        <pt x="397" y="-25" on="0"/>
        <pt x="211" y="-25" on="0"/>
        <pt x="93" y="80" on="0"/>
      </contour>
      <contour>
        <pt x="243" y="1020" on="1"/>
        <pt x="411" y="1200" on="1"/>
        <pt x="466" y="1214" on="1"/>
        <pt x="644" y="1028" on="1"/>
        <pt x="604" y="991" on="1"/>
        <pt x="431" y="1113" on="1"/>
        <pt x="422" y="1113" on="1"/>
        <pt x="273" y="990" on="1"/>
      </contour>
    </TTGlyph>
    <TTGlyph name="acute" xMin="199" yMin="1346" xMax="430" yMax="1706">
      <contour>
        <pt x="199" y="1376" on="1"/>
        <pt x="327" y="1706" on="1"/>
        <pt x="430" y="1667" on="1"/>
        <pt x="248" y="1346" on="1"/>
      </contour>
    </TTGlyph>
    <TTGlyph name="adieresis" xMin="93" yMin="-25" xMax="839" yMax="1149">
      <contour>
        <pt x="230" y="207" on="1"/>
        <pt x="230" y="154" on="0"/>
        <pt x="299" y="71" on="0"/>
        <pt x="414" y="71" on="0"/>
        <pt x="521" y="138" on="0"/>
        <pt x="554" y="186" on="1"/>
        <pt x="554" y="430" on="1"/>
        <pt x="390" y="402" on="0"/>
        <pt x="230" y="299" on="0"/>
      </contour>
      <contour>
        <pt x="93" y="169" on="1"/>
        <pt x="93" y="293" on="0"/>
        <pt x="319" y="460" on="0"/>
        <pt x="554" y="481" on="1"/>
        <pt x="554" y="529" on="1"/>
        <pt x="554" y="670" on="0"/>
        <pt x="474" y="816" on="0"/>
        <pt x="371" y="816" on="1"/>
        <pt x="315" y="816" on="0"/>
        <pt x="273" y="774" on="0"/>
        <pt x="252" y="703" on="0"/>
        <pt x="237" y="601" on="1"/>
        <pt x="127" y="601" on="0"/>
        <pt x="127" y="685" on="1"/>
        <pt x="127" y="736" on="0"/>
        <pt x="228" y="832" on="0"/>
        <pt x="375" y="889" on="0"/>
        <pt x="443" y="889" on="1"/>
        <pt x="567" y="889" on="0"/>
        <pt x="681" y="740" on="0"/>
        <pt x="681" y="581" on="1"/>
        <pt x="681" y="230" on="1"/>
        <pt x="681" y="153" on="0"/>
        <pt x="718" y="83" on="0"/>
        <pt x="781" y="73" on="1"/>
        <pt x="839" y="62" on="1"/>
        <pt x="830" y="2" on="1"/>
        <pt x="745" y="-18" on="0"/>
        <pt x="642" y="-18" on="0"/>
        <pt x="571" y="61" on="0"/>
        <pt x="571" y="116" on="1"/>
        <pt x="571" y="131" on="1"/>
        <pt x="563" y="131" on="1"/>
        <pt x="540" y="76" on="0"/>
        <pt x="397" y="-25" on="0"/>
        <pt x="211" y="-25" on="0"/>
        <pt x="93" y="80" on="0"/>
      </contour>
      <contour>
        <pt x="543" y="990" on="0"/>
        <pt x="506" y="1035" on="0"/>
        <pt x="506" y="1108" on="0"/>
        <pt x="544" y="1149" on="0"/>
        <pt x="607" y="1149" on="0"/>
        <pt x="648" y="1108" on="0"/>
        <pt x="648" y="1034" on="0"/>
        <pt x="608" y="990" on="0"/>
      </contour>
      <contour>
        <pt x="276" y="990" on="0"/>
        <pt x="238" y="1035" on="0"/>
        <pt x="238" y="1108" on="0"/>
        <pt x="276" y="1149" on="0"/>
        <pt x="339" y="1149" on="0"/>
        <pt x="379" y="1108" on="0"/>
        <pt x="379" y="1034" on="0"/>
        <pt x="340" y="990" on="0"/>
      </contour>
    </TTGlyph>
    <TTGlyph name="ae" xMin="92" yMin="-30" xMax="1204" yMax="888">
      <contour>
        <pt x="678" y="492" on="1"/>
        <pt x="1028" y="529" on="1"/>
        <pt x="1038" y="561" on="0"/>
        <pt x="1038" y="700" on="0"/>
        <pt x="950" y="809" on="0"/>
        <pt x="796" y="809" on="0"/>
        <pt x="682" y="638" on="0"/>
      </contour>
      <contour>
        <pt x="228" y="200" on="1"/>
        <pt x="228" y="138" on="0"/>
        <pt x="295" y="62" on="0"/>
        <pt x="427" y="62" on="0"/>
        <pt x="554" y="175" on="0"/>
        <pt x="554" y="255" on="1"/>
        <pt x="554" y="416" on="1"/>
        <pt x="381" y="390" on="0"/>
        <pt x="228" y="293" on="0"/>
      </contour>
      <contour>
        <pt x="1204" y="104" on="1"/>
        <pt x="1089" y="-30" on="0"/>
        <pt x="895" y="-30" on="1"/>
        <pt x="809" y="-30" on="0"/>
        <pt x="619" y="83" on="0"/>
        <pt x="592" y="172" on="1"/>
        <pt x="568" y="94" on="0"/>
        <pt x="400" y="-26" on="0"/>
        <pt x="209" y="-26" on="0"/>
        <pt x="92" y="75" on="0"/>
        <pt x="92" y="163" on="1"/>
        <pt x="92" y="285" on="0"/>
        <pt x="304" y="439" on="0"/>
        <pt x="554" y="476" on="1"/>
        <pt x="554" y="539" on="1"/>
        <pt x="554" y="678" on="0"/>
        <pt x="477" y="813" on="0"/>
        <pt x="301" y="813" on="0"/>
        <pt x="249" y="703" on="0"/>
        <pt x="238" y="609" on="1"/>
        <pt x="130" y="609" on="0"/>
        <pt x="130" y="693" on="1"/>
        <pt x="130" y="769" on="0"/>
        <pt x="333" y="888" on="0"/>
        <pt x="443" y="888" on="1"/>
        <pt x="610" y="888" on="0"/>
        <pt x="651" y="748" on="1"/>
        <pt x="757" y="886" on="0"/>
        <pt x="928" y="886" on="1"/>
        <pt x="1042" y="886" on="0"/>
        <pt x="1179" y="731" on="0"/>
        <pt x="1179" y="578" on="1"/>
        <pt x="1179" y="518" on="0"/>
        <pt x="1161" y="448" on="1"/>
        <pt x="678" y="428" on="1"/>
        <pt x="682" y="217" on="0"/>
        <pt x="804" y="122" on="1"/>
        <pt x="869" y="70" on="0"/>
        <pt x="1073" y="70" on="0"/>
        <pt x="1185" y="146" on="1"/>
      </contour>
    </TTGlyph>
    <TTGlyph name="agrave" xMin="93" yMin="-25" xMax="839" yMax="1356">
      <contour>
        <pt x="230" y="207" on="1"/>
        <pt x="230" y="154" on="0"/>
        <pt x="299" y="71" on="0"/>
        <pt x="414" y="71" on="0"/>
        <pt x="521" y="138" on="0"/>
        <pt x="554" y="186" on="1"/>
        <pt x="554" y="430" on="1"/>
        <pt x="390" y="402" on="0"/>
        <pt x="230" y="299" on="0"/>
      </contour>
      <contour>
        <pt x="93" y="169" on="1"/>
        <pt x="93" y="293" on="0"/>
        <pt x="319" y="460" on="0"/>
        <pt x="554" y="481" on="1"/>
        <pt x="554" y="529" on="1"/>
        <pt x="554" y="670" on="0"/>
        <pt x="474" y="816" on="0"/>
        <pt x="371" y="816" on="1"/>
        <pt x="315" y="816" on="0"/>
        <pt x="273" y="774" on="0"/>
        <pt x="252" y="703" on="0"/>
        <pt x="237" y="601" on="1"/>
        <pt x="127" y="601" on="0"/>
        <pt x="127" y="685" on="1"/>
        <pt x="127" y="736" on="0"/>
        <pt x="228" y="832" on="0"/>
        <pt x="375" y="889" on="0"/>
        <pt x="443" y="889" on="1"/>
        <pt x="567" y="889" on="0"/>
        <pt x="681" y="740" on="0"/>
        <pt x="681" y="581" on="1"/>
        <pt x="681" y="230" on="1"/>
        <pt x="681" y="153" on="0"/>
        <pt x="718" y="83" on="0"/>
        <pt x="781" y="73" on="1"/>
        <pt x="839" y="62" on="1"/>
        <pt x="830" y="2" on="1"/>
        <pt x="745" y="-18" on="0"/>
        <pt x="642" y="-18" on="0"/>
        <pt x="571" y="61" on="0"/>
        <pt x="571" y="116" on="1"/>
        <pt x="571" y="131" on="1"/>
        <pt x="563" y="131" on="1"/>
        <pt x="540" y="76" on="0"/>
        <pt x="397" y="-25" on="0"/>
        <pt x="211" y="-25" on="0"/>
        <pt x="93" y="80" on="0"/>
      </contour>
      <contour>
        <pt x="258" y="1319" on="1"/>
        <pt x="362" y="1356" on="1"/>
        <pt x="495" y="1021" on="1"/>
        <pt x="444" y="990" on="1"/>
      </contour>
    </TTGlyph>
    <TTGlyph name="amacron" xMin="93" yMin="-25" xMax="839" yMax="1066">
      <contour>
        <pt x="230" y="207" on="1"/>
        <pt x="230" y="154" on="0"/>
        <pt x="299" y="71" on="0"/>
        <pt x="414" y="71" on="0"/>
        <pt x="521" y="138" on="0"/>
        <pt x="554" y="186" on="1"/>
        <pt x="554" y="430" on="1"/>
        <pt x="390" y="402" on="0"/>
        <pt x="230" y="299" on="0"/>
      </contour>
      <contour>
        <pt x="93" y="169" on="1"/>
        <pt x="93" y="293" on="0"/>
        <pt x="319" y="460" on="0"/>
        <pt x="554" y="481" on="1"/>
        <pt x="554" y="529" on="1"/>
        <pt x="554" y="670" on="0"/>
        <pt x="474" y="816" on="0"/>
        <pt x="371" y="816" on="1"/>
        <pt x="315" y="816" on="0"/>
        <pt x="273" y="774" on="0"/>
        <pt x="252" y="703" on="0"/>
        <pt x="237" y="601" on="1"/>
        <pt x="127" y="601" on="0"/>
        <pt x="127" y="685" on="1"/>
        <pt x="127" y="736" on="0"/>
        <pt x="228" y="832" on="0"/>
        <pt x="375" y="889" on="0"/>
        <pt x="443" y="889" on="1"/>
        <pt x="567" y="889" on="0"/>
        <pt x="681" y="740" on="0"/>
        <pt x="681" y="581" on="1"/>
        <pt x="681" y="230" on="1"/>
        <pt x="681" y="153" on="0"/>
        <pt x="718" y="83" on="0"/>
        <pt x="781" y="73" on="1"/>
        <pt x="839" y="62" on="1"/>
        <pt x="830" y="2" on="1"/>
        <pt x="745" y="-18" on="0"/>
        <pt x="642" y="-18" on="0"/>
        <pt x="571" y="61" on="0"/>
        <pt x="571" y="116" on="1"/>
        <pt x="571" y="131" on="1"/>
        <pt x="563" y="131" on="1"/>
        <pt x="540" y="76" on="0"/>
        <pt x="397" y="-25" on="0"/>
        <pt x="211" y="-25" on="0"/>
        <pt x="93" y="80" on="0"/>
      </contour>
      <contour>
        <pt x="217" y="990" on="1"/>
        <pt x="228" y="1066" on="1"/>
        <pt x="669" y="1066" on="1"/>
        <pt x="659" y="990" on="1"/>
      </contour>
    </TTGlyph>
    <TTGlyph name="ampersand" xMin="56" yMin="-20" xMax="1238" yMax="1272">
      <contour>
        <pt x="331" y="1025" on="1"/>
        <pt x="331" y="908" on="0"/>
        <pt x="483" y="752" on="1"/>
        <pt x="564" y="810" on="0"/>
        <pt x="645" y="918" on="0"/>
        <pt x="645" y="1081" on="0"/>
        <pt x="558" y="1200" on="0"/>
        <pt x="415" y="1200" on="0"/>
        <pt x="331" y="1096" on="0"/>
      </contour>
      <contour>
        <pt x="308" y="564" on="0"/>
        <pt x="206" y="425" on="0"/>
        <pt x="206" y="231" on="0"/>
        <pt x="324" y="86" on="0"/>
        <pt x="424" y="86" on="1"/>
        <pt x="585" y="86" on="0"/>
        <pt x="703" y="286" on="1"/>
        <pt x="405" y="626" on="1"/>
        <pt x="395" y="627" on="1"/>
      </contour>
      <contour>
        <pt x="353" y="687" on="1"/>
        <pt x="211" y="834" on="0"/>
        <pt x="211" y="1093" on="0"/>
        <pt x="388" y="1272" on="0"/>
        <pt x="635" y="1272" on="0"/>
        <pt x="780" y="1140" on="0"/>
        <pt x="780" y="1016" on="1"/>
        <pt x="780" y="930" on="0"/>
        <pt x="655" y="778" on="0"/>
        <pt x="538" y="700" on="1"/>
        <pt x="538" y="693" on="1"/>
        <pt x="781" y="417" on="1"/>
        <pt x="964" y="720" on="1"/>
        <pt x="807" y="757" on="1"/>
        <pt x="813" y="812" on="1"/>
        <pt x="1238" y="812" on="1"/>
        <pt x="1230" y="757" on="1"/>
        <pt x="1061" y="723" on="1"/>
        <pt x="842" y="356" on="1"/>
        <pt x="1053" y="107" on="0"/>
        <pt x="1186" y="64" on="1"/>
        <pt x="1225" y="52" on="1"/>
        <pt x="1215" y="-2" on="1"/>
        <pt x="1164" y="-20" on="0"/>
        <pt x="1109" y="-20" on="1"/>
        <pt x="985" y="-20" on="0"/>
        <pt x="857" y="122" on="1"/>
        <pt x="762" y="227" on="1"/>
        <pt x="634" y="42" on="0"/>
        <pt x="500" y="-1" on="1"/>
        <pt x="441" y="-20" on="0"/>
        <pt x="372" y="-20" on="1"/>
        <pt x="230" y="-20" on="0"/>
        <pt x="56" y="147" on="0"/>
        <pt x="56" y="399" on="0"/>
        <pt x="212" y="596" on="0"/>
      </contour>
    </TTGlyph>
    <TTGlyph name="ampersand.osf" xMin="157" yMin="-20" xMax="1095" yMax="981">
      <contour>
        <pt x="649" y="168" on="1"/>
        <pt x="431" y="437" on="1"/>
        <pt x="308" y="343" on="0"/>
        <pt x="308" y="236" on="1"/>
        <pt x="308" y="167" on="0"/>
        <pt x="389" y="73" on="0"/>
        <pt x="453" y="73" on="1"/>
        <pt x="564" y="73" on="0"/>
      </contour>
      <contour>
        <pt x="698" y="108" on="1"/>
        <pt x="583" y="-20" on="0"/>
        <pt x="402" y="-20" on="1"/>
        <pt x="284" y="-20" on="0"/>
        <pt x="157" y="107" on="0"/>
        <pt x="157" y="312" on="0"/>
        <pt x="256" y="399" on="1"/>
        <pt x="308" y="444" on="0"/>
        <pt x="385" y="494" on="1"/>
        <pt x="321" y="570" on="0"/>
        <pt x="255" y="688" on="0"/>
        <pt x="255" y="747" on="1"/>
        <pt x="255" y="836" on="0"/>
        <pt x="406" y="981" on="0"/>
        <pt x="609" y="981" on="0"/>
        <pt x="732" y="873" on="0"/>
        <pt x="730" y="702" on="0"/>
        <pt x="632" y="578" on="0"/>
        <pt x="541" y="515" on="1"/>
        <pt x="729" y="282" on="1"/>
        <pt x="785" y="379" on="0"/>
        <pt x="839" y="509" on="1"/>
        <pt x="706" y="545" on="1"/>
        <pt x="712" y="595" on="1"/>
        <pt x="1095" y="595" on="1"/>
        <pt x="1087" y="545" on="1"/>
        <pt x="932" y="512" on="1"/>
        <pt x="826" y="304" on="1"/>
        <pt x="802" y="259" on="0"/>
        <pt x="780" y="222" on="1"/>
        <pt x="848" y="147" on="0"/>
        <pt x="956" y="83" on="0"/>
        <pt x="1020" y="64" on="1"/>
        <pt x="1061" y="53" on="1"/>
        <pt x="1050" y="-1" on="1"/>
        <pt x="999" y="-19" on="0"/>
        <pt x="882" y="-19" on="0"/>
        <pt x="751" y="47" on="0"/>
      </contour>
      <contour>
        <pt x="495" y="570" on="1"/>
        <pt x="612" y="661" on="0"/>
        <pt x="612" y="763" on="1"/>
        <pt x="612" y="830" on="0"/>
        <pt x="542" y="912" on="0"/>
        <pt x="440" y="912" on="0"/>
        <pt x="380" y="840" on="0"/>
        <pt x="380" y="739" on="0"/>
        <pt x="437" y="640" on="0"/>
      </contour>
    </TTGlyph>
    <TTGlyph name="aogonek" xMin="93" yMin="-402" xMax="839" yMax="889">
      <contour>
        <pt x="230" y="207" on="1"/>
        <pt x="230" y="154" on="0"/>
        <pt x="299" y="71" on="0"/>
        <pt x="414" y="71" on="0"/>
        <pt x="521" y="138" on="0"/>
        <pt x="554" y="186" on="1"/>
        <pt x="554" y="430" on="1"/>
        <pt x="390" y="402" on="0"/>
        <pt x="230" y="299" on="0"/>
      </contour>
      <contour>
        <pt x="93" y="169" on="1"/>
        <pt x="93" y="293" on="0"/>
        <pt x="319" y="460" on="0"/>
        <pt x="554" y="481" on="1"/>
        <pt x="554" y="529" on="1"/>
        <pt x="554" y="670" on="0"/>
        <pt x="474" y="816" on="0"/>
        <pt x="371" y="816" on="1"/>
        <pt x="315" y="816" on="0"/>
        <pt x="273" y="774" on="0"/>
        <pt x="252" y="703" on="0"/>
        <pt x="237" y="601" on="1"/>
        <pt x="127" y="601" on="0"/>
        <pt x="127" y="685" on="1"/>
        <pt x="127" y="736" on="0"/>
        <pt x="228" y="832" on="0"/>
        <pt x="375" y="889" on="0"/>
        <pt x="443" y="889" on="1"/>
        <pt x="567" y="889" on="0"/>
        <pt x="681" y="740" on="0"/>
        <pt x="681" y="581" on="1"/>
        <pt x="681" y="230" on="1"/>
        <pt x="681" y="153" on="0"/>
        <pt x="718" y="83" on="0"/>
        <pt x="781" y="73" on="1"/>
        <pt x="839" y="62" on="1"/>
        <pt x="830" y="2" on="1"/>
        <pt x="747" y="-17" on="0"/>
        <pt x="741" y="-17" on="1"/>
        <pt x="674" y="-114" on="0"/>
        <pt x="674" y="-172" on="1"/>
        <pt x="674" y="-281" on="0"/>
        <pt x="807" y="-359" on="1"/>
        <pt x="773" y="-402" on="1"/>
        <pt x="669" y="-391" on="0"/>
        <pt x="551" y="-291" on="0"/>
        <pt x="551" y="-180" on="0"/>
        <pt x="604" y="-86" on="0"/>
        <pt x="681" y="-16" on="1"/>
        <pt x="627" y="-8" on="0"/>
        <pt x="571" y="68" on="0"/>
        <pt x="571" y="116" on="1"/>
        <pt x="571" y="131" on="1"/>
        <pt x="563" y="131" on="1"/>
        <pt x="540" y="76" on="0"/>
        <pt x="397" y="-25" on="0"/>
        <pt x="211" y="-25" on="0"/>
        <pt x="93" y="80" on="0"/>
      </contour>
    </TTGlyph>
    <TTGlyph name="approxequal" xMin="83" yMin="278" xMax="869" yMax="749">
      <contour>
        <pt x="83" y="542" on="1"/>
        <pt x="88" y="565" on="0"/>
        <pt x="133" y="656" on="0"/>
        <pt x="178" y="710" on="0"/>
        <pt x="255" y="747" on="0"/>
        <pt x="298" y="738" on="1"/>
        <pt x="697" y="667" on="1"/>
        <pt x="728" y="660" on="0"/>
        <pt x="786" y="701" on="0"/>
        <pt x="800" y="725" on="1"/>
        <pt x="814" y="749" on="1"/>
        <pt x="869" y="748" on="1"/>
        <pt x="861" y="723" on="1"/>
        <pt x="842" y="663" on="0"/>
        <pt x="806" y="619" on="1"/>
        <pt x="733" y="529" on="0"/>
        <pt x="647" y="547" on="1"/>
        <pt x="248" y="618" on="1"/>
        <pt x="219" y="625" on="0"/>
        <pt x="160" y="580" on="0"/>
        <pt x="145" y="554" on="1"/>
        <pt x="130" y="529" on="1"/>
      </contour>
      <contour>
        <pt x="83" y="291" on="1"/>
        <pt x="88" y="314" on="0"/>
        <pt x="133" y="405" on="0"/>
        <pt x="178" y="459" on="0"/>
        <pt x="255" y="496" on="0"/>
        <pt x="298" y="487" on="1"/>
        <pt x="697" y="416" on="1"/>
        <pt x="728" y="409" on="0"/>
        <pt x="786" y="450" on="0"/>
        <pt x="800" y="474" on="1"/>
        <pt x="814" y="498" on="1"/>
        <pt x="869" y="497" on="1"/>
        <pt x="861" y="472" on="1"/>
        <pt x="842" y="412" on="0"/>
        <pt x="806" y="368" on="1"/>
        <pt x="733" y="278" on="0"/>
        <pt x="647" y="296" on="1"/>
        <pt x="248" y="367" on="1"/>
        <pt x="219" y="374" on="0"/>
        <pt x="160" y="329" on="0"/>
        <pt x="145" y="304" on="1"/>
        <pt x="130" y="278" on="1"/>
      </contour>
    </TTGlyph>
    <TTGlyph name="aring" xMin="93" yMin="-25" xMax="839" yMax="1328">
      <contour>
        <pt x="230" y="207" on="1"/>
        <pt x="230" y="154" on="0"/>
        <pt x="299" y="71" on="0"/>
        <pt x="414" y="71" on="0"/>
        <pt x="521" y="138" on="0"/>
        <pt x="554" y="186" on="1"/>
        <pt x="554" y="430" on="1"/>
        <pt x="390" y="402" on="0"/>
        <pt x="230" y="299" on="0"/>
      </contour>
      <contour>
        <pt x="93" y="169" on="1"/>
        <pt x="93" y="293" on="0"/>
        <pt x="319" y="460" on="0"/>
        <pt x="554" y="481" on="1"/>
        <pt x="554" y="529" on="1"/>
        <pt x="554" y="670" on="0"/>
        <pt x="474" y="816" on="0"/>
        <pt x="371" y="816" on="1"/>
        <pt x="315" y="816" on="0"/>
        <pt x="273" y="774" on="0"/>
        <pt x="252" y="703" on="0"/>
        <pt x="237" y="601" on="1"/>
        <pt x="127" y="601" on="0"/>
        <pt x="127" y="685" on="1"/>
        <pt x="127" y="736" on="0"/>
        <pt x="228" y="832" on="0"/>
        <pt x="375" y="889" on="0"/>
        <pt x="443" y="889" on="1"/>
        <pt x="567" y="889" on="0"/>
        <pt x="681" y="740" on="0"/>
        <pt x="681" y="581" on="1"/>
        <pt x="681" y="230" on="1"/>
        <pt x="681" y="153" on="0"/>
        <pt x="718" y="83" on="0"/>
        <pt x="781" y="73" on="1"/>
        <pt x="839" y="62" on="1"/>
        <pt x="830" y="2" on="1"/>
        <pt x="745" y="-18" on="0"/>
        <pt x="642" y="-18" on="0"/>
        <pt x="571" y="61" on="0"/>
        <pt x="571" y="116" on="1"/>
        <pt x="571" y="131" on="1"/>
        <pt x="563" y="131" on="1"/>
        <pt x="540" y="76" on="0"/>
        <pt x="397" y="-25" on="0"/>
        <pt x="211" y="-25" on="0"/>
        <pt x="93" y="80" on="0"/>
      </contour>
      <contour>
        <pt x="342" y="1284" on="0"/>
        <pt x="297" y="1216" on="0"/>
        <pt x="297" y="1116" on="0"/>
        <pt x="350" y="1035" on="0"/>
        <pt x="438" y="1035" on="0"/>
        <pt x="486" y="1096" on="0"/>
        <pt x="486" y="1204" on="0"/>
        <pt x="431" y="1284" on="0"/>
      </contour>
      <contour>
        <pt x="315" y="990" on="0"/>
        <pt x="230" y="1080" on="0"/>
        <pt x="230" y="1226" on="0"/>
        <pt x="327" y="1328" on="0"/>
        <pt x="468" y="1328" on="0"/>
        <pt x="554" y="1237" on="0"/>
        <pt x="554" y="1095" on="0"/>
        <pt x="459" y="990" on="0"/>
      </contour>
    </TTGlyph>
    <TTGlyph name="asciicircum" xMin="49" yMin="792" xMax="688" yMax="1251">
      <contour>
        <pt x="49" y="826" on="1"/>
        <pt x="338" y="1238" on="1"/>
        <pt x="394" y="1251" on="1"/>
        <pt x="688" y="824" on="1"/>
        <pt x="640" y="792" on="1"/>
        <pt x="363" y="1098" on="1"/>
        <pt x="353" y="1098" on="1"/>
        <pt x="91" y="797" on="1"/>
      </contour>
    </TTGlyph>
    <TTGlyph name="asciitilde" xMin="83" yMin="404" xMax="869" yMax="624">
      <contour>
        <pt x="83" y="417" on="1"/>
        <pt x="88" y="440" on="0"/>
        <pt x="133" y="531" on="0"/>
        <pt x="178" y="585" on="0"/>
        <pt x="255" y="622" on="0"/>
        <pt x="298" y="613" on="1"/>
        <pt x="697" y="542" on="1"/>
        <pt x="728" y="535" on="0"/>
        <pt x="786" y="576" on="0"/>
        <pt x="800" y="600" on="1"/>
        <pt x="814" y="624" on="1"/>
        <pt x="869" y="623" on="1"/>
        <pt x="861" y="598" on="1"/>
        <pt x="842" y="538" on="0"/>
        <pt x="806" y="494" on="1"/>
        <pt x="733" y="404" on="0"/>
        <pt x="647" y="422" on="1"/>
        <pt x="248" y="493" on="1"/>
        <pt x="219" y="500" on="0"/>
        <pt x="160" y="455" on="0"/>
        <pt x="145" y="430" on="1"/>
        <pt x="130" y="404" on="1"/>
      </contour>
    </TTGlyph>
    <TTGlyph name="asterisk" xMin="60" yMin="604" xMax="766" yMax="1291">
      <contour>
        <pt x="351" y="1291" on="1"/>
        <pt x="474" y="1280" on="1"/>
        <pt x="449" y="981" on="1"/>
        <pt x="739" y="1106" on="1"/>
        <pt x="766" y="990" on="1"/>
        <pt x="475" y="923" on="1"/>
        <pt x="687" y="686" on="1"/>
        <pt x="582" y="623" on="1"/>
        <pt x="426" y="882" on="1"/>
        <pt x="265" y="604" on="1"/>
        <pt x="172" y="685" on="1"/>
        <pt x="370" y="912" on="1"/>
        <pt x="60" y="978" on="1"/>
        <pt x="108" y="1092" on="1"/>
        <pt x="384" y="974" on="1"/>
      </contour>
    </TTGlyph>
    <TTGlyph name="at" xMin="88" yMin="-227" xMax="1304" yMax="1045">
      <contour>
        <pt x="512" y="369" on="1"/>
        <pt x="512" y="160" on="0"/>
        <pt x="596" y="160" on="1"/>
        <pt x="634" y="160" on="0"/>
        <pt x="736" y="216" on="0"/>
        <pt x="764" y="248" on="1"/>
        <pt x="818" y="703" on="1"/>
        <pt x="776" y="714" on="0"/>
        <pt x="716" y="714" on="1"/>
        <pt x="628" y="714" on="0"/>
        <pt x="512" y="509" on="0"/>
      </contour>
      <contour>
        <pt x="88" y="519" on="0"/>
        <pt x="259" y="844" on="0"/>
        <pt x="583" y="1045" on="0"/>
        <pt x="789" y="1045" on="1"/>
        <pt x="929" y="1045" on="0"/>
        <pt x="1164" y="929" on="0"/>
        <pt x="1304" y="716" on="0"/>
        <pt x="1304" y="481" on="0"/>
        <pt x="1233" y="294" on="0"/>
        <pt x="1110" y="153" on="0"/>
        <pt x="933" y="69" on="0"/>
        <pt x="833" y="69" on="1"/>
        <pt x="756" y="69" on="0"/>
        <pt x="762" y="187" on="1"/>
        <pt x="753" y="187" on="1"/>
        <pt x="720" y="138" on="0"/>
        <pt x="606" y="60" on="0"/>
        <pt x="477" y="60" on="0"/>
        <pt x="389" y="199" on="0"/>
        <pt x="389" y="313" on="1"/>
        <pt x="389" y="533" on="0"/>
        <pt x="637" y="790" on="0"/>
        <pt x="770" y="790" on="1"/>
        <pt x="846" y="790" on="0"/>
        <pt x="922" y="773" on="1"/>
        <pt x="940" y="752" on="1"/>
        <pt x="898" y="385" on="1"/>
        <pt x="886" y="296" on="1"/>
        <pt x="877" y="230" on="0"/>
        <pt x="882" y="152" on="0"/>
        <pt x="910" y="152" on="1"/>
        <pt x="1027" y="152" on="0"/>
        <pt x="1196" y="376" on="0"/>
        <pt x="1196" y="674" on="0"/>
        <pt x="1072" y="871" on="0"/>
        <pt x="871" y="972" on="0"/>
        <pt x="596" y="972" on="0"/>
        <pt x="346" y="805" on="0"/>
        <pt x="210" y="523" on="0"/>
        <pt x="210" y="355" on="1"/>
        <pt x="210" y="125" on="0"/>
        <pt x="486" y="-149" on="0"/>
        <pt x="729" y="-149" on="1"/>
        <pt x="830" y="-149" on="0"/>
        <pt x="1044" y="-69" on="0"/>
        <pt x="1088" y="-31" on="1"/>
        <pt x="1117" y="-82" on="1"/>
        <pt x="1016" y="-149" on="0"/>
        <pt x="960" y="-173" on="1"/>
        <pt x="838" y="-227" on="0"/>
        <pt x="599" y="-227" on="0"/>
        <pt x="512" y="-206" on="1"/>
        <pt x="330" y="-164" on="0"/>
        <pt x="88" y="106" on="0"/>
      </contour>
    </TTGlyph>
    <TTGlyph name="atilde" xMin="93" yMin="-25" xMax="839" yMax="1151">
      <contour>
        <pt x="230" y="207" on="1"/>
        <pt x="230" y="154" on="0"/>
        <pt x="299" y="71" on="0"/>
        <pt x="414" y="71" on="0"/>
        <pt x="521" y="138" on="0"/>
        <pt x="554" y="186" on="1"/>
        <pt x="554" y="430" on="1"/>
        <pt x="390" y="402" on="0"/>
        <pt x="230" y="299" on="0"/>
      </contour>
      <contour>
        <pt x="93" y="169" on="1"/>
        <pt x="93" y="293" on="0"/>
        <pt x="319" y="460" on="0"/>
        <pt x="554" y="481" on="1"/>
        <pt x="554" y="529" on="1"/>
        <pt x="554" y="670" on="0"/>
        <pt x="474" y="816" on="0"/>
        <pt x="371" y="816" on="1"/>
        <pt x="315" y="816" on="0"/>
        <pt x="273" y="774" on="0"/>
        <pt x="252" y="703" on="0"/>
        <pt x="237" y="601" on="1"/>
        <pt x="127" y="601" on="0"/>
        <pt x="127" y="685" on="1"/>
        <pt x="127" y="736" on="0"/>
        <pt x="228" y="832" on="0"/>
        <pt x="375" y="889" on="0"/>
        <pt x="443" y="889" on="1"/>
        <pt x="567" y="889" on="0"/>
        <pt x="681" y="740" on="0"/>
        <pt x="681" y="581" on="1"/>
        <pt x="681" y="230" on="1"/>
        <pt x="681" y="153" on="0"/>
        <pt x="718" y="83" on="0"/>
        <pt x="781" y="73" on="1"/>
        <pt x="839" y="62" on="1"/>
        <pt x="830" y="2" on="1"/>
        <pt x="745" y="-18" on="0"/>
        <pt x="642" y="-18" on="0"/>
        <pt x="571" y="61" on="0"/>
        <pt x="571" y="116" on="1"/>
        <pt x="571" y="131" on="1"/>
        <pt x="563" y="131" on="1"/>
        <pt x="540" y="76" on="0"/>
        <pt x="397" y="-25" on="0"/>
        <pt x="211" y="-25" on="0"/>
        <pt x="93" y="80" on="0"/>
      </contour>
      <contour>
        <pt x="210" y="1000" on="1"/>
        <pt x="229" y="1066" on="0"/>
        <pt x="251" y="1093" on="1"/>
        <pt x="299" y="1152" on="0"/>
        <pt x="357" y="1139" on="1"/>
        <pt x="560" y="1097" on="1"/>
        <pt x="604" y="1085" on="0"/>
        <pt x="636" y="1151" on="1"/>
        <pt x="678" y="1149" on="1"/>
        <pt x="648" y="1045" on="0"/>
        <pt x="582" y="1016" on="1"/>
        <pt x="554" y="1003" on="0"/>
        <pt x="523" y="1010" on="1"/>
        <pt x="322" y="1052" on="1"/>
        <pt x="281" y="1062" on="0"/>
        <pt x="243" y="990" on="1"/>
      </contour>
    </TTGlyph>
    <TTGlyph name="b" xMin="18" yMin="-24" xMax="905" yMax="1265">
      <contour>
        <pt x="300" y="126" on="1"/>
        <pt x="364" y="62" on="0"/>
        <pt x="508" y="62" on="1"/>
        <pt x="609" y="62" on="0"/>
        <pt x="763" y="247" on="0"/>
        <pt x="763" y="406" on="1"/>
        <pt x="763" y="677" on="0"/>
        <pt x="634" y="756" on="1"/>
        <pt x="585" y="785" on="0"/>
        <pt x="520" y="785" on="1"/>
        <pt x="410" y="785" on="0"/>
        <pt x="300" y="668" on="1"/>
      </contour>
      <contour>
        <pt x="18" y="1191" on="1"/>
        <pt x="27" y="1245" on="1"/>
        <pt x="285" y="1265" on="1"/>
        <pt x="300" y="1249" on="1"/>
        <pt x="300" y="837" on="1"/>
        <pt x="286" y="733" on="1"/>
        <pt x="298" y="733" on="1"/>
        <pt x="434" y="886" on="0"/>
        <pt x="731" y="886" on="0"/>
        <pt x="905" y="656" on="0"/>
        <pt x="905" y="466" on="1"/>
        <pt x="905" y="232" on="0"/>
        <pt x="621" y="-24" on="0"/>
        <pt x="420" y="-24" on="1"/>
        <pt x="284" y="-24" on="0"/>
        <pt x="171" y="49" on="1"/>
        <pt x="171" y="1149" on="1"/>
      </contour>
    </TTGlyph>
    <TTGlyph name="backslash" xMin="32" yMin="-367" xMax="602" yMax="1259">
      <contour>
        <pt x="32" y="1259" on="1"/>
        <pt x="140" y="1254" on="1"/>
        <pt x="602" y="-367" on="1"/>
        <pt x="498" y="-362" on="1"/>
      </contour>
    </TTGlyph>
    <TTGlyph name="bar" xMin="191" yMin="-380" xMax="287" yMax="1261">
      <contour>
        <pt x="191" y="-367" on="1"/>
        <pt x="191" y="1261" on="1"/>
        <pt x="287" y="1248" on="1"/>
        <pt x="287" y="-380" on="1"/>
      </contour>
    </TTGlyph>
    <TTGlyph name="braceleft" xMin="32" yMin="-378" xMax="559" yMax="1256">
      <contour>
        <pt x="559" y="-378" on="1"/>
        <pt x="456" y="-378" on="1"/>
        <pt x="325" y="-378" on="0"/>
        <pt x="231" y="-203" on="0"/>
        <pt x="226" y="-69" on="1"/>
        <pt x="223" y="-7" on="0"/>
        <pt x="222" y="56" on="1"/>
        <pt x="221" y="204" on="0"/>
        <pt x="200" y="281" on="1"/>
        <pt x="173" y="384" on="0"/>
        <pt x="83" y="395" on="1"/>
        <pt x="32" y="402" on="1"/>
        <pt x="32" y="476" on="1"/>
        <pt x="80" y="484" on="1"/>
        <pt x="193" y="501" on="0"/>
        <pt x="212" y="656" on="1"/>
        <pt x="221" y="725" on="0"/>
        <pt x="223" y="887" on="0"/>
        <pt x="233" y="1045" on="0"/>
        <pt x="269" y="1175" on="0"/>
        <pt x="369" y="1256" on="0"/>
        <pt x="452" y="1256" on="1"/>
        <pt x="554" y="1256" on="1"/>
        <pt x="546" y="1182" on="1"/>
        <pt x="452" y="1175" on="1"/>
        <pt x="378" y="1169" on="0"/>
        <pt x="368" y="1036" on="1"/>
        <pt x="363" y="977" on="0"/>
        <pt x="363" y="905" on="1"/>
        <pt x="363" y="725" on="0"/>
        <pt x="340" y="620" on="1"/>
        <pt x="308" y="474" on="0"/>
        <pt x="184" y="443" on="1"/>
        <pt x="184" y="438" on="1"/>
        <pt x="248" y="424" on="0"/>
        <pt x="327" y="329" on="0"/>
        <pt x="356" y="199" on="0"/>
        <pt x="366" y="48" on="0"/>
        <pt x="367" y="-98" on="0"/>
        <pt x="373" y="-158" on="1"/>
        <pt x="386" y="-293" on="0"/>
        <pt x="464" y="-297" on="1"/>
        <pt x="551" y="-303" on="1"/>
      </contour>
    </TTGlyph>
    <TTGlyph name="braceright" xMin="32" yMin="-378" xMax="559" yMax="1256">
      <contour>
        <pt x="32" y="-378" on="1"/>
        <pt x="40" y="-303" on="1"/>
        <pt x="127" y="-297" on="1"/>
        <pt x="205" y="-293" on="0"/>
        <pt x="218" y="-158" on="1"/>
        <pt x="223" y="-98" on="0"/>
        <pt x="225" y="48" on="0"/>
        <pt x="235" y="199" on="0"/>
        <pt x="263" y="329" on="0"/>
        <pt x="342" y="424" on="0"/>
        <pt x="406" y="438" on="1"/>
        <pt x="406" y="443" on="1"/>
        <pt x="282" y="474" on="0"/>
        <pt x="250" y="620" on="1"/>
        <pt x="226" y="729" on="0"/>
        <pt x="228" y="977" on="0"/>
        <pt x="224" y="1036" on="1"/>
        <pt x="213" y="1169" on="0"/>
        <pt x="139" y="1175" on="1"/>
        <pt x="45" y="1182" on="1"/>
        <pt x="37" y="1256" on="1"/>
        <pt x="139" y="1256" on="1"/>
        <pt x="222" y="1256" on="0"/>
        <pt x="322" y="1175" on="0"/>
        <pt x="358" y="1045" on="0"/>
        <pt x="368" y="887" on="0"/>
        <pt x="369" y="725" on="0"/>
        <pt x="378" y="656" on="1"/>
        <pt x="397" y="501" on="0"/>
        <pt x="510" y="484" on="1"/>
        <pt x="559" y="476" on="1"/>
        <pt x="559" y="402" on="1"/>
        <pt x="507" y="395" on="1"/>
        <pt x="395" y="380" on="0"/>
        <pt x="377" y="224" on="1"/>
        <pt x="369" y="155" on="0"/>
        <pt x="368" y="-7" on="0"/>
        <pt x="358" y="-166" on="0"/>
        <pt x="321" y="-297" on="0"/>
        <pt x="219" y="-378" on="0"/>
        <pt x="135" y="-378" on="1"/>
      </contour>
    </TTGlyph>
    <TTGlyph name="bracketleft" xMin="24" yMin="-375" xMax="392" yMax="1256">
      <contour>
        <pt x="392" y="-306" on="1"/>
        <pt x="384" y="-375" on="1"/>
        <pt x="24" y="-375" on="1"/>
        <pt x="25" y="1256" on="1"/>
        <pt x="383" y="1256" on="1"/>
        <pt x="390" y="1185" on="1"/>
        <pt x="155" y="1164" on="1"/>
        <pt x="155" y="-286" on="1"/>
      </contour>
    </TTGlyph>
    <TTGlyph name="bracketright" xMin="24" yMin="-375" xMax="392" yMax="1256">
      <contour>
        <pt x="24" y="-306" on="1"/>
        <pt x="261" y="-286" on="1"/>
        <pt x="261" y="1164" on="1"/>
        <pt x="26" y="1185" on="1"/>
        <pt x="34" y="1256" on="1"/>
        <pt x="391" y="1256" on="1"/>
        <pt x="392" y="-375" on="1"/>
        <pt x="32" y="-375" on="1"/>
      </contour>
    </TTGlyph>
    <TTGlyph name="breve" xMin="105" yMin="1374" xMax="488" yMax="1583">
      <contour>
        <pt x="105" y="1553" on="1"/>
        <pt x="135" y="1581" on="1"/>
        <pt x="158" y="1536" on="0"/>
        <pt x="240" y="1467" on="0"/>
        <pt x="295" y="1467" on="1"/>
        <pt x="389" y="1467" on="0"/>
        <pt x="454" y="1583" on="1"/>
        <pt x="488" y="1558" on="1"/>
        <pt x="425" y="1374" on="0"/>
        <pt x="150" y="1374" on="0"/>
      </contour>
    </TTGlyph>
    <TTGlyph name="brokenbar" xMin="193" yMin="-380" xMax="288" yMax="1257">
      <contour>
        <pt x="193" y="537" on="1"/>
        <pt x="193" y="1257" on="1"/>
        <pt x="287" y="1248" on="1"/>
        <pt x="285" y="529" on="1"/>
      </contour>
      <contour>
        <pt x="193" y="-370" on="1"/>
        <pt x="193" y="419" on="1"/>
        <pt x="288" y="411" on="1"/>
        <pt x="288" y="-380" on="1"/>
      </contour>
    </TTGlyph>
    <TTGlyph name="bullet" xMin="128" yMin="414" xMax="368" yMax="728">
      <contour>
        <pt x="193" y="414" on="0"/>
        <pt x="128" y="505" on="0"/>
        <pt x="128" y="646" on="0"/>
        <pt x="193" y="728" on="0"/>
        <pt x="300" y="728" on="0"/>
        <pt x="368" y="643" on="0"/>
        <pt x="368" y="502" on="0"/>
        <pt x="303" y="414" on="0"/>
      </contour>
    </TTGlyph>
    <TTGlyph name="c" xMin="91" yMin="-30" xMax="763" yMax="888">
      <contour>
        <pt x="289" y="-30" on="0"/>
        <pt x="91" y="219" on="0"/>
        <pt x="91" y="622" on="0"/>
        <pt x="323" y="888" on="0"/>
        <pt x="491" y="888" on="1"/>
        <pt x="608" y="888" on="0"/>
        <pt x="722" y="793" on="0"/>
        <pt x="722" y="726" on="1"/>
        <pt x="722" y="643" on="0"/>
        <pt x="627" y="627" on="1"/>
        <pt x="596" y="714" on="0"/>
        <pt x="510" y="810" on="0"/>
        <pt x="443" y="810" on="1"/>
        <pt x="351" y="810" on="0"/>
        <pt x="231" y="634" on="0"/>
        <pt x="231" y="301" on="0"/>
        <pt x="388" y="69" on="0"/>
        <pt x="645" y="69" on="0"/>
        <pt x="742" y="148" on="1"/>
        <pt x="763" y="102" on="1"/>
        <pt x="723" y="48" on="0"/>
        <pt x="550" y="-30" on="0"/>
        <pt x="457" y="-30" on="1"/>
      </contour>
    </TTGlyph>
    <TTGlyph name="cacute" xMin="91" yMin="-30" xMax="763" yMax="1350">
      <contour>
        <pt x="289" y="-30" on="0"/>
        <pt x="91" y="219" on="0"/>
        <pt x="91" y="622" on="0"/>
        <pt x="323" y="888" on="0"/>
        <pt x="491" y="888" on="1"/>
        <pt x="608" y="888" on="0"/>
        <pt x="722" y="793" on="0"/>
        <pt x="722" y="726" on="1"/>
        <pt x="722" y="643" on="0"/>
        <pt x="627" y="627" on="1"/>
        <pt x="596" y="714" on="0"/>
        <pt x="510" y="810" on="0"/>
        <pt x="443" y="810" on="1"/>
        <pt x="351" y="810" on="0"/>
        <pt x="231" y="634" on="0"/>
        <pt x="231" y="301" on="0"/>
        <pt x="388" y="69" on="0"/>
        <pt x="645" y="69" on="0"/>
        <pt x="742" y="148" on="1"/>
        <pt x="763" y="102" on="1"/>
        <pt x="723" y="48" on="0"/>
        <pt x="550" y="-30" on="0"/>
        <pt x="457" y="-30" on="1"/>
      </contour>
      <contour>
        <pt x="443" y="1020" on="1"/>
        <pt x="571" y="1350" on="1"/>
        <pt x="674" y="1311" on="1"/>
        <pt x="492" y="990" on="1"/>
      </contour>
    </TTGlyph>
    <TTGlyph name="caron" xMin="108" yMin="1357" xMax="516" yMax="1585">
      <contour>
        <pt x="108" y="1530" on="1"/>
        <pt x="176" y="1585" on="1"/>
        <pt x="333" y="1429" on="1"/>
        <pt x="343" y="1429" on="1"/>
        <pt x="475" y="1582" on="1"/>
        <pt x="516" y="1553" on="1"/>
        <pt x="343" y="1371" on="1"/>
        <pt x="287" y="1357" on="1"/>
      </contour>
    </TTGlyph>
    <TTGlyph name="ccaron" xMin="91" yMin="-30" xMax="763" yMax="1218">
      <contour>
        <pt x="289" y="-30" on="0"/>
        <pt x="91" y="219" on="0"/>
        <pt x="91" y="622" on="0"/>
        <pt x="323" y="888" on="0"/>
        <pt x="491" y="888" on="1"/>
        <pt x="608" y="888" on="0"/>
        <pt x="722" y="793" on="0"/>
        <pt x="722" y="726" on="1"/>
        <pt x="722" y="643" on="0"/>
        <pt x="627" y="627" on="1"/>
        <pt x="596" y="714" on="0"/>
        <pt x="510" y="810" on="0"/>
        <pt x="443" y="810" on="1"/>
        <pt x="351" y="810" on="0"/>
        <pt x="231" y="634" on="0"/>
        <pt x="231" y="301" on="0"/>
        <pt x="388" y="69" on="0"/>
        <pt x="645" y="69" on="0"/>
        <pt x="742" y="148" on="1"/>
        <pt x="763" y="102" on="1"/>
        <pt x="723" y="48" on="0"/>
        <pt x="550" y="-30" on="0"/>
        <pt x="457" y="-30" on="1"/>
      </contour>
      <contour>
        <pt x="288" y="1163" on="1"/>
        <pt x="356" y="1218" on="1"/>
        <pt x="513" y="1062" on="1"/>
        <pt x="523" y="1062" on="1"/>
        <pt x="655" y="1215" on="1"/>
        <pt x="696" y="1186" on="1"/>
        <pt x="523" y="1004" on="1"/>
        <pt x="467" y="990" on="1"/>
      </contour>
    </TTGlyph>
    <TTGlyph name="ccedilla" xMin="91" yMin="-410" xMax="763" yMax="888">
      <contour>
        <pt x="346" y="-359" on="1"/>
        <pt x="389" y="-344" on="0"/>
        <pt x="449" y="-291" on="0"/>
        <pt x="449" y="-256" on="0"/>
        <pt x="445" y="-244" on="1"/>
        <pt x="438" y="-220" on="0"/>
        <pt x="422" y="-202" on="1"/>
        <pt x="422" y="-202" on="0"/>
        <pt x="406" y="-184" on="1"/>
        <pt x="403" y="-180" on="0"/>
        <pt x="371" y="-150" on="0"/>
        <pt x="369" y="-148" on="1"/>
        <pt x="451" y="-30" on="1"/>
        <pt x="286" y="-28" on="0"/>
        <pt x="91" y="220" on="0"/>
        <pt x="91" y="622" on="0"/>
        <pt x="323" y="888" on="0"/>
        <pt x="491" y="888" on="1"/>
        <pt x="608" y="888" on="0"/>
        <pt x="722" y="793" on="0"/>
        <pt x="722" y="726" on="1"/>
        <pt x="722" y="643" on="0"/>
        <pt x="627" y="627" on="1"/>
        <pt x="596" y="714" on="0"/>
        <pt x="510" y="810" on="0"/>
        <pt x="443" y="810" on="1"/>
        <pt x="351" y="810" on="0"/>
        <pt x="231" y="634" on="0"/>
        <pt x="231" y="301" on="0"/>
        <pt x="388" y="69" on="0"/>
        <pt x="645" y="69" on="0"/>
        <pt x="742" y="148" on="1"/>
        <pt x="763" y="102" on="1"/>
        <pt x="731" y="58" on="0"/>
        <pt x="599" y="-13" on="0"/>
        <pt x="522" y="-25" on="1"/>
        <pt x="473" y="-96" on="1"/>
        <pt x="562" y="-175" on="0"/>
        <pt x="562" y="-247" on="1"/>
        <pt x="562" y="-350" on="0"/>
        <pt x="362" y="-410" on="1"/>
      </contour>
    </TTGlyph>
</ttFont>
